<?xml version="1.0" encoding="UTF-8" standalone="no"?>
<!-- Created with Inkscape (http://www.inkscape.org/) -->

<svg
   xmlns:dc="http://purl.org/dc/elements/1.1/"
   xmlns:cc="http://creativecommons.org/ns#"
   xmlns:rdf="http://www.w3.org/1999/02/22-rdf-syntax-ns#"
   xmlns:svg="http://www.w3.org/2000/svg"
   xmlns="http://www.w3.org/2000/svg"
   xmlns:xlink="http://www.w3.org/1999/xlink"
   xmlns:sodipodi="http://sodipodi.sourceforge.net/DTD/sodipodi-0.dtd"
   xmlns:inkscape="http://www.inkscape.org/namespaces/inkscape"
   version="1.0"
   width="256"
   height="256"
   id="svg11300"
   style="display:inline;enable-background:new"
   inkscape:version="0.48.4 r9939"
   sodipodi:docname="archive.svg">
  <sodipodi:namedview
     pagecolor="#ffffff"
     bordercolor="#666666"
     borderopacity="1"
     objecttolerance="10"
     gridtolerance="10"
     guidetolerance="10"
     inkscape:pageopacity="0"
     inkscape:pageshadow="2"
     inkscape:window-width="640"
     inkscape:window-height="480"
     id="namedview358"
     showgrid="false"
     inkscape:zoom="0.921875"
     inkscape:cx="128"
     inkscape:cy="128"
     inkscape:window-x="49"
     inkscape:window-y="24"
     inkscape:window-maximized="0"
     inkscape:current-layer="svg11300" />
  <metadata
     id="metadata106">
    <rdf:RDF>
      <cc:Work
         rdf:about="">
        <dc:format>image/svg+xml</dc:format>
        <dc:type
           rdf:resource="http://purl.org/dc/dcmitype/StillImage" />
        <dc:title />
        <dc:creator>
          <cc:Agent>
            <dc:title>Lapo Calamandrei</dc:title>
          </cc:Agent>
        </dc:creator>
        <dc:contributor>
          <cc:Agent>
            <dc:title>Jakub Steiner, Andreas Nilsson</dc:title>
          </cc:Agent>
        </dc:contributor>
        <dc:subject>
          <rdf:Bag>
            <rdf:li>box</rdf:li>
            <rdf:li>package</rdf:li>
            <rdf:li>compressed</rdf:li>
            <rdf:li>tarball</rdf:li>
            <rdf:li>bz2</rdf:li>
            <rdf:li>bzip</rdf:li>
            <rdf:li>7z</rdf:li>
            <rdf:li>zip</rdf:li>
            <rdf:li>arj</rdf:li>
            <rdf:li>lha</rdf:li>
            <rdf:li>arc</rdf:li>
            <rdf:li>larc</rdf:li>
          </rdf:Bag>
        </dc:subject>
      </cc:Work>
    </rdf:RDF>
  </metadata>
  <defs
     id="defs3">
    <linearGradient
       id="linearGradient3911">
      <stop
         id="stop3913"
         style="stop-color:#000000;stop-opacity:1"
         offset="0" />
      <stop
         id="stop3915"
         style="stop-color:#000000;stop-opacity:0"
         offset="1" />
    </linearGradient>
    <linearGradient
       id="linearGradient3890">
      <stop
         id="stop3892"
         style="stop-color:#eeeeec;stop-opacity:1"
         offset="0" />
      <stop
         id="stop3894"
         style="stop-color:#eeeeec;stop-opacity:0"
         offset="1" />
    </linearGradient>
    <filter
       x="-0.121875"
       y="-0.039795917"
       width="1.24375"
       height="1.0795918"
       color-interpolation-filters="sRGB"
       id="filter3736">
      <feGaussianBlur
         id="feGaussianBlur3738"
         stdDeviation="1.625" />
    </filter>
    <linearGradient
       id="linearGradient3741">
      <stop
         id="stop3745"
         style="stop-color:#000000;stop-opacity:1"
         offset="0" />
      <stop
         id="stop3747"
         style="stop-color:#000000;stop-opacity:0.40000001"
         offset="1" />
    </linearGradient>
    <clipPath
       id="clipPath2889">
      <path
         d="m 59.875,74.34375 -16.6875,49.53125 1.09375,-0.21875 c -0.05438,0.1788 -0.11847,0.3457 -0.15625,0.53125 -0.0016,0.01 0.0016,0.0216 0,0.0312 -0.07572,0.38194 -0.125,0.78267 -0.125,1.1875 l 0,129 0,4 c 0,3.324 2.676,5.99999 6,6 l 188.03125,0 c 3.324,0 6,-2.67601 6,-6 l 0,-133 c 0,-0.6925 -0.1298,-1.35084 -0.34375,-1.96875 l 0.875,0.4375 -16.6875,-49.53125 -168,0 z"
         id="path2891"
         style="fill:#000000;fill-opacity:1;fill-rule:evenodd;stroke:none;display:inline;enable-background:new" />
    </clipPath>
    <linearGradient
       id="linearGradient3766">
      <stop
         id="stop3768"
         style="stop-color:#ffffff;stop-opacity:1"
         offset="0" />
      <stop
         id="stop3771"
         style="stop-color:#ffffff;stop-opacity:0"
         offset="1" />
    </linearGradient>
    <filter
       color-interpolation-filters="sRGB"
       id="filter3684">
      <feGaussianBlur
         id="feGaussianBlur3686"
         stdDeviation="0.335" />
    </filter>
    <linearGradient
       id="linearGradient3688">
      <stop
         id="stop3690"
         style="stop-color:#888a85;stop-opacity:1"
         offset="0" />
      <stop
         id="stop3696"
         style="stop-color:#eeeeec;stop-opacity:1"
         offset="0.5" />
      <stop
         id="stop3692"
         style="stop-color:#2e3436;stop-opacity:1"
         offset="1" />
    </linearGradient>
    <linearGradient
       id="linearGradient3721">
      <stop
         id="stop3723"
         style="stop-color:#e9b96e;stop-opacity:1"
         offset="0" />
      <stop
         id="stop3725"
         style="stop-color:#ffffff;stop-opacity:0"
         offset="1" />
    </linearGradient>
    <linearGradient
       id="linearGradient3707">
      <stop
         id="stop3709"
         style="stop-color:#ffffff;stop-opacity:1"
         offset="0" />
      <stop
         id="stop3715"
         style="stop-color:#ffffff;stop-opacity:1"
         offset="0.5" />
      <stop
         id="stop3711"
         style="stop-color:#e9b96e;stop-opacity:1"
         offset="1" />
    </linearGradient>
    <clipPath
       id="clipPath3680">
      <path
         d="m -88.625,74 c -0.53122,0 -0.78227,3.092506 -0.9375,5.96875 l -2.34375,42.5 c -0.0534,0.7367 -0.04986,1.51979 -0.0625,2.3125 l -0.03125,0 0,47.21875 32,0 0,-47.21875 -0.0625,-2.3125 L -62.40625,79.25 C -62.56121,76.373028 -62.81253,74 -63.34375,74 L -88.625,74 z"
         id="path3682"
         style="fill:#808080;fill-opacity:1;fill-rule:evenodd;stroke:none;display:inline;enable-background:new" />
    </clipPath>
    <linearGradient
       id="linearGradient3514">
      <stop
         id="stop3516"
         style="stop-color:#8f5902;stop-opacity:1"
         offset="0" />
      <stop
         id="stop3519"
         style="stop-color:#8f5902;stop-opacity:0"
         offset="1" />
    </linearGradient>
    <linearGradient
       id="linearGradient4154">
      <stop
         id="stop4156"
         style="stop-color:#eeeeec;stop-opacity:1"
         offset="0" />
      <stop
         id="stop4158"
         style="stop-color:#ffffff;stop-opacity:0"
         offset="1" />
    </linearGradient>
    <linearGradient
       id="linearGradient4146">
      <stop
         id="stop4148"
         style="stop-color:#eeeeec;stop-opacity:1"
         offset="0" />
      <stop
         id="stop4150"
         style="stop-color:#e9b96e;stop-opacity:1"
         offset="1" />
    </linearGradient>
    <linearGradient
       id="linearGradient3415">
      <stop
         id="stop3417"
         style="stop-color:#000000;stop-opacity:1"
         offset="0" />
      <stop
         id="stop3419"
         style="stop-color:#000000;stop-opacity:0"
         offset="1" />
    </linearGradient>
    <mask
       id="mask7322">
      <path
         d="m 36,91 c -3.324,0 -6,2.676 -6,6 l 0,129 0,4 c 0,3.324 2.676,5.99999 6,6 l 188.03125,0 c 3.324,0 6,-2.67601 6,-6 l 0,-133 c 0,-3.324 -2.676,-6 -6,-6 L 36,91 z"
         id="path7324"
         style="fill:url(#pattern7326);fill-opacity:1;fill-rule:evenodd;stroke:none;display:inline" />
    </mask>
    <pattern
       patternUnits="userSpaceOnUse"
       width="15"
       height="15"
       patternTransform="translate(-110,111)"
       id="pattern7312">
      <rect
         id="rect7290"
         y="0"
         x="0"
         height="15"
         width="15"
         style="fill:url(#pattern7315);stroke:none" />
    </pattern>
    <linearGradient
       x1="-110"
       y1="106"
       x2="-70"
       y2="106"
       id="linearGradient7288"
       xlink:href="#linearGradient7253"
       gradientUnits="userSpaceOnUse"
       gradientTransform="matrix(0.75,0,0,0.75,82.5,-64.5)" />
    <pattern
       patternUnits="userSpaceOnUse"
       width="30"
       height="30"
       patternTransform="translate(-110,96)"
       id="pattern7285">
      <rect
         y="0"
         x="0"
         height="30"
         width="30"
         id="rect7243"
         style="opacity:1;fill:url(#linearGradient7288);fill-opacity:1;fill-rule:evenodd;stroke:none;stroke-width:1;stroke-linecap:round;stroke-linejoin:miter;stroke-miterlimit:4;stroke-dasharray:none;stroke-dashoffset:0.69999992;stroke-opacity:1" />
    </pattern>
    <mask
       id="mask6971">
      <path
         d="m 33.40625,86 -2.9375,8.65625 c -0.08353,0.184824 -0.134071,0.370268 -0.1875,0.5625 -0.05826,0.188106 -0.116418,0.366855 -0.15625,0.5625 -0.0017,0.0097 0.0016,0.02155 0,0.03125 C 30.049278,96.194445 30,96.595168 30,97 l 0,9 200.03125,0 0,-9 c 0,-0.831 -0.16594,-1.625438 -0.46875,-2.34375 L 226.65625,86 l -193.25,0 z"
         id="path6973"
         style="fill:url(#linearGradient6975);fill-opacity:1;fill-rule:evenodd;stroke:none;display:inline" />
    </mask>
    <linearGradient
       x1="90.25"
       y1="106"
       x2="90.25"
       y2="86"
       id="linearGradient6975"
       xlink:href="#linearGradient5986"
       gradientUnits="userSpaceOnUse" />
    <linearGradient
       id="linearGradient5967">
      <stop
         id="stop5969"
         style="stop-color:#c17d11;stop-opacity:1"
         offset="0" />
      <stop
         id="stop5971"
         style="stop-color:#e9b96e;stop-opacity:1"
         offset="1" />
    </linearGradient>
    <linearGradient
       id="linearGradient5986">
      <stop
         id="stop5988"
         style="stop-color:#ffffff;stop-opacity:0"
         offset="0" />
      <stop
         id="stop5998"
         style="stop-color:#ffffff;stop-opacity:1"
         offset="0.63481778" />
      <stop
         id="stop5994"
         style="stop-color:#ffffff;stop-opacity:1"
         offset="0.73670214" />
      <stop
         id="stop5990"
         style="stop-color:#ffffff;stop-opacity:0"
         offset="1" />
    </linearGradient>
    <linearGradient
       id="linearGradient6977">
      <stop
         id="stop7039"
         style="stop-color:#ebd3ad;stop-opacity:1"
         offset="0" />
      <stop
         id="stop6981"
         style="stop-color:#e9b96e;stop-opacity:1"
         offset="1" />
    </linearGradient>
    <linearGradient
       id="linearGradient7216">
      <stop
         id="stop7218"
         style="stop-color:#e9b96e;stop-opacity:1"
         offset="0" />
      <stop
         id="stop7220"
         style="stop-color:#e9b96e;stop-opacity:0"
         offset="1" />
    </linearGradient>
    <linearGradient
       id="linearGradient7422">
      <stop
         id="stop7424"
         style="stop-color:#000000;stop-opacity:1"
         offset="0" />
      <stop
         id="stop7426"
         style="stop-color:#000000;stop-opacity:0"
         offset="1" />
    </linearGradient>
    <linearGradient
       id="linearGradient7516">
      <stop
         id="stop7518"
         style="stop-color:#ffffff;stop-opacity:1"
         offset="0" />
      <stop
         id="stop7520"
         style="stop-color:#ffffff;stop-opacity:0"
         offset="1" />
    </linearGradient>
    <linearGradient
       id="linearGradient7526">
      <stop
         id="stop7528"
         style="stop-color:#ffffff;stop-opacity:1"
         offset="0" />
      <stop
         id="stop7530"
         style="stop-color:#ffffff;stop-opacity:0"
         offset="1" />
    </linearGradient>
    <linearGradient
       id="linearGradient7253">
      <stop
         id="stop7255"
         style="stop-color:#ffffff;stop-opacity:1"
         offset="0" />
      <stop
         id="stop7267"
         style="stop-color:#ffffff;stop-opacity:0"
         offset="0.125" />
      <stop
         id="stop7265"
         style="stop-color:#ffffff;stop-opacity:1"
         offset="0.25" />
      <stop
         id="stop7269"
         style="stop-color:#ffffff;stop-opacity:0"
         offset="0.375" />
      <stop
         id="stop7261"
         style="stop-color:#ffffff;stop-opacity:1"
         offset="0.5" />
      <stop
         id="stop7275"
         style="stop-color:#ffffff;stop-opacity:0"
         offset="0.625" />
      <stop
         id="stop7263"
         style="stop-color:#ffffff;stop-opacity:1"
         offset="0.75" />
      <stop
         id="stop7279"
         style="stop-color:#ffffff;stop-opacity:0"
         offset="0.875" />
      <stop
         id="stop7257"
         style="stop-color:#ffffff;stop-opacity:1"
         offset="1" />
    </linearGradient>
    <pattern
       xlink:href="#pattern7285"
       id="pattern7310"
       patternTransform="matrix(0.5,0,0,0.5,-110,111)" />
    <pattern
       xlink:href="#pattern7310"
       id="pattern7315"
       patternTransform="scale(0.5,0.5)" />
    <pattern
       xlink:href="#pattern7312"
       id="pattern7326"
       patternTransform="translate(-110,111)" />
    <linearGradient
       id="linearGradient7328">
      <stop
         id="stop7330"
         style="stop-color:#8f5902;stop-opacity:1"
         offset="0" />
      <stop
         id="stop7332"
         style="stop-color:#8f5902;stop-opacity:0"
         offset="1" />
    </linearGradient>
    <filter
       color-interpolation-filters="sRGB"
       id="filter3403">
      <feGaussianBlur
         id="feGaussianBlur3405"
         stdDeviation="2.1614063" />
    </filter>
    <filter
       color-interpolation-filters="sRGB"
       id="filter3515">
      <feGaussianBlur
         id="feGaussianBlur3517"
         stdDeviation="1.2808222" />
    </filter>
    <filter
       x="-0.088411674"
       y="-0.31566298"
       width="1.1768233"
       height="1.631326"
       color-interpolation-filters="sRGB"
       id="filter3519">
      <feGaussianBlur
         id="feGaussianBlur3521"
         stdDeviation="7.5339885" />
    </filter>
    <linearGradient
       x1="52"
       y1="40.482288"
       x2="52"
       y2="76.67421"
       id="linearGradient3008"
       xlink:href="#linearGradient6977"
       gradientUnits="userSpaceOnUse"
       gradientTransform="translate(14,28.40625)" />
    <linearGradient
       x1="174.01562"
       y1="236"
       x2="30"
       y2="64"
       id="linearGradient3010"
       xlink:href="#linearGradient5967"
       gradientUnits="userSpaceOnUse"
       gradientTransform="translate(14,28.40625)" />
    <linearGradient
       x1="29.980797"
       y1="192"
       x2="35.522602"
       y2="192"
       id="linearGradient3014"
       xlink:href="#linearGradient7516"
       gradientUnits="userSpaceOnUse"
       gradientTransform="translate(14,28.40625)" />
    <linearGradient
       x1="97"
       y1="236.06433"
       x2="97"
       y2="222.18047"
       id="linearGradient3016"
       xlink:href="#linearGradient7216"
       gradientUnits="userSpaceOnUse"
       gradientTransform="translate(14,28.40625)" />
    <linearGradient
       x1="125.75"
       y1="235.5"
       x2="125.75"
       y2="233.37933"
       id="linearGradient3018"
       xlink:href="#linearGradient7422"
       gradientUnits="userSpaceOnUse"
       gradientTransform="translate(14,28.40625)" />
    <linearGradient
       x1="230.5"
       y1="172.5"
       x2="223"
       y2="172.5"
       id="linearGradient3020"
       xlink:href="#linearGradient7526"
       gradientUnits="userSpaceOnUse"
       gradientTransform="translate(14,28.40625)" />
    <linearGradient
       x1="44"
       y1="192.14198"
       x2="46"
       y2="192.14198"
       id="linearGradient3026"
       xlink:href="#linearGradient3514"
       gradientUnits="userSpaceOnUse" />
    <linearGradient
       x1="44"
       y1="192.14198"
       x2="46"
       y2="192.14198"
       id="linearGradient3028"
       xlink:href="#linearGradient3514"
       gradientUnits="userSpaceOnUse"
       gradientTransform="translate(-287.9375,0)" />
    <linearGradient
       x1="189"
       y1="221.5"
       x2="117"
       y2="21.5"
       id="linearGradient3030"
       xlink:href="#linearGradient3415"
       gradientUnits="userSpaceOnUse" />
    <linearGradient
       x1="-84"
       y1="132.89647"
       x2="-84"
       y2="123"
       id="linearGradient3032"
       xlink:href="#linearGradient3741"
       gradientUnits="userSpaceOnUse"
       gradientTransform="translate(221,0)" />
    <radialGradient
       cx="129.71432"
       cy="199.66972"
       r="100.01562"
       fx="129.71432"
       fy="199.66972"
       id="radialGradient3034"
       xlink:href="#linearGradient3890"
       gradientUnits="userSpaceOnUse"
       gradientTransform="matrix(1.6075557,0,0,0.5616866,-87.047047,8.0848291)" />
    <radialGradient
       cx="554.01562"
       cy="30.515274"
       r="95.890625"
       fx="554.01562"
       fy="30.515274"
       id="radialGradient3036"
       xlink:href="#linearGradient3911"
       gradientUnits="userSpaceOnUse"
       gradientTransform="matrix(1.0651784,0,0,0.00912498,-462.1202,120.91058)" />
    <linearGradient
       x1="-76"
       y1="120.99266"
       x2="-76"
       y2="127.25735"
       id="linearGradient3038"
       xlink:href="#linearGradient3707"
       gradientUnits="userSpaceOnUse" />
    <linearGradient
       x1="-91.90625"
       y1="13.245911"
       x2="-31.75"
       y2="220.00299"
       id="linearGradient3040"
       xlink:href="#linearGradient3721"
       gradientUnits="userSpaceOnUse" />
    <linearGradient
       x1="-76"
       y1="121.2411"
       x2="-76"
       y2="126.50892"
       id="linearGradient3042"
       xlink:href="#linearGradient3688"
       gradientUnits="userSpaceOnUse" />
    <linearGradient
       x1="-91.25"
       y1="117.25"
       x2="-77.5"
       y2="123.25"
       id="linearGradient3044"
       xlink:href="#linearGradient3766"
       gradientUnits="userSpaceOnUse" />
    <radialGradient
       cx="136.13138"
       cy="96"
       r="105.22703"
       fx="136.13138"
       fy="96"
       id="radialGradient3695"
       xlink:href="#linearGradient4146"
       gradientUnits="userSpaceOnUse"
       gradientTransform="matrix(1.7673405,0,0,0.02407044,-63.863474,93.68923)" />
    <linearGradient
       x1="139"
       y1="300"
       x2="140"
       y2="100.99606"
       id="linearGradient3697"
       xlink:href="#linearGradient7328"
       gradientUnits="userSpaceOnUse" />
    <radialGradient
       cx="123.92844"
       cy="96.000328"
       r="105.22703"
       fx="123.92844"
       fy="96.000328"
       id="radialGradient3700"
       xlink:href="#linearGradient4154"
       gradientUnits="userSpaceOnUse"
       gradientTransform="matrix(0.5664145,0,0,0.02407044,84.965404,93.68923)" />
  </defs>
  <g
     transform="translate(0,-44)"
     id="layer1"
     style="display:inline">
    <g
       id="layer6"
       style="display:none">
      <rect
         width="48"
         height="48"
         x="296"
         y="50"
         id="rect6284"
         style="fill:#eeeeec;fill-opacity:1;fill-rule:nonzero;stroke:none;stroke-width:2;marker:none;visibility:visible;display:inline;overflow:visible;enable-background:accumulate" />
      <rect
         width="32"
         height="32"
         x="303"
         y="126"
         id="rect6592"
         style="fill:#eeeeec;fill-opacity:1;fill-rule:nonzero;stroke:none;stroke-width:2;marker:none;visibility:visible;display:inline;overflow:visible;enable-background:accumulate" />
      <rect
         width="24"
         height="24"
         x="302"
         y="176"
         id="rect8104"
         style="fill:#ffffff;fill-opacity:1;fill-rule:nonzero;stroke:none;stroke-width:2;marker:none;visibility:visible;display:inline;overflow:visible;enable-background:accumulate" />
      <rect
         width="22"
         height="22"
         x="303"
         y="177"
         id="rect6749"
         style="fill:#eeeeec;fill-opacity:1;fill-rule:nonzero;stroke:none;stroke-width:2;marker:none;visibility:visible;display:inline;overflow:visible;enable-background:accumulate" />
      <rect
         width="16"
         height="16"
         x="303"
         y="219"
         id="rect6833"
         style="fill:#eeeeec;fill-opacity:1;fill-rule:nonzero;stroke:none;stroke-width:2;marker:none;visibility:visible;display:inline;overflow:visible;enable-background:accumulate" />
      <rect
         width="256"
         height="256"
         x="20"
         y="30"
         id="rect6282"
         style="fill:#eeeeec;fill-opacity:1;fill-rule:nonzero;stroke:none;stroke-width:2;marker:none;visibility:visible;display:inline;overflow:visible;enable-background:accumulate" />
      <text
         x="20.970737"
         y="21.513618"
         id="context"
         xml:space="preserve"
         style="font-size:18.30070686px;font-style:normal;font-weight:normal;fill:#000000;fill-opacity:1;stroke:none;display:inline;enable-background:new;font-family:Bitstream Vera Sans"><tspan
           x="20.970737"
           y="21.513618"
           id="tspan2716">mimetypes</tspan></text>
      <text
         x="191.97073"
         y="21.513618"
         id="icon-name"
         xml:space="preserve"
         style="font-size:18.30070686px;font-style:normal;font-variant:normal;font-weight:bold;font-stretch:normal;text-align:start;line-height:125%;writing-mode:lr-tb;text-anchor:start;fill:#000000;fill-opacity:1;stroke:none;display:inline;enable-background:new;font-family:Droid Sans;-inkscape-font-specification:Droid Sans Bold"><tspan
           x="191.97073"
           y="21.513618"
           id="tspan3023">package-x-generic</tspan></text>
    </g>
    <g
       id="layer2"
       style="display:inline" />
    <g
       id="layer3"
       style="display:inline" />
    <g
       transform="translate(20,30)"
       id="g256"
       style="display:inline;enable-background:new" />
  </g>
  <g
     transform="translate(0,-44)"
     id="layer4">
    <g
       id="layer5"
       style="display:none">
      <rect
         width="48"
         height="48"
         x="696"
         y="50"
         id="rect2962"
         style="fill:#eeeeec;fill-opacity:1;fill-rule:nonzero;stroke:none;stroke-width:2;marker:none;visibility:visible;display:inline;overflow:visible;enable-background:accumulate" />
      <rect
         width="32"
         height="32"
         x="703"
         y="126"
         id="rect2964"
         style="fill:#eeeeec;fill-opacity:1;fill-rule:nonzero;stroke:none;stroke-width:2;marker:none;visibility:visible;display:inline;overflow:visible;enable-background:accumulate" />
      <rect
         width="24"
         height="24"
         x="702"
         y="176"
         id="rect2966"
         style="fill:#ffffff;fill-opacity:1;fill-rule:nonzero;stroke:none;stroke-width:2;marker:none;visibility:visible;display:inline;overflow:visible;enable-background:accumulate" />
      <rect
         width="22"
         height="22"
         x="703"
         y="177"
         id="rect2968"
         style="fill:#eeeeec;fill-opacity:1;fill-rule:nonzero;stroke:none;stroke-width:2;marker:none;visibility:visible;display:inline;overflow:visible;enable-background:accumulate" />
      <rect
         width="16"
         height="16"
         x="703"
         y="219"
         id="rect2970"
         style="fill:#eeeeec;fill-opacity:1;fill-rule:nonzero;stroke:none;stroke-width:2;marker:none;visibility:visible;display:inline;overflow:visible;enable-background:accumulate" />
      <rect
         width="256"
         height="256"
         x="420"
         y="30"
         id="rect2972"
         style="fill:#eeeeec;fill-opacity:1;fill-rule:nonzero;stroke:none;stroke-width:2;marker:none;visibility:visible;display:inline;overflow:visible;enable-background:accumulate" />
      <text
         x="420.97073"
         y="21.513618"
         id="text2974"
         xml:space="preserve"
         style="font-size:18.30070686px;font-style:normal;font-weight:normal;fill:#000000;fill-opacity:1;stroke:none;display:inline;enable-background:new;font-family:Bitstream Vera Sans"><tspan
           x="420.97073"
           y="21.513618"
           id="tspan2976">emblems</tspan></text>
      <text
         x="591.9707"
         y="21.513618"
         id="text2978"
         xml:space="preserve"
         style="font-size:18.30070686px;font-style:normal;font-variant:normal;font-weight:bold;font-stretch:normal;text-align:start;line-height:125%;writing-mode:lr-tb;text-anchor:start;fill:#000000;fill-opacity:1;stroke:none;display:inline;enable-background:new;font-family:Droid Sans;-inkscape-font-specification:Droid Sans Bold"><tspan
           x="591.9707"
           y="21.513618"
           id="tspan2980">emblem-package</tspan></text>
    </g>
    <g
       id="layer8" />
    <g
       id="layer7"
       style="display:inline">
      <g
         transform="translate(-256.01033,-5.2172199)"
         id="g3994"
         style="display:inline;enable-background:new">
        <path
           d="m 51,183.875 c -0.774202,0 -2.421901,0.151 -3.84375,0.9375 -1.421849,0.7865 -2.031279,1.61326 -2.4375,2.09375 -1.357557,1.60577 -1.936743,2.98332 -2.46875,4.5 A 6.3523488,6.3523488 0 0 0 42,192 l -13.90625,40.75 a 6.3523488,6.3523488 0 0 0 6,8.40625 l 191.8125,0 a 6.3523488,6.3523488 0 0 0 6.03125,-8.375 l -13.90625,-41.5 c -0.61375,-1.82775 -1.26084,-3.29873 -2.90625,-4.9375 -0.78166,-0.7785 -4.36677,-2.46875 -6.09375,-2.46875 L 51,183.875 z"
           transform="matrix(1.024448,0,0,0.877796,250.82151,52.87651)"
           id="path3990"
           style="opacity:0.55;fill:#000000;fill-opacity:1;fill-rule:evenodd;stroke:none;display:inline;filter:url(#filter3519);enable-background:new" />
        <path
           d="m 51,185.28125 c -0.677092,0 -2.002339,0.11171 -3.15625,0.75 -1.153911,0.63829 -1.68601,1.33592 -2.0625,1.78125 -1.110414,1.31344 -1.669365,2.53408 -2.15625,3.875 a 4.9502425,4.9502425 0 0 0 -0.1875,0.46875 c -0.03287,0.0956 -0.06108,0.18416 -0.09375,0.28125 a 4.9502425,4.9502425 0 0 0 -0.03125,0.0312 l -13.90625,40.75 a 4.9502425,4.9502425 0 0 0 4.6875,6.53125 l 191.8125,0 a 4.9502425,4.9502425 0 0 0 4.6875,-6.5 l -13.90625,-41.5 c -0.56434,-1.6806 -1.14947,-3.03005 -2.53125,-4.40625 -0.70868,-0.70582 -3.58098,-2.0625 -5.125,-2.0625 l -158.03125,0 z"
           transform="translate(254,26.40625)"
           id="path3992"
           style="opacity:0.9;fill:#000000;fill-opacity:1;fill-rule:evenodd;stroke:none;display:inline;filter:url(#filter3515);enable-background:new" />
      </g>
      <g
         transform="translate(-16.010337,-5.2172199)"
         clip-path="url(#clipPath2889)"
         id="g2874"
         style="display:inline;enable-background:new">
        <g
           id="g2848">
          <path
             d="m 65,74.4375 c -3.324,0 -5.028791,3.11359 -6,6 l -14.53125,42.625 c -0.334106,0.7393 -0.38968,1.54824 -0.46875,2.34375 l 200.03125,0 -0.46875,-2.34375 -14.53125,-43.34375 c -0.96949,-2.88714 -2.676,-5.28125 -6,-5.28125 L 65,74.4375 z"
             id="path3817"
             style="fill:url(#linearGradient3008);fill-opacity:1;fill-rule:evenodd;stroke:none" />
          <path
             d="m 50,119.40625 c -3.324,0 -6,2.676 -6,6 l 0,129 0,4 c 0,3.324 2.676,5.99999 6,6 l 188.03125,0 c 3.324,0 6,-2.67601 6,-6 l 0,-133 c 0,-3.324 -2.676,-6 -6,-6 l -188.03125,0 z"
             id="path3819"
             style="fill:url(#linearGradient3010);fill-opacity:1;fill-rule:evenodd;stroke:none;display:inline" />
          <rect
             width="210.45406"
             height="40"
             x="25"
             y="76"
             transform="translate(14,28.40625)"
             mask="url(#mask6971)"
             id="rect3821"
             style="fill:url(#radialGradient3695);fill-opacity:1;fill-rule:evenodd;stroke:none" />
          <path
             d="m 50,119.40625 c -3.324,0 -6,2.676 -6,6 l 0,129 0,4 c 0,3.324 2.676,5.99999 6,6 l 18.03125,0 c 3.324,0 6,-2.67601 6,-6 l 0,-133 c 0,-3.324 -2.676,-6 -6,-6 l -18.03125,0 z"
             id="path3823"
             style="opacity:0.33207547;fill:url(#linearGradient3014);fill-opacity:1;fill-rule:evenodd;stroke:none;display:inline" />
          <path
             d="m 50,219.40625 c -3.324,0 -6,2.676 -6,6 l 0,29 0,4 c 0,3.324 2.676,5.99999 6,6 l 188.03125,0 c 3.324,0 6,-2.67601 6,-6 l 0,-33 c 0,-3.324 -2.676,-6 -6,-6 l -188.03125,0 z"
             id="path3825"
             style="opacity:0.28679247;fill:url(#linearGradient3016);fill-opacity:1;fill-rule:evenodd;stroke:none;display:inline" />
          <path
             d="m 50,239.40625 c -3.324,0 -6,2.676 -6,6 l 0,9 0,4 c 0,3.324 2.676,5.99999 6,6 l 188.03125,0 c 3.324,0 6,-2.67601 6,-6 l 0,-13 c 0,-3.324 -2.676,-6 -6,-6 l -188.03125,0 z"
             id="path3827"
             style="opacity:0.20754718;fill:url(#linearGradient3018);fill-opacity:1;fill-rule:evenodd;stroke:none;display:inline" />
          <path
             d="m 230,123.40625 c -3.324,0 -6,2.676 -6,6 l 0,125 0,4 c 0,3.324 2.676,5.99999 6,6 l 8.03125,0 c 3.324,0 6,-2.67601 6,-6 l 0,-129 c 0,-3.324 -2.676,-6 -6,-6 l -8.03125,0 z"
             id="path3829"
             style="opacity:0.1;fill:url(#linearGradient3020);fill-opacity:1;fill-rule:evenodd;stroke:none;display:inline" />
          <rect
             width="210.5"
             height="149.5"
             x="25"
             y="91"
             transform="translate(14,30.40625)"
             mask="url(#mask7322)"
             id="rect3831"
             style="opacity:0.15;fill:url(#linearGradient3697);fill-opacity:1;fill-rule:evenodd;stroke:none" />
          <rect
             width="210.45406"
             height="40"
             x="25"
             y="76"
             transform="translate(14,28.40625)"
             mask="url(#mask6971)"
             id="rect3833"
             style="opacity:0.68468472;fill:url(#radialGradient3700);fill-opacity:1;fill-rule:evenodd;stroke:none;display:inline;enable-background:new" />
          <rect
             width="4.057539"
             height="138.1909"
             rx="2.0080075"
             ry="2.0586147"
             x="44"
             y="123.75365"
             id="rect3835"
             style="opacity:0.74324323;fill:url(#linearGradient3026);fill-opacity:1;stroke:none" />
          <rect
             width="4.057539"
             height="138.1909"
             rx="2.0080075"
             ry="2.0586147"
             x="-243.9375"
             y="123.75365"
             transform="scale(-1,1)"
             id="rect3837"
             style="opacity:0.77477477;fill:url(#linearGradient3028);fill-opacity:1;stroke:none;display:inline;enable-background:new" />
        </g>
        <path
           d="m 79.875,74.34375 -16.6875,49.53125 1.09375,-0.21875 c -0.05438,0.1788 -0.118472,0.3457 -0.15625,0.53125 -0.0017,0.01 0.0016,0.0216 0,0.0313 -0.07572,0.38194 -0.125,0.78267 -0.125,1.1875 l 0,129 0,4 c 0,3.324 2.676,5.99999 6,6 l 188.03125,0 c 3.324,0 6,-2.67601 6,-6 l 0,-133 c 0,-0.6925 -0.1298,-1.35084 -0.34375,-1.96875 l 0.875,0.4375 -16.6875,-49.53125 -168,0 z"
           transform="translate(-20,0)"
           id="path2835"
           style="opacity:0.5;fill:none;stroke:url(#linearGradient3030);stroke-width:2;stroke-linecap:round;stroke-linejoin:miter;stroke-miterlimit:4;stroke-opacity:1;stroke-dasharray:none;stroke-dashoffset:0.69999992;display:inline;filter:url(#filter3403);enable-background:new" />
        <path
           d="m 132.375,74 c -0.53122,0 -0.78227,3.092506 -0.9375,5.96875 l -2.34375,42.5 c -0.0534,0.7367 -0.0499,1.51979 -0.0625,2.3125 l -0.0313,0 0,47.21875 32,0 0,-47.21875 -0.0625,-2.3125 L 158.59375,79.25 C 158.43879,76.373028 158.18747,74 157.65625,74 L 132.375,74 z"
           id="path3729"
           style="opacity:0.3;fill:url(#linearGradient3032);fill-opacity:1;fill-rule:evenodd;stroke:none;display:inline;filter:url(#filter3736);enable-background:new" />
      </g>
      <path
         d="m 48.989663,69.22028 c -3.324,0 -5.02879,3.11359 -6,6 l -14.53125,42.625 c -0.33411,0.7393 -0.38968,1.54824 -0.46875,2.34375 l 200.031257,0 -0.46875,-2.34375 -14.53125,-43.34375 c -0.96949,-2.88714 -2.676,-5.28125 -6,-5.28125 l -158.031257,0 z"
         id="path3880"
         style="opacity:0.4;fill:url(#radialGradient3034);fill-opacity:1;fill-rule:evenodd;stroke:none;display:inline;enable-background:new" />
      <path
         d="m 32.444233,121.18903 c -0.20712,0.64182 -0.26545,1.32713 -0.32957,2 l 191.781257,0 -0.38949,-2 -191.062197,0 z"
         id="path3898"
         style="opacity:0.7;fill:url(#radialGradient3036);fill-opacity:1;fill-rule:evenodd;stroke:none;display:inline;enable-background:new" />
      <g
         transform="translate(203.98967,-5.2172199)"
         clip-path="url(#clipPath3680)"
         id="g3676"
         style="stroke:#888a85;stroke-width:2;stroke-miterlimit:4;stroke-dasharray:none;display:inline;enable-background:new">
        <path
           d="m -88.625,74 c -0.53122,0 -0.78227,3.092506 -0.9375,5.96875 l -2.34375,42.5 c -0.0534,0.7367 -0.04986,1.51979 -0.0625,2.3125 l -0.03125,0 0,47.21875 32,0 0,-47.21875 -0.0625,-2.3125 L -62.40625,79.25 C -62.56121,76.373028 -62.81253,74 -63.34375,74 L -88.625,74 z"
           id="path3667"
           style="fill:url(#linearGradient3038);fill-opacity:1;fill-rule:evenodd;stroke:none;display:inline;enable-background:new" />
        <path
           d="m -88.625,74 c -0.53122,0 -0.78227,3.092506 -0.9375,5.96875 l -2.34375,42.5 31.84375,0 L -62.40625,79.25 C -62.56121,76.373028 -62.81253,74 -63.34375,74 L -88.625,74 z"
           id="path3717"
           style="fill:url(#linearGradient3040);fill-opacity:1;fill-rule:evenodd;stroke:none;display:inline;enable-background:new" />
        <path
           d="m -88.625,74 c -0.53122,0 -0.78227,3.092506 -0.9375,5.96875 l -2.34375,42.5 c -0.0534,0.7367 -0.04986,1.51979 -0.0625,2.3125 l -0.03125,0 0,47.21875 32,0 0,-47.21875 -0.0625,-2.3125 L -62.40625,79.25 C -62.56121,76.373028 -62.81253,74 -63.34375,74 L -88.625,74 z"
           id="path3672"
           style="fill:none;stroke:url(#linearGradient3042);stroke-width:0.5;stroke-linecap:round;stroke-linejoin:miter;stroke-miterlimit:4;stroke-opacity:1;stroke-dasharray:none;stroke-dashoffset:0.69999992;display:inline;filter:url(#filter3684);enable-background:new" />
        <path
           d="m -87.625,75 c -0.53122,0 -0.78227,3.092506 -0.9375,5.96875 l -2.34375,42.5 c -0.0534,0.7367 -0.04986,1.51979 -0.0625,2.3125 l -0.03125,0 0,50.21875 40,0 0,-50.21875 -0.0625,-2.3125 L -53.40625,80.25 C -53.56121,77.373028 -53.81253,75 -54.34375,75 L -87.625,75 z"
           id="path3755"
           style="fill:none;stroke:url(#linearGradient3044);stroke-width:0.5;stroke-linecap:round;stroke-linejoin:miter;stroke-miterlimit:4;stroke-opacity:1;stroke-dasharray:none;stroke-dashoffset:0.69999992;display:inline;filter:url(#filter3684);enable-background:new" />
      </g>
    </g>
  </g>
</svg>
