<?xml version="1.0" encoding="UTF-8" standalone="no"?>
<!-- Created with Inkscape (http://www.inkscape.org/) -->

<svg
   xmlns:dc="http://purl.org/dc/elements/1.1/"
   xmlns:cc="http://creativecommons.org/ns#"
   xmlns:rdf="http://www.w3.org/1999/02/22-rdf-syntax-ns#"
   xmlns:svg="http://www.w3.org/2000/svg"
   xmlns="http://www.w3.org/2000/svg"
   xmlns:xlink="http://www.w3.org/1999/xlink"
   version="1.0"
   width="256"
   height="256"
   id="svg11300"
   style="display:inline;enable-background:new">
  <title
     id="title4872">Firewall</title>
  <defs
     id="defs3">
    <linearGradient
       id="linearGradient17435">
      <stop
         id="stop17437"
         style="stop-color:#ffffff;stop-opacity:1"
         offset="0" />
      <stop
         id="stop17439"
         style="stop-color:#ffffff;stop-opacity:0"
         offset="1" />
    </linearGradient>
    <linearGradient
       id="linearGradient17415">
      <stop
         id="stop17417"
         style="stop-color:#ffffff;stop-opacity:1"
         offset="0" />
      <stop
         id="stop17419"
         style="stop-color:#ffffff;stop-opacity:0"
         offset="1" />
    </linearGradient>
    <linearGradient
       id="linearGradient13770-9">
      <stop
         id="stop13772-1"
         style="stop-color:#babdb6;stop-opacity:1"
         offset="0" />
      <stop
         id="stop13780-9"
         style="stop-color:#f2f2f1;stop-opacity:1"
         offset="0.17445399" />
      <stop
         id="stop13774-5"
         style="stop-color:#edeeec;stop-opacity:1"
         offset="0.23801444" />
      <stop
         id="stop13776-7"
         style="stop-color:#dcdeda;stop-opacity:1"
         offset="0.27069226" />
      <stop
         id="stop13778-9"
         style="stop-color:#ffffff;stop-opacity:1"
         offset="1" />
    </linearGradient>
    <linearGradient
       id="linearGradient13557-7">
      <stop
         id="stop13559-2"
         style="stop-color:#fefefe;stop-opacity:1"
         offset="0" />
      <stop
         id="stop13561-3"
         style="stop-color:#fefefe;stop-opacity:0"
         offset="1" />
    </linearGradient>
    <linearGradient
       id="linearGradient13567-8">
      <stop
         id="stop13569-5"
         style="stop-color:#858585;stop-opacity:1"
         offset="0" />
      <stop
         id="stop13571-1"
         style="stop-color:#858585;stop-opacity:0"
         offset="1" />
    </linearGradient>
    <linearGradient
       id="linearGradient13585-4-7">
      <stop
         id="stop13587-7-4"
         style="stop-color:#ffffff;stop-opacity:1"
         offset="0" />
      <stop
         id="stop13589-9-0"
         style="stop-color:#ffffff;stop-opacity:0"
         offset="1" />
    </linearGradient>
    <linearGradient
       id="linearGradient13585-2-9">
      <stop
         id="stop13587-8-3"
         style="stop-color:#ffffff;stop-opacity:1"
         offset="0" />
      <stop
         id="stop13589-4-6"
         style="stop-color:#ffffff;stop-opacity:0"
         offset="1" />
    </linearGradient>
    <linearGradient
       id="linearGradient13585-1">
      <stop
         id="stop13587-2"
         style="stop-color:#ffffff;stop-opacity:1"
         offset="0" />
      <stop
         id="stop13589-0"
         style="stop-color:#ffffff;stop-opacity:0"
         offset="1" />
    </linearGradient>
    <linearGradient
       id="linearGradient12494-4-8-1">
      <stop
         id="stop12496-8-9-1"
         style="stop-color:#000000;stop-opacity:1"
         offset="0" />
      <stop
         id="stop12498-9-5-0"
         style="stop-color:#000000;stop-opacity:0"
         offset="1" />
    </linearGradient>
    <clipPath
       id="clipPath12461-5-4-5">
      <path
         d="m -52.298199,90.961216 c -14.221332,0 -25.747088,11.549034 -25.747088,25.770364 0,14.22134 11.525756,25.74709 25.747088,25.74709 3.878336,0 7.549624,-0.88545 10.848231,-2.42106 l 37.8989687,37.92225 4.51621619,0 -0.51214823,-1.2571 2.25810814,0 0.7449428,1.2571 5.8431458,-1.58301 -0.6518251,-0.65182 -1.1872527,-7.2632 -5.4939537,-5.51723 -5.2611591,0.25608 0,-6.00611 -3.7479939,-3.74799 -4.2601419,0.74494 -0.232795,-5.75003 -16.08611,-15.15493 1.583003,-1.583 0.488869,-2.00204 -2.909933,-3.30568 c 1.215993,-2.99138 1.908916,-6.25621 1.908916,-9.68426 0,-14.22133 -11.525756,-25.770364 -25.747088,-25.770364 z"
         id="path12463-1-5-7"
         style="fill:none;stroke:#000000;stroke-width:1.48988581;stroke-miterlimit:4;stroke-opacity:1;stroke-dasharray:none" />
    </clipPath>
    <filter
       color-interpolation-filters="sRGB"
       id="filter12480-2-4-0">
      <feGaussianBlur
         id="feGaussianBlur12482-5-6-5"
         stdDeviation="0.56367413" />
    </filter>
    <linearGradient
       x1="-19.567272"
       y1="146.57585"
       x2="23.103989"
       y2="188.40904"
       id="linearGradient13985-6"
       xlink:href="#linearGradient12494-4-8-1"
       gradientUnits="userSpaceOnUse" />
    <linearGradient
       x1="-19.567272"
       y1="146.57585"
       x2="23.103989"
       y2="188.40904"
       id="linearGradient14313"
       xlink:href="#linearGradient12494-4-8-1"
       gradientUnits="userSpaceOnUse" />
    <clipPath
       id="clipPath14890-4">
      <path
         d="m 179.63667,158.14666 0,-65.569995 -75.57667,0 0,65.569995 75.57667,0 z m -37.7225,-22.58083 c -5.74468,0 -10.40167,-4.65699 -10.40167,-10.40167 0,-5.74468 4.65699,-10.40166 10.40167,-10.40166 5.74468,0 10.40166,4.65698 10.40166,10.40166 0,5.74468 -4.65698,10.40167 -10.40166,10.40167 z"
         id="path14892-4"
         style="color:#000000;fill:none;stroke:#000000;stroke-width:2;stroke-linecap:butt;stroke-linejoin:miter;stroke-miterlimit:4;stroke-opacity:1;stroke-dasharray:none;stroke-dashoffset:0;marker:none;visibility:visible;display:inline;overflow:visible;enable-background:accumulate" />
    </clipPath>
    <filter
       color-interpolation-filters="sRGB"
       id="filter14881-7">
      <feGaussianBlur
         id="feGaussianBlur14883-7"
         stdDeviation="0.60614225" />
    </filter>
    <linearGradient
       id="linearGradient14915-2">
      <stop
         id="stop14917-6"
         style="stop-color:#ffffff;stop-opacity:1"
         offset="0" />
      <stop
         id="stop14919-7"
         style="stop-color:#ffffff;stop-opacity:0"
         offset="1" />
    </linearGradient>
    <radialGradient
       cx="152.45"
       cy="113.6"
       r="25.799999"
       fx="152.45"
       fy="113.6"
       id="radialGradient15189"
       xlink:href="#linearGradient14915-2"
       gradientUnits="userSpaceOnUse" />
    <linearGradient
       id="linearGradient14915-1">
      <stop
         id="stop14917-60"
         style="stop-color:#ffffff;stop-opacity:1"
         offset="0" />
      <stop
         id="stop14919-5"
         style="stop-color:#ffffff;stop-opacity:0"
         offset="1" />
    </linearGradient>
    <radialGradient
       cx="152.45"
       cy="113.6"
       r="25.799999"
       fx="152.45"
       fy="113.6"
       id="radialGradient15223"
       xlink:href="#linearGradient14915-1"
       gradientUnits="userSpaceOnUse" />
    <linearGradient
       x1="194.63113"
       y1="168.56653"
       x2="192.86339"
       y2="170.51106"
       id="linearGradient15331"
       xlink:href="#linearGradient13585-1"
       gradientUnits="userSpaceOnUse"
       gradientTransform="translate(-2,0)" />
    <linearGradient
       x1="224.68317"
       y1="198.44179"
       x2="222.5545"
       y2="200.57045"
       id="linearGradient15334"
       xlink:href="#linearGradient13585-2-9"
       gradientUnits="userSpaceOnUse"
       gradientTransform="translate(-2,0)" />
    <linearGradient
       x1="215.13724"
       y1="188.98424"
       x2="213.67818"
       y2="190.4433"
       id="linearGradient15337"
       xlink:href="#linearGradient13585-4-7"
       gradientUnits="userSpaceOnUse"
       gradientTransform="translate(-2,0)" />
    <radialGradient
       cx="193.12854"
       cy="187.57002"
       r="27.66555"
       fx="193.12854"
       fy="187.57002"
       id="radialGradient15342"
       xlink:href="#linearGradient13567-8"
       gradientUnits="userSpaceOnUse"
       gradientTransform="matrix(1.3067096,1.3801918,-0.73313368,0.6941012,76.27953,-209.17699)" />
    <radialGradient
       cx="208.77328"
       cy="205.79987"
       r="30.228815"
       fx="208.77328"
       fy="205.79987"
       id="radialGradient15345"
       xlink:href="#linearGradient13557-7"
       gradientUnits="userSpaceOnUse"
       gradientTransform="matrix(0.79463799,-0.60708357,1.4385965,1.8830413,-255.18886,-54.124898)" />
    <linearGradient
       x1="-2219.6113"
       y1="5545.751"
       x2="1116.0051"
       y2="4595.5303"
       id="linearGradient15348"
       xlink:href="#linearGradient13770-9"
       gradientUnits="userSpaceOnUse"
       gradientTransform="matrix(0.05069732,0.05069731,-0.05069732,0.05069731,505.34964,-52.290784)" />
    <filter
       color-interpolation-filters="sRGB"
       id="filter15394">
      <feGaussianBlur
         id="feGaussianBlur15396"
         stdDeviation="1.3220716" />
    </filter>
    <linearGradient
       id="linearGradient6793">
      <stop
         id="stop6795"
         style="stop-color:#d3d7cf;stop-opacity:1"
         offset="0" />
      <stop
         id="stop6797"
         style="stop-color:#eeeeec;stop-opacity:1"
         offset="1" />
    </linearGradient>
    <linearGradient
       x1="7.1875"
       y1="8.84375"
       x2="7.5"
       y2="6.03125"
       id="linearGradient6768"
       xlink:href="#linearGradient6762"
       gradientUnits="userSpaceOnUse" />
    <linearGradient
       id="linearGradient6762">
      <stop
         id="stop6764"
         style="stop-color:#000000;stop-opacity:1"
         offset="0" />
      <stop
         id="stop6766"
         style="stop-color:#000000;stop-opacity:0"
         offset="1" />
    </linearGradient>
    <linearGradient
       x1="8.7232523"
       y1="6.2651649"
       x2="5.9061942"
       y2="5.2978506"
       id="linearGradient6154"
       xlink:href="#linearGradient6833"
       gradientUnits="userSpaceOnUse" />
    <linearGradient
       id="linearGradient6833">
      <stop
         id="stop6835"
         style="stop-color:#ffffff;stop-opacity:1"
         offset="0" />
      <stop
         id="stop6837"
         style="stop-color:#ffffff;stop-opacity:0"
         offset="1" />
    </linearGradient>
    <linearGradient
       x1="14.4375"
       y1="13.8125"
       x2="8"
       y2="7.5"
       id="linearGradient6760"
       xlink:href="#linearGradient6753"
       gradientUnits="userSpaceOnUse" />
    <linearGradient
       id="linearGradient6753">
      <stop
         id="stop6755"
         style="stop-color:#888a85;stop-opacity:1"
         offset="0" />
      <stop
         id="stop6757"
         style="stop-color:#eeeeec;stop-opacity:1"
         offset="1" />
    </linearGradient>
    <linearGradient
       id="linearGradient7604">
      <stop
         id="stop7606"
         style="stop-color:#000000;stop-opacity:1"
         offset="0" />
      <stop
         id="stop7608"
         style="stop-color:#000000;stop-opacity:0"
         offset="1" />
    </linearGradient>
    <linearGradient
       id="linearGradient6958">
      <stop
         id="stop6960"
         style="stop-color:#000000;stop-opacity:1"
         offset="0" />
      <stop
         id="stop6962"
         style="stop-color:#888a85;stop-opacity:0"
         offset="1" />
    </linearGradient>
    <linearGradient
       id="linearGradient2816">
      <stop
         id="stop2818"
         style="stop-color:#ffffff;stop-opacity:1"
         offset="0" />
      <stop
         id="stop2820"
         style="stop-color:#ffffff;stop-opacity:0"
         offset="1" />
    </linearGradient>
    <linearGradient
       id="linearGradient4542">
      <stop
         id="stop4544"
         style="stop-color:#888a85;stop-opacity:1"
         offset="0" />
      <stop
         id="stop4546"
         style="stop-color:#888a85;stop-opacity:0"
         offset="1" />
    </linearGradient>
    <radialGradient
       cx="20"
       cy="46"
       r="8"
       fx="20"
       fy="46"
       id="radialGradient7612"
       xlink:href="#linearGradient7604"
       gradientUnits="userSpaceOnUse"
       gradientTransform="matrix(1,0,0,0.25,0,34.5)" />
    <linearGradient
       x1="17"
       y1="45.248375"
       x2="17"
       y2="30.759407"
       id="linearGradient6791"
       xlink:href="#linearGradient6958"
       gradientUnits="userSpaceOnUse"
       gradientTransform="matrix(0,0.625,-0.676136,0,37.10227,15.875)" />
    <linearGradient
       x1="15.406166"
       y1="37.34367"
       x2="16.864777"
       y2="24.249567"
       id="linearGradient6834"
       xlink:href="#linearGradient2816"
       gradientUnits="userSpaceOnUse"
       gradientTransform="matrix(0,0.673693,-0.676136,0,37.10227,14.81577)" />
    <linearGradient
       x1="33.120464"
       y1="20.5"
       x2="22.328388"
       y2="20.5"
       id="linearGradient6798"
       xlink:href="#linearGradient4542"
       gradientUnits="userSpaceOnUse"
       gradientTransform="matrix(0.727273,0,0,0.999999,12.27273,-34.84375)" />
    <linearGradient
       x1="9.4656744"
       y1="4.9728107"
       x2="13.530422"
       y2="8.6812181"
       id="linearGradient6119-6"
       xlink:href="#linearGradient6793-8"
       gradientUnits="userSpaceOnUse"
       gradientTransform="matrix(0.7071068,0.7071068,-0.7071068,0.7071068,4.0850314,-5.107357)" />
    <linearGradient
       id="linearGradient6793-8">
      <stop
         id="stop6795-7"
         style="stop-color:#d3d7cf;stop-opacity:1"
         offset="0" />
      <stop
         id="stop6797-0"
         style="stop-color:#eeeeec;stop-opacity:1"
         offset="1" />
    </linearGradient>
    <linearGradient
       x1="6.5"
       y1="9"
       x2="7.5"
       y2="5.5"
       id="linearGradient6121-4"
       xlink:href="#linearGradient6762-2"
       gradientUnits="userSpaceOnUse" />
    <linearGradient
       id="linearGradient6762-2">
      <stop
         id="stop6764-9"
         style="stop-color:#000000;stop-opacity:1"
         offset="0" />
      <stop
         id="stop6766-9"
         style="stop-color:#000000;stop-opacity:0"
         offset="1" />
    </linearGradient>
    <linearGradient
       x1="8.7232523"
       y1="6.2651649"
       x2="5.9061942"
       y2="5.2978506"
       id="linearGradient6123-0"
       xlink:href="#linearGradient6833-5"
       gradientUnits="userSpaceOnUse" />
    <linearGradient
       id="linearGradient6833-5">
      <stop
         id="stop6835-7"
         style="stop-color:#ffffff;stop-opacity:1"
         offset="0" />
      <stop
         id="stop6837-6"
         style="stop-color:#ffffff;stop-opacity:0"
         offset="1" />
    </linearGradient>
    <linearGradient
       x1="9.9340439"
       y1="4.53125"
       x2="10.562407"
       y2="22.717516"
       id="linearGradient6125-5"
       xlink:href="#linearGradient6742-8"
       gradientUnits="userSpaceOnUse" />
    <linearGradient
       id="linearGradient6742-8">
      <stop
         id="stop6744-9"
         style="stop-color:#ffffff;stop-opacity:1"
         offset="0" />
      <stop
         id="stop6746-2"
         style="stop-color:#ffffff;stop-opacity:0"
         offset="1" />
    </linearGradient>
    <linearGradient
       id="linearGradient6753-1">
      <stop
         id="stop6755-2"
         style="stop-color:#888a85;stop-opacity:1"
         offset="0" />
      <stop
         id="stop6757-6"
         style="stop-color:#eeeeec;stop-opacity:1"
         offset="1" />
    </linearGradient>
    <linearGradient
       x1="14.4375"
       y1="13.8125"
       x2="8"
       y2="7.5"
       id="linearGradient17243"
       xlink:href="#linearGradient6753-1"
       gradientUnits="userSpaceOnUse" />
    <linearGradient
       x1="168.75"
       y1="127.625"
       x2="155.5"
       y2="127.125"
       id="linearGradient17431"
       xlink:href="#linearGradient17415"
       gradientUnits="userSpaceOnUse" />
    <radialGradient
       cx="145.9375"
       cy="167.18562"
       r="23.582542"
       fx="145.9375"
       fy="167.18562"
       id="radialGradient17441"
       xlink:href="#linearGradient17435"
       gradientUnits="userSpaceOnUse"
       gradientTransform="matrix(-0.27628108,-3.0663231e-8,5.6265574e-8,-0.50696268,193.46113,186.32132)" />
    <radialGradient
       cx="149.22049"
       cy="170.76392"
       r="23.582542"
       fx="149.22049"
       fy="170.76392"
       id="radialGradient17445"
       xlink:href="#linearGradient17435"
       gradientUnits="userSpaceOnUse"
       gradientTransform="matrix(-0.40433876,-0.01060106,0.01281791,-0.48889231,219.91316,188.1315)" />
    <filter
       x="-0.099119641"
       y="-0.39647856"
       width="1.1982393"
       height="1.7929571"
       color-interpolation-filters="sRGB"
       id="filter17768">
      <feGaussianBlur
         id="feGaussianBlur17770"
         stdDeviation="0.6607976" />
    </filter>
    <linearGradient
       x1="21.075787"
       y1="11.913565"
       x2="33.869564"
       y2="48.13636"
       id="linearGradient17518-9"
       xlink:href="#linearGradient17498-7"
       gradientUnits="userSpaceOnUse"
       gradientTransform="translate(-10,-7.0349203)" />
    <linearGradient
       id="linearGradient17498-7">
      <stop
         id="stop17500-8"
         style="stop-color:#d3d7cf;stop-opacity:1"
         offset="0" />
      <stop
         id="stop17502-3"
         style="stop-color:#eeeeec;stop-opacity:1"
         offset="0.28330287" />
      <stop
         id="stop17504-9"
         style="stop-color:#babdb6;stop-opacity:1"
         offset="0.33564273" />
      <stop
         id="stop17512-4"
         style="stop-color:#ffffff;stop-opacity:1"
         offset="0.6530382" />
      <stop
         id="stop17514-4"
         style="stop-color:#babdb6;stop-opacity:1"
         offset="1" />
    </linearGradient>
    <linearGradient
       x1="7.4464869"
       y1="29.420902"
       x2="18.682508"
       y2="29.420902"
       id="linearGradient17786-7"
       xlink:href="#linearGradient17780-3"
       gradientUnits="userSpaceOnUse"
       gradientTransform="translate(0,-0.03492002)" />
    <linearGradient
       id="linearGradient17780-3">
      <stop
         id="stop17782-6"
         style="stop-color:#888a85;stop-opacity:1"
         offset="0" />
      <stop
         id="stop17784-1"
         style="stop-color:#e2e2e1;stop-opacity:1"
         offset="1" />
    </linearGradient>
    <radialGradient
       cx="145.9375"
       cy="167.18562"
       r="23.582542"
       fx="145.9375"
       fy="167.18562"
       id="radialGradient3579"
       xlink:href="#linearGradient17435"
       gradientUnits="userSpaceOnUse"
       gradientTransform="matrix(0.23926642,0.13814056,-0.25348139,0.43904253,138.49617,67.984793)" />
    <radialGradient
       cx="149.22049"
       cy="170.76392"
       r="23.582542"
       fx="149.22049"
       fy="170.76392"
       id="radialGradient3581"
       xlink:href="#linearGradient17435"
       gradientUnits="userSpaceOnUse"
       gradientTransform="matrix(0.3448671,0.21135017,-0.25554679,0.41698421,116.49305,53.191068)" />
    <linearGradient
       id="linearGradient13770-9-6">
      <stop
         id="stop13772-1-8"
         style="stop-color:#babdb6;stop-opacity:1"
         offset="0" />
      <stop
         id="stop13780-9-3"
         style="stop-color:#f2f2f1;stop-opacity:1"
         offset="0.17445399" />
      <stop
         id="stop13774-5-8"
         style="stop-color:#edeeec;stop-opacity:1"
         offset="0.23801444" />
      <stop
         id="stop13776-7-3"
         style="stop-color:#dcdeda;stop-opacity:1"
         offset="0.27069226" />
      <stop
         id="stop13778-9-3"
         style="stop-color:#ffffff;stop-opacity:1"
         offset="1" />
    </linearGradient>
    <filter
       color-interpolation-filters="sRGB"
       id="filter4407">
      <feGaussianBlur
         id="feGaussianBlur4409"
         stdDeviation="0.73221983" />
    </filter>
    <linearGradient
       x1="-446.81754"
       y1="4522.2944"
       x2="-2920.8506"
       y2="7485.9624"
       id="linearGradient4413"
       xlink:href="#linearGradient13770-9-6"
       gradientUnits="userSpaceOnUse"
       gradientTransform="matrix(0.05069732,0.05069731,-0.05069732,0.05069731,505.34964,-52.290784)" />
    <radialGradient
       cx="20"
       cy="46"
       r="8"
       fx="20"
       fy="46"
       id="radialGradient4461"
       xlink:href="#linearGradient7604"
       gradientUnits="userSpaceOnUse"
       gradientTransform="matrix(1,0,0,0.25,0,34.5)" />
    <linearGradient
       x1="17"
       y1="45.248375"
       x2="17"
       y2="30.759407"
       id="linearGradient4467"
       xlink:href="#linearGradient6958"
       gradientUnits="userSpaceOnUse"
       gradientTransform="matrix(0,0.625,-0.676136,0,37.10227,15.875)" />
    <linearGradient
       x1="15.406166"
       y1="37.34367"
       x2="16.864777"
       y2="24.249567"
       id="linearGradient4469"
       xlink:href="#linearGradient2816"
       gradientUnits="userSpaceOnUse"
       gradientTransform="matrix(0,0.673693,-0.676136,0,37.10227,14.81577)" />
    <linearGradient
       x1="33.120464"
       y1="20.5"
       x2="22.328388"
       y2="20.5"
       id="linearGradient4471"
       xlink:href="#linearGradient4542"
       gradientUnits="userSpaceOnUse"
       gradientTransform="matrix(0.727273,0,0,0.999999,12.27273,-34.435365)" />
    <linearGradient
       x1="21.075787"
       y1="11.913565"
       x2="33.869564"
       y2="48.13636"
       id="linearGradient4475"
       xlink:href="#linearGradient17498-7"
       gradientUnits="userSpaceOnUse"
       gradientTransform="translate(-10,-7.0349203)" />
    <linearGradient
       x1="7.4464869"
       y1="29.420902"
       x2="24.169197"
       y2="29.805933"
       id="linearGradient4477"
       xlink:href="#linearGradient17780-3"
       gradientUnits="userSpaceOnUse"
       gradientTransform="translate(0,-0.03492002)" />
    <filter
       color-interpolation-filters="sRGB"
       id="filter4483">
      <feGaussianBlur
         id="feGaussianBlur4485"
         stdDeviation="1.512155" />
    </filter>
    <linearGradient
       x1="9.4656744"
       y1="4.9728107"
       x2="13.530422"
       y2="8.6812181"
       id="linearGradient4489"
       xlink:href="#linearGradient6793"
       gradientUnits="userSpaceOnUse"
       gradientTransform="matrix(0.7071068,0.7071068,-0.7071068,0.7071068,4.0850314,-5.107357)" />
    <filter
       x="-0.079671629"
       y="-0.17061412"
       width="1.1593432"
       height="1.3412282"
       color-interpolation-filters="sRGB"
       id="filter10741">
      <feGaussianBlur
         id="feGaussianBlur10743"
         stdDeviation="7.9388137" />
    </filter>
  </defs>
  <metadata
     id="metadata4">
    <rdf:RDF>
      <cc:Work
         rdf:about="">
        <dc:format>image/svg+xml</dc:format>
        <dc:type
           rdf:resource="http://purl.org/dc/dcmitype/StillImage" />
        <dc:creator>
          <cc:Agent>
            <dc:title>Lapo Calamandrei</dc:title>
          </cc:Agent>
        </dc:creator>
        <dc:source />
        <cc:license
           rdf:resource="" />
        <dc:title>Firewall</dc:title>
        <dc:subject>
          <rdf:Bag />
        </dc:subject>
        <dc:date />
        <dc:rights>
          <cc:Agent>
            <dc:title />
          </cc:Agent>
        </dc:rights>
        <dc:publisher>
          <cc:Agent>
            <dc:title />
          </cc:Agent>
        </dc:publisher>
        <dc:identifier />
        <dc:relation />
        <dc:language />
        <dc:coverage />
        <dc:description />
        <dc:contributor>
          <cc:Agent>
            <dc:title />
          </cc:Agent>
        </dc:contributor>
      </cc:Work>
      <cc:Work
         rdf:about="">
        <dc:format>image/svg+xml</dc:format>
        <dc:type
           rdf:resource="http://purl.org/dc/dcmitype/StillImage" />
      </cc:Work>
    </rdf:RDF>
  </metadata>
  <g
     transform="translate(0,-44)"
     id="layer1"
     style="display:inline">
    <g
       id="layer2"
       style="display:none">
      <rect
         width="48"
         height="48"
         x="296.0625"
         y="51.99633"
         id="rect6284"
         style="fill:#eeeeec;fill-opacity:1;fill-rule:nonzero;stroke:none;stroke-width:2;marker:none;visibility:visible;display:inline;overflow:visible;enable-background:accumulate" />
      <rect
         width="32"
         height="32"
         x="303"
         y="127.99634"
         id="rect6592"
         style="fill:#eeeeec;fill-opacity:1;fill-rule:nonzero;stroke:none;stroke-width:2;marker:none;visibility:visible;display:inline;overflow:visible;enable-background:accumulate" />
      <rect
         width="24"
         height="24"
         x="302"
         y="178"
         id="rect5028"
         style="fill:#ffffff;fill-opacity:1;fill-rule:nonzero;stroke:none;stroke-width:2;marker:none;visibility:visible;display:inline;overflow:visible;enable-background:accumulate" />
      <rect
         width="16"
         height="16"
         x="303"
         y="221"
         id="rect6833"
         style="fill:#eeeeec;fill-opacity:1;fill-rule:nonzero;stroke:none;stroke-width:2;marker:none;visibility:visible;display:inline;overflow:visible;enable-background:accumulate" />
      <rect
         width="22"
         height="22"
         x="303"
         y="179.05884"
         id="rect6749"
         style="fill:#eeeeec;fill-opacity:1;fill-rule:nonzero;stroke:none;stroke-width:2;marker:none;visibility:visible;display:inline;overflow:visible;enable-background:accumulate" />
      <text
         x="31.87059"
         y="18.860306"
         id="context"
         xml:space="preserve"
         style="font-size:18px;font-style:normal;font-variant:normal;font-weight:normal;font-stretch:normal;fill:#000000;fill-opacity:1;stroke:none;display:inline;enable-background:new;font-family:DejaVu Sans;-inkscape-font-specification:DejaVu Sans"><tspan
           x="31.87059"
           y="18.860306"
           id="tspan2716"
           style="font-style:normal;font-variant:normal;font-weight:normal;font-stretch:normal;font-family:DejaVu Sans;-inkscape-font-specification:DejaVu Sans">status</tspan></text>
      <text
         x="199.87057"
         y="18.860306"
         id="icon-name"
         xml:space="preserve"
         style="font-size:18px;font-style:normal;font-variant:normal;font-weight:bold;font-stretch:normal;text-align:start;line-height:125%;writing-mode:lr-tb;text-anchor:start;fill:#000000;fill-opacity:1;stroke:none;display:inline;enable-background:new;font-family:DejaVu Sans;-inkscape-font-specification:DejaVu Sans Bold"><tspan
           x="199.87057"
           y="18.860306"
           id="tspan3023"
           style="font-size:18px;font-style:normal;font-variant:normal;font-weight:bold;font-stretch:normal;font-family:DejaVu Sans;-inkscape-font-specification:DejaVu Sans Bold">dialog-password</tspan></text>
      <rect
         width="256"
         height="256"
         x="20"
         y="32"
         id="rect6282"
         style="fill:#eeeeec;fill-opacity:1;fill-rule:nonzero;stroke:none;stroke-width:2;marker:none;visibility:visible;display:inline;overflow:visible;enable-background:accumulate" />
    </g>
    <g
       id="layer4"
       style="display:inline">
      <g
         transform="matrix(1.25,0,0,1.25,-78,-47.25)"
         id="g6154"
         style="fill:#ffffff" />
    </g>
    <g
       id="layer5"
       style="display:inline">
      <g
         transform="matrix(5.0928038,0,0,2.2388776,20.301687,129.4805)"
         id="g8198"
         style="opacity:0.4" />
      <g
         transform="matrix(4.8890868,0,0,4.8890868,322.06038,251.81989)"
         id="g8230"
         style="display:inline" />
      <path
         d="m 711.96875,228 c -1.90789,1e-5 -3.49694,0.75848 -4.46875,1.71875 l 0,1.78125 9,0 0,-1.75 c -0.96562,-0.98703 -2.59089,-1.75 -4.53125,-1.75 z"
         transform="translate(-7.8685593e-7,2.029528e-6)"
         id="path5171-2"
         style="opacity:0.35;fill:none;stroke:#ffffff;stroke-width:1;stroke-linecap:butt;stroke-linejoin:miter;stroke-miterlimit:4;stroke-opacity:1;stroke-dasharray:none;stroke-dashoffset:0;marker:none;visibility:visible;display:inline;overflow:visible;enable-background:accumulate" />
    </g>
    <g
       transform="matrix(-1.0737137,1.0737137,-1.0737137,-1.0737137,493.16031,146.80891)"
       id="g15353">
      <path
         d="m 212.96875,100.375 c -0.82645,0.0122 -1.64063,0.0625 -2.46875,0.125 -26.5,2 -40.5,14.5 -45.5,23 -5,8.5 -7,13.5 -7,13.5 l -117,0 -14.5,20.5 11,11 17.5,0 9,-9 8,8.5 11.5,1 6,-8.5 7.5,9 50,-1.5 0.5,10 9.5,-1.5 c 0,0 17,37 49,35.5 32,-1.5 62,-24.5 59.5,-57 -2.42187,-31.48437 -26.91141,-55.004837 -52.53125,-54.625 z m 22.45982,41.05357 c 8.00813,0 14.5,6.49187 14.5,14.5 0,8.00813 -6.49187,14.5 -14.5,14.5 -8.00813,0 -14.5,-6.49187 -14.5,-14.5 0,-8.00813 6.49187,-14.5 14.5,-14.5 z"
         transform="matrix(-0.43794261,-0.43794261,0.43794261,-0.43794261,177.338,290.69614)"
         id="path4426"
         style="opacity:0.28947371;color:#000000;fill:#000000;fill-opacity:1;fill-rule:nonzero;stroke:none;stroke-width:2.7453959;marker:none;visibility:visible;display:inline;overflow:visible;filter:url(#filter10741);enable-background:accumulate" />
      <path
         d="m 212.96875,100.375 c -0.82645,0.0122 -1.64063,0.0625 -2.46875,0.125 -26.5,2 -40.5,14.5 -45.5,23 -5,8.5 -7,13.5 -7,13.5 l -117,0 -14.5,20.5 11,11 17.5,0 9,-9 8,8.5 11.5,1 6,-8.5 7.5,9 50,-1.5 0.5,10 9.5,-1.5 c 0,0 16.96486,35.5 49,35.5 39.00321,0 62,-24.5 59.5,-57 -2.42187,-31.48437 -26.91141,-55.004837 -52.53125,-54.625 z m 22.45982,41.05357 c 8.00813,0 14.5,6.49187 14.5,14.5 0,8.00813 -6.49187,14.5 -14.5,14.5 -8.00813,0 -14.5,-6.49187 -14.5,-14.5 0,-8.00813 6.49187,-14.5 14.5,-14.5 z"
         transform="matrix(-0.43794261,-0.43794261,0.43794261,-0.43794261,174.71036,293.32378)"
         id="path4415"
         style="opacity:0.26754384;color:#000000;fill:#000000;fill-opacity:1;fill-rule:nonzero;stroke:none;stroke-width:2.7453959;marker:none;visibility:visible;display:inline;overflow:visible;filter:url(#filter4483);enable-background:accumulate" />
      <path
         d="m 180.77685,155.01904 23.49174,22.14935 0.33559,7.71871 5.70514,-1.00679 5.03394,5.03395 0,8.05431 7.04752,-0.3356 7.38312,7.38312 1.67798,10.06788 -53.69539,-53.69539 z"
         id="path7238"
         style="fill:#555753;stroke:none" />
      <path
         d="M 149.56641,99.981263 C 130.47591,99.981263 115,115.45717 115,134.54767 c 0,19.0905 15.47591,34.56641 34.56641,34.56641 5.20622,0 10.12849,-1.16873 14.55648,-3.23011 l 50.88478,50.88477 6.04073,0 -0.6712,-1.67798 3.02037,0 1.00679,1.67798 7.84456,-2.09748 -53.48564,-53.94708 6.04073,-6.04074 0.67119,-2.68477 -3.90131,-4.44665 c 1.63233,-4.01558 2.55892,-8.40259 2.55892,-13.00435 0,-19.0905 -15.4759,-34.566407 -34.5664,-34.566407 z M 138.49173,114.0763 c 5.0043,0 9.0611,4.0568 9.0611,9.0611 0,5.0043 -4.0568,9.0611 -9.0611,9.0611 -5.0043,0 -9.0611,-4.0568 -9.0611,-9.0611 0,-5.0043 4.0568,-9.0611 9.0611,-9.0611 z"
         id="path7233"
         style="color:#000000;fill:url(#linearGradient15348);fill-opacity:1;fill-rule:nonzero;stroke:none;stroke-width:1.70034552;marker:none;visibility:visible;display:inline;overflow:visible;enable-background:accumulate" />
      <path
         d="m 218.26376,216.20785 -60.10407,-61.87185 0,-1.06066 15.9099,12.72792 44.54773,44.54773 z"
         id="path13555"
         style="color:#000000;fill:url(#radialGradient15345);fill-opacity:1;fill-rule:nonzero;stroke:none;stroke-width:2;marker:none;visibility:visible;display:inline;overflow:visible;enable-background:accumulate" />
      <path
         d="m 163.46299,159.6393 55.3311,55.33111 -1.94454,0.53033 z"
         id="path13565"
         style="color:#000000;fill:url(#radialGradient15342);fill-opacity:1;fill-rule:nonzero;stroke:none;stroke-width:2;marker:none;visibility:visible;display:inline;overflow:visible;enable-background:accumulate" />
      <path
         d="m 221.09219,216.5614 -3.18198,-5.65685 -45.96194,-47.72971 51.97235,51.26524 z"
         id="path13575"
         style="color:#000000;fill:#858585;fill-opacity:1;fill-rule:nonzero;stroke:none;stroke-width:2;marker:none;visibility:visible;display:inline;overflow:visible;enable-background:accumulate" />
      <path
         d="m 225.68838,215.85429 -50.20458,-49.14392 50.91169,46.66905 5.65685,0.70711 z"
         id="path13577"
         style="color:#000000;fill:#ffffff;fill-opacity:1;fill-rule:nonzero;stroke:none;stroke-width:2;marker:none;visibility:visible;display:inline;overflow:visible;enable-background:accumulate" />
      <path
         d="m 206.5965,184.74159 9.54594,10.60661 -0.35355,-4.5962 -6.36396,-6.01041 z"
         id="path13579"
         style="color:#000000;fill:url(#linearGradient15337);fill-opacity:1;fill-rule:nonzero;stroke:none;stroke-width:2;marker:none;visibility:visible;display:inline;overflow:visible;enable-background:accumulate" />
      <path
         d="m 218.26376,197.11596 13.25825,13.78859 -1.41421,-4.94975 -8.48528,-9.01561 z"
         id="path13581"
         style="color:#000000;fill:url(#linearGradient15334);fill-opacity:1;fill-rule:nonzero;stroke:none;stroke-width:2;marker:none;visibility:visible;display:inline;overflow:visible;enable-background:accumulate" />
      <path
         d="m 204.65196,183.1506 -24.21841,-23.68807 1.94454,-1.59099 22.27387,21.92031 z"
         id="path13583"
         style="color:#000000;fill:url(#linearGradient15331);fill-opacity:1;fill-rule:nonzero;stroke:none;stroke-width:2;marker:none;visibility:visible;display:inline;overflow:visible;enable-background:accumulate" />
      <path
         d="m 154.75,101.25 c -2.66667,22.01687 -5.33333,44.31682 -8,67 7.9081,-0.66952 13.07883,-2.2515 17,-4.25 l 5,5 4.40734,-4.05755 33.22514,31.20145 L 178.1274,160.36683 184.5,154.5 l 0,-2.25 -4.75,-4 c 8.25,-23.75 -4.5,-40.75 -25,-47 z"
         id="path17413"
         style="opacity:0.41666667;color:#000000;fill:url(#linearGradient17431);fill-opacity:1;fill-rule:nonzero;stroke:none;stroke-width:1px;marker:none;visibility:visible;display:inline;overflow:visible;enable-background:new" />
      <g
         transform="matrix(1.3423848,0,0,1.3423848,220.01681,-22.386204)"
         clip-path="url(#clipPath12461-5-4-5)"
         id="g12465"
         style="opacity:0.39473685;stroke:url(#linearGradient14313);stroke-width:0.65856171;display:inline;filter:url(#filter12480-2-4-0);enable-background:new">
        <path
           d="m -52.298199,90.961216 c -14.221332,0 -25.747088,11.549034 -25.747088,25.770364 0,14.22134 11.525756,25.74709 25.747088,25.74709 3.878336,0 7.549624,-0.88545 10.848231,-2.42106 l 37.8989687,37.92225 4.51621619,0 -0.51214823,-1.2571 2.25810814,0 0.7449428,1.2571 5.8431458,-1.58301 -0.6518251,-0.65182 -1.1872527,-7.2632 -5.4939537,-5.51723 -5.2611591,0.25608 0,-6.00611 -3.7479939,-3.74799 -4.2601419,0.74494 -0.232795,-5.75003 -16.08611,-15.15493 1.583003,-1.583 0.488869,-2.00204 -2.909933,-3.30568 c 1.215993,-2.99138 1.908916,-6.25621 1.908916,-9.68426 0,-14.22133 -11.525756,-25.770364 -25.747088,-25.770364 z"
           id="path12383"
           style="fill:none;stroke:url(#linearGradient13985-6);stroke-width:0.98118174;stroke-miterlimit:4;stroke-opacity:1;stroke-dasharray:none" />
      </g>
      <g
         transform="matrix(0.86207498,0,0,0.86207498,16.526647,15.000885)"
         clip-path="url(#clipPath14890-4)"
         id="g14894"
         style="opacity:0.58771931;display:inline;enable-background:new">
        <path
           d="m 151.25,124.625 a 9.875,9.875 0 1 1 -19.75,0 9.875,9.875 0 1 1 19.75,0 z"
           transform="matrix(-1.0306735,0,0,-1.0306735,287.28583,253.52206)"
           id="path14862"
           style="color:#000000;fill:none;stroke:#000000;stroke-width:1.40732539;stroke-opacity:1;marker:none;visibility:visible;display:inline;overflow:visible;filter:url(#filter14881-7);enable-background:accumulate" />
      </g>
      <path
         d="m 177.64123,124 c 11.52081,24.61436 -13.70705,49.67719 -35.73304,41.64377 z"
         id="path14897"
         style="opacity:0.31140352;color:#000000;fill:#ffffff;fill-opacity:1;stroke:none;stroke-width:2;marker:none;visibility:visible;display:inline;overflow:visible;filter:url(#filter15394);enable-background:accumulate" />
      <path
         d="m 176.25,136 a 25,25 0 1 1 -50,0 25,25 0 1 1 50,0 z"
         transform="matrix(1.2795311,0,0,1.2795311,-44.029091,-40.766242)"
         id="path14994"
         style="color:#000000;fill:none;stroke:url(#radialGradient15189);stroke-width:0.51468986;stroke-miterlimit:4;stroke-opacity:1;stroke-dasharray:none;marker:none;visibility:visible;display:inline;overflow:visible;enable-background:accumulate" />
      <path
         d="m 176.25,136 a 25,25 0 1 1 -50,0 25,25 0 1 1 50,0 z"
         transform="matrix(0.64468508,1.1166273,-1.1166273,0.64468508,203.8527,-123.31704)"
         id="path14913"
         style="opacity:0.58771931;color:#000000;fill:none;stroke:url(#radialGradient15223);stroke-width:0.51076239;stroke-miterlimit:4;stroke-opacity:1;stroke-dasharray:none;marker:none;visibility:visible;display:inline;overflow:visible;enable-background:accumulate" />
      <path
         d="m 147.1875,102 c -19.42695,-0.24806 -37.48696,21.64993 -27.40625,43.1875 L 130.0218,130.30408 133.25,129.5 c -1.99189,-1.62749 -3.25,-4.10216 -3.25,-6.875 0,-4.90153 3.97347,-8.875 8.875,-8.875 2.28151,0 4.36527,0.86658 5.9375,2.28125 l 1.18066,-4.00149 5.78856,-7.24416 3.74953,-1.25435 C 152.778,102.52707 149.96278,102.03544 147.1875,102 z"
         id="path15281"
         style="opacity:0.17982459;color:#000000;fill:#ffffff;fill-opacity:1;stroke:none;stroke-width:2;marker:none;visibility:visible;display:inline;overflow:visible;enable-background:accumulate" />
      <path
         d="m 159.82887,103.50007 -1.25,-2.625 c -4.46087,-1.423026 -8.3196,-1.340666 -12.125,-1.125003 l 0.75,2.125003 c 4.03271,-0.51206 8.25916,0.13829 12.625,1.625 z"
         id="path17433"
         style="opacity:0.78947365;color:#000000;fill:url(#radialGradient17441);fill-opacity:1;fill-rule:nonzero;stroke:none;stroke-width:1;marker:none;visibility:visible;display:inline;overflow:visible;enable-background:new" />
      <path
         d="m 168.82887,107.25007 -1.25,-2.625 c -1.71087,-1.54802 -4.9446,-2.46566 -7.625,-3.125 l 0.75,2.125 c 2.03271,0.61294 4.88416,1.26329 8.125,3.625 z"
         id="path17443"
         style="opacity:0.72368421;color:#000000;fill:url(#radialGradient17445);fill-opacity:1;fill-rule:nonzero;stroke:none;stroke-width:1;marker:none;visibility:visible;display:inline;overflow:visible;enable-background:new" />
      <path
         d="m 126.21199,156.52615 -0.22997,2.89831 c 3.15172,3.46281 6.53465,5.32085 9.93805,7.03678 l 0.41299,-2.2153 c -3.74846,-1.5729 -7.0835,-4.24934 -10.12107,-7.71979 z"
         id="path3575"
         style="opacity:0.78947365;color:#000000;fill:url(#radialGradient3579);fill-opacity:1;fill-rule:nonzero;stroke:none;stroke-width:1;marker:none;visibility:visible;display:inline;overflow:visible;enable-background:new" />
      <path
         d="m 120.29276,148.77856 -0.22997,2.89831 c 0.70765,2.19606 3.04932,4.60762 5.04095,6.51883 l 0.41297,-2.2153 c -1.4539,-1.54718 -3.59816,-3.53612 -5.22395,-7.20184 z"
         id="path3577"
         style="opacity:0.72368421;color:#000000;fill:url(#radialGradient3581);fill-opacity:1;fill-rule:nonzero;stroke:none;stroke-width:1;marker:none;visibility:visible;display:inline;overflow:visible;enable-background:new" />
      <rect
         width="24.5"
         height="51"
         x="186"
         y="131"
         transform="matrix(-0.43794261,-0.43794261,0.43794261,-0.43794261,173.39654,294.6376)"
         id="rect3583"
         style="color:#000000;fill:url(#linearGradient4413);fill-opacity:1;fill-rule:nonzero;stroke:none;stroke-width:2.7453959;marker:none;visibility:visible;display:inline;overflow:visible;filter:url(#filter4407);enable-background:accumulate" />
      <path
         d="m 210.25,102 c -30.23759,0 -54.75,24.51241 -54.75,54.75 0,0.33604 0.0252,0.6654 0.0312,1 0.53648,-29.77342 24.8172,-53.75 54.71875,-53.75 29.90155,0 54.18227,23.97658 54.71875,53.75 0.006,-0.3346 0.0312,-0.66396 0.0312,-1 C 265,126.51241 240.48759,102 210.25,102 z"
         transform="matrix(-0.43794261,-0.43794261,0.43794261,-0.43794261,173.39654,294.6376)"
         id="path4432"
         style="opacity:0.47807019;color:#000000;fill:#ffffff;fill-opacity:1;fill-rule:nonzero;stroke:none;stroke-width:2.7453959;marker:none;visibility:visible;display:inline;overflow:visible;enable-background:accumulate" />
      <path
         d="m 220.5625,157.75 c -0.0215,0.3315 -0.0625,0.66306 -0.0625,1 0,8.42234 6.82766,15.25 15.25,15.25 8.42234,0 15.25,-6.82766 15.25,-15.25 0,-0.33694 -0.041,-0.6685 -0.0625,-1 -0.5164,7.95487 -7.1021,14.25 -15.1875,14.25 -8.0854,0 -14.6711,-6.29513 -15.1875,-14.25 z"
         transform="matrix(-0.43794261,-0.43794261,0.43794261,-0.43794261,173.39654,294.6376)"
         id="path4439"
         style="color:#000000;fill:#ffffff;fill-opacity:1;fill-rule:nonzero;stroke:none;stroke-width:2.7453959;marker:none;visibility:visible;display:inline;overflow:visible;enable-background:accumulate" />
    </g>
  </g>
</svg>
