<?xml version="1.0" encoding="UTF-8" standalone="no"?>
<!-- Created with Inkscape (http://www.inkscape.org/) -->

<svg
   xmlns:dc="http://purl.org/dc/elements/1.1/"
   xmlns:cc="http://creativecommons.org/ns#"
   xmlns:rdf="http://www.w3.org/1999/02/22-rdf-syntax-ns#"
   xmlns:svg="http://www.w3.org/2000/svg"
   xmlns="http://www.w3.org/2000/svg"
   xmlns:xlink="http://www.w3.org/1999/xlink"
   version="1.0"
   width="16"
   height="16"
   id="svg2"
   style="display:inline">
  <defs
     id="defs4">
    <linearGradient
       id="linearGradient3-paper-sheet-orig-08">
      <stop
         id="stop6-paper-sheet-orig-1"
         style="stop-color:#ffffff;stop-opacity:1"
         offset="0" />
      <stop
         id="stop7-paper-sheet-orig-2"
         style="stop-color:#d3d7cf;stop-opacity:1"
         offset="1" />
    </linearGradient>
    <linearGradient
       id="linearGradient10-paper-sheet-orig-3">
      <stop
         id="stop15-paper-sheet-orig-7"
         style="stop-color:#555753;stop-opacity:1"
         offset="0" />
      <stop
         id="stop16-paper-sheet-orig-8"
         style="stop-color:#babdb6;stop-opacity:1"
         offset="1" />
    </linearGradient>
    <linearGradient
       id="linearGradient4-paper-sheet-orig-7">
      <stop
         id="stop8-paper-sheet-orig-2"
         style="stop-color:#ffffff;stop-opacity:1"
         offset="0" />
      <stop
         id="stop9-paper-sheet-orig-2"
         style="stop-color:#ffffff;stop-opacity:0"
         offset="1" />
    </linearGradient>
    <linearGradient
       id="linearGradient16-paper-sheet-orig-9">
      <stop
         id="stop24-paper-sheet-orig-7"
         style="stop-color:#ffffff;stop-opacity:1"
         offset="0" />
      <stop
         id="stop25-paper-sheet-orig-5"
         style="stop-color:#ffffff;stop-opacity:0"
         offset="1" />
    </linearGradient>
    <linearGradient
       id="linearGradient17-paper-sheet-orig-0-8">
      <stop
         id="stop26-paper-sheet-orig-2-4"
         style="stop-color:#000000;stop-opacity:1"
         offset="0" />
      <stop
         id="stop27-paper-sheet-orig-3-8"
         style="stop-color:#000000;stop-opacity:0"
         offset="1" />
    </linearGradient>
    <radialGradient
       cx="-30.314398"
       cy="39.271858"
       r="18.000002"
       fx="-30.314398"
       fy="39.271858"
       id="radialGradient19664"
       xlink:href="#linearGradient3-paper-sheet-orig-08"
       gradientUnits="userSpaceOnUse"
       gradientTransform="matrix(1.48717,0,0,0.548905,755.14,213.489)" />
    <linearGradient
       x1="-46.226273"
       y1="55.166615"
       x2="-53.849915"
       y2="-0.54635042"
       id="linearGradient19666"
       xlink:href="#linearGradient10-paper-sheet-orig-3"
       gradientUnits="userSpaceOnUse"
       gradientTransform="matrix(0.372187,0,0,0.367216,721.412,219.218)" />
    <radialGradient
       cx="4"
       cy="5.2999997"
       r="17"
       fx="4"
       fy="5.2999997"
       id="radialGradient19668"
       xlink:href="#linearGradient4-paper-sheet-orig-7"
       gradientUnits="userSpaceOnUse"
       gradientTransform="matrix(1.79816,-0.0210592,0.0167913,1.62912,-3.28162,-6.55011)" />
    <linearGradient
       x1="14.958019"
       y1="5.0490041"
       x2="17.11025"
       y2="3.8396702"
       id="linearGradient19670"
       xlink:href="#linearGradient16-paper-sheet-orig-9"
       gradientUnits="userSpaceOnUse"
       gradientTransform="matrix(0.766205,0,0,0.750993,699.584,220.125)" />
    <linearGradient
       x1="12.59375"
       y1="4.59375"
       x2="9.40625"
       y2="4.8125"
       id="linearGradient19794"
       xlink:href="#linearGradient17-paper-sheet-orig-0-8"
       gradientUnits="userSpaceOnUse"
       gradientTransform="translate(302,218.99)" />
  </defs>
  <metadata
     id="metadata7">
    <rdf:RDF>
      <cc:Work
         rdf:about="">
        <dc:format>image/svg+xml</dc:format>
        <dc:type
           rdf:resource="http://purl.org/dc/dcmitype/StillImage" />
        <dc:title></dc:title>
        <dc:creator>
          <cc:Agent>
            <dc:title>Lapo Calamandrei</dc:title>
          </cc:Agent>
        </dc:creator>
        <dc:subject>
          <rdf:Bag>
            <rdf:li>sheet</rdf:li>
            <rdf:li>paper</rdf:li>
          </rdf:Bag>
        </dc:subject>
        <dc:contributor>
          <cc:Agent>
            <dc:title>Jakub Steiner</dc:title>
          </cc:Agent>
        </dc:contributor>
        <dc:description>with a HUGE help from Jakub</dc:description>
      </cc:Work>
    </rdf:RDF>
  </metadata>
  <g
     transform="translate(0,-1184)"
     id="g15191"
     style="display:inline">
    <g
       id="g15215"
       style="display:inline">
      <g
         transform="translate(-699.51274,963.99007)"
         id="use15221"
         style="display:inline">
        <path
           d="m 703.00846,220.5 c -0.8313,0 -1.50846,0.66373 -1.50846,1.47852 l 0,8.26092 0,1.54892 0,2.25298 c 0,0.8148 0.67716,1.47852 1.50846,1.47852 l 9.00855,0 c 0.8313,0 1.50847,-0.66372 1.50847,-1.47852 l 0,-0.72752 0,-3.07438 c 0,-2.10216 0,-4.26967 0,-4.59983 -0.14602,-1.3761 -0.93716,-2.39102 -1.86763,-3.30906 -0.93046,-0.91804 -1.90915,-1.80376 -3.35214,-1.83055 -0.20543,0 -0.1022,0 -1.03523,0 l -3.49581,0 -0.76621,0 0,0 0,0 0,0 z"
           id="path19658"
           style="fill:url(#radialGradient19664);fill-opacity:1;stroke:url(#linearGradient19666);stroke-width:1;stroke-miterlimit:4;display:inline" />
        <path
           d="m 8.53125,5.09375 c -0.2534265,0 -0.4375,0.1840734 -0.4375,0.4375 l 0,36.9375 c 0,0.253426 0.1840734,0.4375 0.4375,0.4375 l 30.9375,0 c 0.253425,0 0.4375,-0.184075 0.4375,-0.4375 l 0,-24.96875 c 0,-1.143609 -0.503762,-3.847512 -2.03125,-5.375 l -5,-5 C 31.347512,5.5975116 28.643609,5.09375 27.5,5.09375 l -18.96875,0 z"
           transform="matrix(0.372187,0,0,0.349156,699.081,220.001)"
           id="path19660"
           style="fill:url(#radialGradient19668);fill-opacity:1;stroke:none;display:inline" />
        <path
           d="m 703.00847,221.53262 c -0.25938,0 -0.45494,0.19167 -0.45494,0.4459 l 0,8.26092 0,1.54892 0,2.25298 c 0,0.25423 0.19556,0.4459 0.45494,0.4459 l 9.00855,0 c 0.25937,0 0.45493,-0.19167 0.45493,-0.4459 l 0,-0.72752 0,-3.07438 c 0,-2.04854 0,-4.07061 0,-4.48249 -0.11104,-1.04646 -0.68904,-1.84315 -1.55635,-2.69888 -0.90894,-0.89679 -1.62128,-1.50666 -2.63383,-1.52545 l -4.5071,0 -0.7662,0 z"
           id="path19662"
           style="fill:none;stroke:url(#linearGradient19670);stroke-width:1;stroke-miterlimit:4;display:inline" />
      </g>
      <g
         transform="translate(-302.48574,964.96623)"
         id="use15231"
         style="display:inline">
        <path
           d="m 311.16243,220.04545 c -0.38616,0 -0.0117,0.17904 0.37361,0.4052 1.46396,0.0394 1.39713,0.28644 1.39713,2.53942 1.90425,0 2.61549,1.06134 2.7047,1.47874 0.0892,0.41739 0.27804,0.93919 0.27804,0.43895 0.008,-1.37066 -0.90162,-2.20602 -1.45722,-3.00724 -0.55561,-0.80122 -2.28038,-1.68335 -3.29626,-1.85507 l 0,0 0,0 0,0 z"
           id="path19790"
           style="fill:#ffffff;fill-opacity:1;stroke:none;display:inline" />
        <path
           d="m 312,223.99007 c 3.5,0 2.95305,0.35378 3.54067,0.92668 -0.13066,-0.56607 0.45083,-1.92668 -2.54067,-1.92668 0,-3.05548 -1.5,-2.5 -2,-2.54772 0.95642,1.13267 1.41574,0.2715 1,3.54772 z"
           id="path19792"
           style="opacity:0.35627501;fill:url(#linearGradient19794);fill-opacity:1;stroke:none;display:inline" />
      </g>
    </g>
  </g>
</svg>
