<?xml version="1.0" encoding="UTF-8" standalone="no"?>
<!-- Created with Inkscape (http://www.inkscape.org/) -->

<svg
   xmlns:dc="http://purl.org/dc/elements/1.1/"
   xmlns:cc="http://creativecommons.org/ns#"
   xmlns:rdf="http://www.w3.org/1999/02/22-rdf-syntax-ns#"
   xmlns:svg="http://www.w3.org/2000/svg"
   xmlns="http://www.w3.org/2000/svg"
   xmlns:xlink="http://www.w3.org/1999/xlink"
   version="1.0"
   width="256"
   height="256"
   id="svg11300"
   style="display:inline;enable-background:new">
  <metadata
     id="metadata121">
    <rdf:RDF>
      <cc:Work
         rdf:about="">
        <dc:format>image/svg+xml</dc:format>
        <dc:type
           rdf:resource="http://purl.org/dc/dcmitype/StillImage" />
        <dc:creator>
          <cc:Agent>
            <dc:title>Lapo Calamandrei</dc:title>
          </cc:Agent>
        </dc:creator>
        <dc:title></dc:title>
      </cc:Work>
    </rdf:RDF>
  </metadata>
  <defs
     id="defs3">
    <linearGradient
       id="linearGradient9243">
      <stop
         id="stop9245"
         style="stop-color:#ffffff;stop-opacity:1"
         offset="0" />
      <stop
         id="stop9247"
         style="stop-color:#babdb6;stop-opacity:1"
         offset="0.63414639" />
      <stop
         id="stop9249"
         style="stop-color:#d9d9d4;stop-opacity:1"
         offset="1" />
    </linearGradient>
    <linearGradient
       id="linearGradient9077">
      <stop
         id="stop9079"
         style="stop-color:#000000;stop-opacity:1"
         offset="0" />
      <stop
         id="stop9081"
         style="stop-color:#000000;stop-opacity:0.49803922"
         offset="0.79958123" />
      <stop
         id="stop9083"
         style="stop-color:#000000;stop-opacity:0"
         offset="1" />
    </linearGradient>
    <linearGradient
       id="linearGradient9664">
      <stop
         id="stop9666"
         style="stop-color:#000000;stop-opacity:1"
         offset="0" />
      <stop
         id="stop9075"
         style="stop-color:#000000;stop-opacity:0.49803922"
         offset="0.5" />
      <stop
         id="stop9668"
         style="stop-color:#000000;stop-opacity:0"
         offset="1" />
    </linearGradient>
    <linearGradient
       id="linearGradient9456">
      <stop
         id="stop9458"
         style="stop-color:#ffffff;stop-opacity:1"
         offset="0" />
      <stop
         id="stop9460"
         style="stop-color:#ffffff;stop-opacity:0"
         offset="1" />
    </linearGradient>
    <linearGradient
       id="linearGradient9310">
      <stop
         id="stop9312"
         style="stop-color:#2e3436;stop-opacity:1"
         offset="0" />
      <stop
         id="stop9314"
         style="stop-color:#888a85;stop-opacity:1"
         offset="1" />
    </linearGradient>
    <linearGradient
       id="linearGradient9461">
      <stop
         id="stop9463"
         style="stop-color:#000000;stop-opacity:1"
         offset="0" />
      <stop
         id="stop9465"
         style="stop-color:#000000;stop-opacity:0"
         offset="1" />
    </linearGradient>
    <linearGradient
       id="linearGradient9351">
      <stop
         id="stop9353"
         style="stop-color:#000000;stop-opacity:1"
         offset="0" />
      <stop
         id="stop9355"
         style="stop-color:#000000;stop-opacity:0"
         offset="1" />
    </linearGradient>
    <linearGradient
       id="linearGradient9309">
      <stop
         id="stop9311"
         style="stop-color:#000000;stop-opacity:1"
         offset="0" />
      <stop
         id="stop9313"
         style="stop-color:#888a85;stop-opacity:1"
         offset="1" />
    </linearGradient>
    <linearGradient
       id="linearGradient9063">
      <stop
         id="stop9065"
         style="stop-color:#000000;stop-opacity:1"
         offset="0" />
      <stop
         id="stop9067"
         style="stop-color:#000000;stop-opacity:0"
         offset="1" />
    </linearGradient>
    <linearGradient
       id="linearGradient9043">
      <stop
         id="stop9045"
         style="stop-color:#555753;stop-opacity:1"
         offset="0" />
      <stop
         id="stop9047"
         style="stop-color:#555753;stop-opacity:0"
         offset="1" />
    </linearGradient>
    <linearGradient
       id="linearGradient7134">
      <stop
         id="stop7136"
         style="stop-color:#f0f0ee;stop-opacity:1"
         offset="0" />
      <stop
         id="stop7138"
         style="stop-color:#a1a196;stop-opacity:1"
         offset="1" />
    </linearGradient>
    <linearGradient
       id="linearGradient3211">
      <stop
         id="stop3213"
         style="stop-color:#ffffff;stop-opacity:1"
         offset="0" />
      <stop
         id="stop3215"
         style="stop-color:#ffffff;stop-opacity:0"
         offset="1" />
    </linearGradient>
    <filter
       color-interpolation-filters="sRGB"
       id="filter9140">
      <feGaussianBlur
         stdDeviation="0.26164063"
         id="feGaussianBlur9142" />
    </filter>
    <clipPath
       id="clipPath9283">
      <path
         d="m 68,168 5.90625,79.5625 0.28125,3.78125 0.15625,2.40625 C 91.21882,257.57677 116.16005,260 144,260 c 27.83995,0 52.78118,-2.42323 69.65625,-6.25 L 214.125,247.5 220,168 68,168 z"
         id="path9285"
         style="fill:#000000;fill-opacity:1;stroke:none;display:inline;enable-background:new" />
    </clipPath>
    <filter
       color-interpolation-filters="sRGB"
       id="filter9295">
      <feGaussianBlur
         stdDeviation="1.225"
         id="feGaussianBlur9297" />
    </filter>
    <filter
       color-interpolation-filters="sRGB"
       id="filter9317">
      <feGaussianBlur
         stdDeviation="1.53"
         id="feGaussianBlur9319" />
    </filter>
    <clipPath
       id="clipPath9376">
      <path
         d="m 144,140 c -50.784,0 -92,28.672 -92,64 0,8.33697 0.761099,16.62716 3.8125,24 3.747157,9.05394 9.783043,15.12993 18.09375,19.5625 l 0.4375,6.1875 C 91.21882,257.57677 116.16005,260 144,260 c 27.83995,0 52.78118,-2.42323 69.65625,-6.25 l 0.46875,-6.25 c 8.27492,-4.42931 14.33455,-10.48829 18.0625,-19.5 3.05018,-7.37334 3.8125,-15.66303 3.8125,-24 0,-35.328 -41.21599,-64 -92,-64 z"
         id="path9378"
         style="fill:#000000;fill-opacity:1;stroke:none;display:inline;enable-background:new" />
    </clipPath>
    <filter
       x="-0.12538724"
       y="-0.12538724"
       width="1.2507745"
       height="1.2507745"
       color-interpolation-filters="sRGB"
       id="filter9455">
      <feGaussianBlur
         stdDeviation="0.4832633"
         id="feGaussianBlur9457" />
    </filter>
    <clipPath
       id="clipPath9301">
      <path
         d="m 81.875,56.125 a 4.625,4.625 0 1 1 -9.25,0 4.625,4.625 0 1 1 9.25,0 z"
         transform="matrix(12.10811,0,0,13.405405,-791.35149,-654.37837)"
         id="path9303"
         style="fill:#000000;fill-opacity:1;fill-rule:evenodd;stroke:none;stroke-width:0.08370943;marker:none;visibility:visible;display:inline;overflow:visible;enable-background:accumulate" />
    </clipPath>
    <filter
       color-interpolation-filters="sRGB"
       id="filter9305">
      <feGaussianBlur
         stdDeviation="0.093456904"
         id="feGaussianBlur9307" />
    </filter>
    <filter
       color-interpolation-filters="sRGB"
       id="filter9450">
      <feGaussianBlur
         stdDeviation="0.050101745"
         id="feGaussianBlur9452" />
    </filter>
    <filter
       x="-0.068370163"
       y="-0.23599523"
       width="1.1367403"
       height="1.4719905"
       color-interpolation-filters="sRGB"
       id="filter9535">
      <feGaussianBlur
         stdDeviation="5.15625"
         id="feGaussianBlur9537" />
    </filter>
    <filter
       x="-0.06284523"
       y="-1.3252766"
       width="1.1256905"
       height="3.6505532"
       color-interpolation-filters="sRGB"
       id="filter9093">
      <feGaussianBlur
         stdDeviation="3.4041165"
         id="feGaussianBlur9095" />
    </filter>
    <clipPath
       id="clipPath4072">
      <path
         d="m 514,31 c -28.6272,0 -51.87501,25.71185 -51.875,57.40625 0,16.36758 6.22095,31.13142 16.15625,41.59375 -29.2023,9.40337 -49.46875,29.96837 -49.46875,53.8125 10e-6,7.72076 0.70539,15.39086 3.53125,22.21875 3.47018,8.38473 9.05356,14.02005 16.75,18.125 L 449.5,229.875 c 15.62779,3.54391 38.71779,5.78125 64.5,5.78125 25.78221,0 48.87222,-2.23733 64.5,-5.78125 l 0.4375,-5.78125 c 7.6633,-4.10192 13.26634,-9.71687 16.71875,-18.0625 2.8247,-6.82836 3.53125,-14.49799 3.53125,-22.21875 C 599.18748,159.96837 578.92104,139.40337 549.71875,130 559.65404,119.53767 565.87501,104.77382 565.875,88.40625 565.875,56.711853 542.6272,31 514,31 z"
         id="path4074"
         style="fill:#666666;fill-opacity:1;stroke:none;display:inline;enable-background:new" />
    </clipPath>
    <filter
       x="-0.33528158"
       y="-0.18688914"
       width="1.6705632"
       height="1.3737783"
       color-interpolation-filters="sRGB"
       id="filter4850">
      <feGaussianBlur
         stdDeviation="17.209375"
         id="feGaussianBlur4852" />
    </filter>
    <radialGradient
       cx="141"
       cy="190.5"
       r="92"
       fx="141"
       fy="190.5"
       id="radialGradient6553"
       xlink:href="#linearGradient9664"
       gradientUnits="userSpaceOnUse"
       gradientTransform="matrix(1,0,0,0.5,0,95.25)" />
    <radialGradient
       cx="141"
       cy="190.5"
       r="92"
       fx="141"
       fy="190.5"
       id="radialGradient6555"
       xlink:href="#linearGradient9077"
       gradientUnits="userSpaceOnUse"
       gradientTransform="matrix(1,0,0,0.5,0,95.25)" />
    <radialGradient
       cx="-10.000003"
       cy="140.2"
       r="92"
       fx="-10.000003"
       fy="140.2"
       id="radialGradient6557"
       xlink:href="#linearGradient7134"
       gradientUnits="userSpaceOnUse"
       gradientTransform="matrix(1.6699735,0,0,0.4347826,160.69974,104.04348)" />
    <linearGradient
       x1="94"
       y1="253.75127"
       x2="91.5"
       y2="217.75064"
       id="linearGradient6559"
       xlink:href="#linearGradient9063"
       gradientUnits="userSpaceOnUse" />
    <linearGradient
       x1="216"
       y1="206.25993"
       x2="213.5"
       y2="233.13548"
       id="linearGradient6561"
       xlink:href="#linearGradient9043"
       gradientUnits="userSpaceOnUse"
       gradientTransform="matrix(1,0,0,1.0199626,0,-4.9419838)" />
    <radialGradient
       cx="144"
       cy="304.69858"
       r="92"
       fx="144"
       fy="304.69858"
       id="radialGradient6563"
       xlink:href="#linearGradient9456"
       gradientUnits="userSpaceOnUse"
       gradientTransform="matrix(2.8184263,-5.6306239e-8,0,0.6141303,-261.85339,72.875379)" />
    <linearGradient
       x1="151"
       y1="242.51463"
       x2="151"
       y2="202.48105"
       id="linearGradient6565"
       xlink:href="#linearGradient9351"
       gradientUnits="userSpaceOnUse" />
    <linearGradient
       x1="148.35579"
       y1="240.52495"
       x2="148.35579"
       y2="210.32419"
       id="linearGradient6567"
       xlink:href="#linearGradient9309"
       gradientUnits="userSpaceOnUse" />
    <linearGradient
       x1="79.340141"
       y1="60.75"
       x2="79.340141"
       y2="58.808712"
       id="linearGradient6569"
       xlink:href="#linearGradient9461"
       gradientUnits="userSpaceOnUse" />
    <radialGradient
       cx="77.25"
       cy="53.774418"
       r="5.0104723"
       fx="77.25"
       fy="53.774418"
       id="radialGradient6571"
       xlink:href="#linearGradient9243"
       gradientUnits="userSpaceOnUse"
       gradientTransform="matrix(1.5574363,2.29725e-7,-1.9448915e-7,1.0756976,-43.061944,-4.0706133)" />
    <linearGradient
       x1="77.114586"
       y1="54.003254"
       x2="77.114586"
       y2="56.299889"
       id="linearGradient6573"
       xlink:href="#linearGradient3211"
       gradientUnits="userSpaceOnUse" />
    <linearGradient
       x1="76.882446"
       y1="59.817539"
       x2="74.974693"
       y2="53.141129"
       id="linearGradient6575"
       xlink:href="#linearGradient9310"
       gradientUnits="userSpaceOnUse" />
    <radialGradient
       cx="141"
       cy="190.5"
       r="92"
       fx="141"
       fy="190.5"
       id="radialGradient6617"
       xlink:href="#linearGradient9664"
       gradientUnits="userSpaceOnUse"
       gradientTransform="matrix(1,0,0,0.5,0,95.25)" />
    <radialGradient
       cx="141"
       cy="190.5"
       r="92"
       fx="141"
       fy="190.5"
       id="radialGradient6619"
       xlink:href="#linearGradient9077"
       gradientUnits="userSpaceOnUse"
       gradientTransform="matrix(1,0,0,0.5,0,95.25)" />
    <radialGradient
       cx="-10.000003"
       cy="140.2"
       r="92"
       fx="-10.000003"
       fy="140.2"
       id="radialGradient6621"
       xlink:href="#linearGradient7134"
       gradientUnits="userSpaceOnUse"
       gradientTransform="matrix(1.6699735,0,0,0.4347826,160.69974,104.04348)" />
    <linearGradient
       x1="94"
       y1="253.75127"
       x2="91.5"
       y2="217.75064"
       id="linearGradient6623"
       xlink:href="#linearGradient9063"
       gradientUnits="userSpaceOnUse" />
    <linearGradient
       x1="216"
       y1="206.25993"
       x2="213.5"
       y2="233.13548"
       id="linearGradient6625"
       xlink:href="#linearGradient9043"
       gradientUnits="userSpaceOnUse"
       gradientTransform="matrix(1,0,0,1.0199626,0,-4.9419838)" />
    <radialGradient
       cx="144"
       cy="304.69858"
       r="92"
       fx="144"
       fy="304.69858"
       id="radialGradient6627"
       xlink:href="#linearGradient9456"
       gradientUnits="userSpaceOnUse"
       gradientTransform="matrix(2.8184263,-5.6306239e-8,0,0.6141303,-261.85339,72.875379)" />
    <linearGradient
       x1="151"
       y1="242.51463"
       x2="151"
       y2="202.48105"
       id="linearGradient6629"
       xlink:href="#linearGradient9351"
       gradientUnits="userSpaceOnUse" />
    <linearGradient
       x1="148.35579"
       y1="240.52495"
       x2="148.35579"
       y2="210.32419"
       id="linearGradient6631"
       xlink:href="#linearGradient9309"
       gradientUnits="userSpaceOnUse" />
    <linearGradient
       x1="79.340141"
       y1="60.75"
       x2="79.340141"
       y2="58.808712"
       id="linearGradient6633"
       xlink:href="#linearGradient9461"
       gradientUnits="userSpaceOnUse" />
    <radialGradient
       cx="77.25"
       cy="53.774418"
       r="5.0104723"
       fx="77.25"
       fy="53.774418"
       id="radialGradient6635"
       xlink:href="#linearGradient9243"
       gradientUnits="userSpaceOnUse"
       gradientTransform="matrix(1.5574363,2.29725e-7,-1.9448915e-7,1.0756976,-43.061944,-4.0706133)" />
    <linearGradient
       x1="77.114586"
       y1="54.003254"
       x2="77.114586"
       y2="56.299889"
       id="linearGradient6637"
       xlink:href="#linearGradient3211"
       gradientUnits="userSpaceOnUse" />
    <linearGradient
       x1="76.882446"
       y1="59.817539"
       x2="74.974693"
       y2="53.141129"
       id="linearGradient6639"
       xlink:href="#linearGradient9310"
       gradientUnits="userSpaceOnUse" />
  </defs>
  <g
     transform="translate(0,-44)"
     id="layer1"
     style="display:inline">
    <g
       id="layer6"
       style="display:none">
      <rect
         width="48"
         height="48"
         x="696"
         y="50"
         id="rect6284"
         style="fill:#eeeeec;fill-opacity:1;fill-rule:nonzero;stroke:none;stroke-width:2;marker:none;visibility:visible;display:inline;overflow:visible;enable-background:accumulate" />
      <rect
         width="32"
         height="32"
         x="703"
         y="126"
         id="rect6592"
         style="fill:#eeeeec;fill-opacity:1;fill-rule:nonzero;stroke:none;stroke-width:2;marker:none;visibility:visible;display:inline;overflow:visible;enable-background:accumulate" />
      <rect
         width="22"
         height="22"
         x="703"
         y="177"
         id="rect6749"
         style="fill:#eeeeec;fill-opacity:1;fill-rule:nonzero;stroke:none;stroke-width:2;marker:none;visibility:visible;display:inline;overflow:visible;enable-background:accumulate" />
      <rect
         width="16"
         height="16"
         x="703"
         y="219"
         id="rect6833"
         style="fill:#eeeeec;fill-opacity:1;fill-rule:nonzero;stroke:none;stroke-width:2;marker:none;visibility:visible;display:inline;overflow:visible;enable-background:accumulate" />
      <rect
         width="24"
         height="24"
         x="702"
         y="176"
         id="rect8104"
         style="fill:#eeeeec;fill-opacity:1;fill-rule:nonzero;stroke:none;stroke-width:2;marker:none;visibility:visible;display:inline;overflow:visible;enable-background:accumulate" />
      <rect
         width="256"
         height="256"
         x="420"
         y="30"
         id="rect6282"
         style="fill:#eeeeec;fill-opacity:1;fill-rule:nonzero;stroke:none;stroke-width:2;marker:none;visibility:visible;display:inline;overflow:visible;enable-background:accumulate" />
      <text
         x="420.97073"
         y="21.513618"
         id="context"
         xml:space="preserve"
         style="font-size:18.30070686px;font-style:normal;font-weight:normal;fill:#000000;fill-opacity:1;stroke:none;display:inline;enable-background:new;font-family:Bitstream Vera Sans"><tspan
           x="420.97073"
           y="21.513618"
           id="tspan2716">apps</tspan></text>
      <text
         x="591.9707"
         y="21.513618"
         id="icon-name"
         xml:space="preserve"
         style="font-size:18.30070686px;font-style:normal;font-variant:normal;font-weight:bold;font-stretch:normal;text-align:start;line-height:125%;writing-mode:lr-tb;text-anchor:start;fill:#000000;fill-opacity:1;stroke:none;display:inline;enable-background:new;font-family:Droid Sans;-inkscape-font-specification:Droid Sans Bold"><tspan
           x="591.9707"
           y="21.513618"
           id="tspan3023">user-info</tspan></text>
    </g>
    <g
       id="layer2"
       style="display:inline" />
    <g
       id="layer3"
       style="display:inline" />
    <g
       transform="translate(20,30)"
       id="g256"
       style="display:inline;enable-background:new" />
  </g>
  <g
     transform="translate(0,-44)"
     id="g4603"
     style="display:inline">
    <g
       id="g4605"
       style="display:none">
      <rect
         width="48"
         height="48"
         x="296"
         y="50"
         id="rect4607"
         style="fill:#eeeeec;fill-opacity:1;fill-rule:nonzero;stroke:none;stroke-width:2;marker:none;visibility:visible;display:inline;overflow:visible;enable-background:accumulate" />
      <rect
         width="32"
         height="32"
         x="303"
         y="126"
         id="rect4609"
         style="fill:#eeeeec;fill-opacity:1;fill-rule:nonzero;stroke:none;stroke-width:2;marker:none;visibility:visible;display:inline;overflow:visible;enable-background:accumulate" />
      <rect
         width="22"
         height="22"
         x="303"
         y="177"
         id="rect4611"
         style="fill:#eeeeec;fill-opacity:1;fill-rule:nonzero;stroke:none;stroke-width:2;marker:none;visibility:visible;display:inline;overflow:visible;enable-background:accumulate" />
      <rect
         width="16"
         height="16"
         x="303"
         y="219"
         id="rect4613"
         style="fill:#eeeeec;fill-opacity:1;fill-rule:nonzero;stroke:none;stroke-width:2;marker:none;visibility:visible;display:inline;overflow:visible;enable-background:accumulate" />
      <rect
         width="24"
         height="24"
         x="302"
         y="176"
         id="rect4615"
         style="fill:#eeeeec;fill-opacity:1;fill-rule:nonzero;stroke:none;stroke-width:2;marker:none;visibility:visible;display:inline;overflow:visible;enable-background:accumulate" />
      <rect
         width="256"
         height="256"
         x="20"
         y="30"
         id="rect4617"
         style="fill:#eeeeec;fill-opacity:1;fill-rule:nonzero;stroke:none;stroke-width:2;marker:none;visibility:visible;display:inline;overflow:visible;enable-background:accumulate" />
      <text
         x="20.970734"
         y="21.513618"
         id="text4619"
         xml:space="preserve"
         style="font-size:18.30070686px;font-style:normal;font-weight:normal;fill:#000000;fill-opacity:1;stroke:none;display:inline;enable-background:new;font-family:Bitstream Vera Sans"><tspan
           x="20.970734"
           y="21.513618"
           id="tspan4621">status</tspan></text>
      <text
         x="191.9707"
         y="21.513618"
         id="text4623"
         xml:space="preserve"
         style="font-size:18.30070686px;font-style:normal;font-variant:normal;font-weight:bold;font-stretch:normal;text-align:start;line-height:125%;writing-mode:lr-tb;text-anchor:start;fill:#000000;fill-opacity:1;stroke:none;display:inline;enable-background:new;font-family:Droid Sans;-inkscape-font-specification:Droid Sans Bold"><tspan
           x="191.9707"
           y="21.513618"
           id="tspan4625">avatar-default</tspan></text>
    </g>
    <g
       id="g4627"
       style="display:inline" />
    <g
       id="g4781"
       style="display:inline" />
    <g
       transform="translate(20,30)"
       id="g4843"
       style="display:inline;enable-background:new" />
  </g>
  <g
     transform="translate(0,-44)"
     id="layer23">
    <g
       id="layer24"
       style="display:none">
      <rect
         width="48"
         height="48"
         x="1096"
         y="50"
         id="rect9331"
         style="fill:#eeeeec;fill-opacity:1;fill-rule:nonzero;stroke:none;stroke-width:2;marker:none;visibility:visible;display:inline;overflow:visible;enable-background:accumulate" />
      <rect
         width="32"
         height="32"
         x="1103"
         y="126"
         id="rect9333"
         style="fill:#eeeeec;fill-opacity:1;fill-rule:nonzero;stroke:none;stroke-width:2;marker:none;visibility:visible;display:inline;overflow:visible;enable-background:accumulate" />
      <rect
         width="22"
         height="22"
         x="1103"
         y="177"
         id="rect9335"
         style="fill:#eeeeec;fill-opacity:1;fill-rule:nonzero;stroke:none;stroke-width:2;marker:none;visibility:visible;display:inline;overflow:visible;enable-background:accumulate" />
      <rect
         width="16"
         height="16"
         x="1103"
         y="219"
         id="rect9337"
         style="fill:#eeeeec;fill-opacity:1;fill-rule:nonzero;stroke:none;stroke-width:2;marker:none;visibility:visible;display:inline;overflow:visible;enable-background:accumulate" />
      <rect
         width="24"
         height="24"
         x="1102"
         y="176"
         id="rect9339"
         style="fill:#eeeeec;fill-opacity:1;fill-rule:nonzero;stroke:none;stroke-width:2;marker:none;visibility:visible;display:inline;overflow:visible;enable-background:accumulate" />
      <rect
         width="256"
         height="256"
         x="820"
         y="30"
         id="rect9341"
         style="fill:#eeeeec;fill-opacity:1;fill-rule:nonzero;stroke:none;stroke-width:2;marker:none;visibility:visible;display:inline;overflow:visible;enable-background:accumulate" />
      <text
         x="820.9707"
         y="21.513618"
         id="text9343"
         xml:space="preserve"
         style="font-size:18.30070686px;font-style:normal;font-weight:normal;fill:#000000;fill-opacity:1;stroke:none;display:inline;enable-background:new;font-family:Bitstream Vera Sans"><tspan
           x="820.9707"
           y="21.513618"
           id="tspan9345">apps</tspan></text>
      <text
         x="991.9707"
         y="21.513618"
         id="text9347"
         xml:space="preserve"
         style="font-size:18.30070686px;font-style:normal;font-variant:normal;font-weight:bold;font-stretch:normal;text-align:start;line-height:125%;writing-mode:lr-tb;text-anchor:start;fill:#000000;fill-opacity:1;stroke:none;display:inline;enable-background:new;font-family:Droid Sans;-inkscape-font-specification:Droid Sans Bold"><tspan
           x="991.9707"
           y="21.513618"
           id="tspan9349">system-users</tspan></text>
    </g>
    <g
       id="layer25" />
    <g
       id="layer26">
      <g
         transform="matrix(0.9260869,0,0,0.9260869,-38.134298,8.3826115)"
         id="use3914">
        <path
           d="m 233,190.5 a 92,46 0 1 1 -184,0 92,46 0 1 1 184,0 z"
           transform="matrix(1.1111111,0,0,0.4347827,-12.666665,166.1739)"
           id="path6515"
           style="opacity:0.74285715;fill:url(#radialGradient6553);fill-opacity:1;stroke:none;display:inline;enable-background:new" />
        <path
           d="m 233,190.5 a 92,46 0 1 1 -184,0 92,46 0 1 1 184,0 z"
           transform="matrix(0.8979469,0,0,0.3152174,17.389489,188.95108)"
           id="path6517"
           style="fill:url(#radialGradient6555);fill-opacity:1;stroke:none;display:inline;enable-background:new" />
        <g
           clip-path="url(#clipPath9376)"
           id="g6519"
           style="display:inline;enable-background:new">
          <g
             id="g6521">
            <path
               d="m 144,140 c -50.784,0 -92,28.672 -92,64 0,8.33697 0.761099,16.62716 3.8125,24 3.747157,9.05394 9.783043,15.12993 18.09375,19.5625 l 0.4375,6.1875 C 91.21882,257.57677 116.16005,260 144,260 c 27.83995,0 52.78118,-2.42323 69.65625,-6.25 l 0.46875,-6.25 c 8.27492,-4.42931 14.33455,-10.48829 18.0625,-19.5 3.05018,-7.37334 3.8125,-15.66303 3.8125,-24 0,-35.328 -41.21599,-64 -92,-64 z"
               id="path6523"
               style="fill:url(#radialGradient6557);fill-opacity:1;stroke:none" />
            <path
               d="M 68.1875,167.75 C 57.982406,178.05662 52,190.54759 52,204 c 0,8.33697 0.761099,16.62716 3.8125,24 3.747157,9.05394 9.783043,15.12993 18.09375,19.5625 l 0.4375,6.1875 c 0.01941,0.004 0.04306,-0.004 0.0625,0 l -6.21875,-86 z m 151.625,0 -6.21875,86 c 0.0194,-0.004 0.0431,0.004 0.0625,0 l 0.46875,-6.25 c 8.27492,-4.42931 14.33455,-10.48829 18.0625,-19.5 3.05018,-7.37334 3.8125,-15.66303 3.8125,-24 0,-13.45241 -5.98241,-25.94338 -16.1875,-36.25 z"
               id="path6525"
               style="opacity:0.63061218;fill:url(#linearGradient6559);fill-opacity:1;stroke:none;display:inline;enable-background:new" />
            <path
               d="m 217.71875,197.8712 -3.59375,49.62755 c 3.30582,-1.80482 6.16904,-3.92321 8.6875,-6.37476 l -5.09375,-43.25279 z"
               transform="matrix(1,0,0,1.0244648,0,-6.0565749)"
               id="path6527"
               style="opacity:0.8;fill:url(#linearGradient6561);fill-opacity:1;stroke:none;display:inline;filter:url(#filter9140);enable-background:new" />
            <path
               d="M 144,141 C 98.894192,141 61.334828,163.62601 53.5,193.4375 66.691065,176.87362 102.23058,170 144,170 c 41.76942,0 77.30894,6.87362 90.5,23.4375 C 226.66517,163.62601 189.10582,141 144,141 z"
               id="path6529"
               style="fill:#ffffff;fill-opacity:1;stroke:none;display:inline;filter:url(#filter9535);enable-background:new" />
          </g>
          <path
             d="M 52.40625,198 C 52.140728,199.97949 52,201.97251 52,204 c 0,8.33697 0.761099,16.62716 3.8125,24 3.747157,9.05394 9.783043,15.12993 18.09375,19.5625 l 0.4375,6.1875 C 91.21882,257.57677 116.16005,260 144,260 c 27.83995,0 52.78118,-2.42323 69.65625,-6.25 l 0.46875,-6.25 c 8.27492,-4.42931 14.33455,-10.48829 18.0625,-19.5 3.05018,-7.37334 3.8125,-15.66303 3.8125,-24 0,-2.02749 -0.14073,-4.02051 -0.40625,-6 l -183.1875,0 z"
             id="path6531"
             style="opacity:0.5;fill:url(#radialGradient6563);fill-opacity:1;stroke:none;display:inline;enable-background:new" />
          <g
             id="g6533">
            <path
               d="m 68,168 5.90625,79.5625 0.28125,3.78125 0.15625,2.40625 C 91.21882,257.57677 116.16005,260 144,260 c 27.83995,0 52.78118,-2.42323 69.65625,-6.25 L 214.125,247.5 220,168 68,168 z"
               clip-path="url(#clipPath9283)"
               id="path6535"
               style="fill:none;stroke:url(#linearGradient6565);stroke-width:2;stroke-linejoin:round;stroke-miterlimit:4;stroke-dasharray:none;display:inline;filter:url(#filter9295);enable-background:new" />
            <path
               d="m 215.125,247.5 c 8.27492,-4.42931 13.33455,-10.48829 17.0625,-19.5 3.05018,-7.37334 3.8125,-15.66303 3.8125,-24 0,-35.328 -41.21599,-64 -92,-64 -50.784,0 -92,28.672 -92,64 0,8.33697 0.761099,16.62716 3.8125,24 3.747157,9.05394 8.783043,15.12993 17.09375,19.5625"
               id="path6537"
               style="fill:none;stroke:url(#linearGradient6567);stroke-width:3;stroke-linejoin:round;stroke-miterlimit:4;stroke-dasharray:none;display:inline;filter:url(#filter9317);enable-background:new" />
          </g>
          <path
             d="m 81.875,56.125 a 4.625,4.625 0 1 1 -9.25,0 4.625,4.625 0 1 1 9.25,0 z"
             transform="matrix(12.594595,0,0,12.378379,-822.68249,-587.48651)"
             id="path6539"
             style="fill:url(#linearGradient6569);fill-opacity:1;fill-rule:evenodd;stroke:none;stroke-width:0.08370943;marker:none;visibility:visible;display:inline;overflow:visible;filter:url(#filter9455);enable-background:accumulate" />
        </g>
        <g
           transform="translate(0,3)"
           clip-path="url(#clipPath9301)"
           id="g6541"
           style="display:inline;enable-background:new">
          <g
             transform="matrix(4.3348958,0,0,4.77626,-1501.0266,-209.97741)"
             id="g6543"
             style="stroke:none">
            <path
               d="m 81.875,56.125 a 4.625,4.625 0 1 1 -9.25,0 4.625,4.625 0 1 1 9.25,0 z"
               transform="matrix(2.793172,0,0,2.8066741,163.71215,-93.043712)"
               id="path6545"
               style="fill:url(#radialGradient6571);fill-opacity:1;fill-rule:evenodd;stroke:none;stroke-width:0.08370943;marker:none;visibility:visible;display:inline;overflow:visible;enable-background:accumulate" />
            <path
               d="m 79.3125,54.5 a 2.25,1.1875 0 1 1 -4.5,0 2.25,1.1875 0 1 1 4.5,0 z"
               transform="matrix(3.3401453,0,0,4.3498222,122.08472,-179.2981)"
               id="path6547"
               style="opacity:0.9;fill:url(#linearGradient6573);fill-opacity:1;fill-rule:evenodd;stroke:none;stroke-width:1;marker:none;visibility:visible;display:inline;overflow:visible;filter:url(#filter9450);enable-background:accumulate" />
          </g>
          <path
             d="m 81.875,56.125 a 4.625,4.625 0 1 1 -9.25,0 4.625,4.625 0 1 1 9.25,0 z"
             transform="matrix(12.10811,0,0,13.405405,-791.35149,-654.37837)"
             id="path6549"
             style="fill:none;stroke:url(#linearGradient6575);stroke-width:0.23547408;stroke-linecap:butt;stroke-linejoin:round;stroke-miterlimit:4;stroke-opacity:1;stroke-dasharray:none;stroke-dashoffset:0;marker:none;visibility:visible;display:inline;overflow:visible;filter:url(#filter9305);enable-background:accumulate" />
        </g>
        <path
           d="m 79.5,247 c 0,0 13.311405,6.16466 65,6.16466 56.18431,0 65,-6.16466 65,-6.16466 0,0 -45.5,3.35 -65,3.5 -19.5,0.15 -65,-3.5 -65,-3.5 z"
           id="path6551"
           style="fill:#ffffff;fill-rule:evenodd;stroke:none;filter:url(#filter9093)" />
      </g>
      <path
         d="m 568,63 c -30.912,0 -56,27.776002 -56,62 0,17.66789 6.6844,33.60958 17.40625,44.90625 C 497.88674,180.06383 476,202.25965 476,228 c 0,8.33697 0.7611,16.62716 3.8125,24 3.74716,9.05394 9.78304,15.12993 18.09375,19.5625 l 0.4375,6.1875 c 16.87507,3.82677 41.8163,6.25 69.65625,6.25 27.83995,0 52.78118,-2.42323 69.65625,-6.25 l 0.46875,-6.25 c 8.27492,-4.42931 14.33455,-10.48829 18.0625,-19.5 C 659.23768,244.62666 660,236.33697 660,228 660,202.25965 638.11326,180.06383 606.59375,169.90625 617.3156,158.60958 624.00001,142.66789 624,125 624,90.776001 598.91201,62.999999 568,63 z"
         transform="translate(-418.77778,13.500002)"
         clip-path="url(#clipPath4072)"
         id="path4063"
         style="opacity:0.3;fill:#000000;fill-opacity:1;stroke:none;display:inline;filter:url(#filter4850);enable-background:new" />
      <g
         transform="translate(9.2222225,30.500002)"
         id="use3917">
        <path
           d="m 233,190.5 a 92,46 0 1 1 -184,0 92,46 0 1 1 184,0 z"
           transform="matrix(1.1111111,0,0,0.4347827,-12.666665,166.1739)"
           id="path6579"
           style="opacity:0.74285715;fill:url(#radialGradient6617);fill-opacity:1;stroke:none;display:inline;enable-background:new" />
        <path
           d="m 233,190.5 a 92,46 0 1 1 -184,0 92,46 0 1 1 184,0 z"
           transform="matrix(0.8979469,0,0,0.3152174,17.389489,188.95108)"
           id="path6581"
           style="fill:url(#radialGradient6619);fill-opacity:1;stroke:none;display:inline;enable-background:new" />
        <g
           clip-path="url(#clipPath9376)"
           id="g6583"
           style="display:inline;enable-background:new">
          <g
             id="g6585">
            <path
               d="m 144,140 c -50.784,0 -92,28.672 -92,64 0,8.33697 0.761099,16.62716 3.8125,24 3.747157,9.05394 9.783043,15.12993 18.09375,19.5625 l 0.4375,6.1875 C 91.21882,257.57677 116.16005,260 144,260 c 27.83995,0 52.78118,-2.42323 69.65625,-6.25 l 0.46875,-6.25 c 8.27492,-4.42931 14.33455,-10.48829 18.0625,-19.5 3.05018,-7.37334 3.8125,-15.66303 3.8125,-24 0,-35.328 -41.21599,-64 -92,-64 z"
               id="path6587"
               style="fill:url(#radialGradient6621);fill-opacity:1;stroke:none" />
            <path
               d="M 68.1875,167.75 C 57.982406,178.05662 52,190.54759 52,204 c 0,8.33697 0.761099,16.62716 3.8125,24 3.747157,9.05394 9.783043,15.12993 18.09375,19.5625 l 0.4375,6.1875 c 0.01941,0.004 0.04306,-0.004 0.0625,0 l -6.21875,-86 z m 151.625,0 -6.21875,86 c 0.0194,-0.004 0.0431,0.004 0.0625,0 l 0.46875,-6.25 c 8.27492,-4.42931 14.33455,-10.48829 18.0625,-19.5 3.05018,-7.37334 3.8125,-15.66303 3.8125,-24 0,-13.45241 -5.98241,-25.94338 -16.1875,-36.25 z"
               id="path6589"
               style="opacity:0.63061218;fill:url(#linearGradient6623);fill-opacity:1;stroke:none;display:inline;enable-background:new" />
            <path
               d="m 217.71875,197.8712 -3.59375,49.62755 c 3.30582,-1.80482 6.16904,-3.92321 8.6875,-6.37476 l -5.09375,-43.25279 z"
               transform="matrix(1,0,0,1.0244648,0,-6.0565749)"
               id="path6591"
               style="opacity:0.8;fill:url(#linearGradient6625);fill-opacity:1;stroke:none;display:inline;filter:url(#filter9140);enable-background:new" />
            <path
               d="M 144,141 C 98.894192,141 61.334828,163.62601 53.5,193.4375 66.691065,176.87362 102.23058,170 144,170 c 41.76942,0 77.30894,6.87362 90.5,23.4375 C 226.66517,163.62601 189.10582,141 144,141 z"
               id="path6593"
               style="fill:#ffffff;fill-opacity:1;stroke:none;display:inline;filter:url(#filter9535);enable-background:new" />
          </g>
          <path
             d="M 52.40625,198 C 52.140728,199.97949 52,201.97251 52,204 c 0,8.33697 0.761099,16.62716 3.8125,24 3.747157,9.05394 9.783043,15.12993 18.09375,19.5625 l 0.4375,6.1875 C 91.21882,257.57677 116.16005,260 144,260 c 27.83995,0 52.78118,-2.42323 69.65625,-6.25 l 0.46875,-6.25 c 8.27492,-4.42931 14.33455,-10.48829 18.0625,-19.5 3.05018,-7.37334 3.8125,-15.66303 3.8125,-24 0,-2.02749 -0.14073,-4.02051 -0.40625,-6 l -183.1875,0 z"
             id="path6595"
             style="opacity:0.5;fill:url(#radialGradient6627);fill-opacity:1;stroke:none;display:inline;enable-background:new" />
          <g
             id="g6597">
            <path
               d="m 68,168 5.90625,79.5625 0.28125,3.78125 0.15625,2.40625 C 91.21882,257.57677 116.16005,260 144,260 c 27.83995,0 52.78118,-2.42323 69.65625,-6.25 L 214.125,247.5 220,168 68,168 z"
               clip-path="url(#clipPath9283)"
               id="path6599"
               style="fill:none;stroke:url(#linearGradient6629);stroke-width:2;stroke-linejoin:round;stroke-miterlimit:4;stroke-dasharray:none;display:inline;filter:url(#filter9295);enable-background:new" />
            <path
               d="m 215.125,247.5 c 8.27492,-4.42931 13.33455,-10.48829 17.0625,-19.5 3.05018,-7.37334 3.8125,-15.66303 3.8125,-24 0,-35.328 -41.21599,-64 -92,-64 -50.784,0 -92,28.672 -92,64 0,8.33697 0.761099,16.62716 3.8125,24 3.747157,9.05394 8.783043,15.12993 17.09375,19.5625"
               id="path6601"
               style="fill:none;stroke:url(#linearGradient6631);stroke-width:3;stroke-linejoin:round;stroke-miterlimit:4;stroke-dasharray:none;display:inline;filter:url(#filter9317);enable-background:new" />
          </g>
          <path
             d="m 81.875,56.125 a 4.625,4.625 0 1 1 -9.25,0 4.625,4.625 0 1 1 9.25,0 z"
             transform="matrix(12.594595,0,0,12.378379,-822.68249,-587.48651)"
             id="path6603"
             style="fill:url(#linearGradient6633);fill-opacity:1;fill-rule:evenodd;stroke:none;stroke-width:0.08370943;marker:none;visibility:visible;display:inline;overflow:visible;filter:url(#filter9455);enable-background:accumulate" />
        </g>
        <g
           transform="translate(0,3)"
           clip-path="url(#clipPath9301)"
           id="g6605"
           style="display:inline;enable-background:new">
          <g
             transform="matrix(4.3348958,0,0,4.77626,-1501.0266,-209.97741)"
             id="g6607"
             style="stroke:none">
            <path
               d="m 81.875,56.125 a 4.625,4.625 0 1 1 -9.25,0 4.625,4.625 0 1 1 9.25,0 z"
               transform="matrix(2.793172,0,0,2.8066741,163.71215,-93.043712)"
               id="path6609"
               style="fill:url(#radialGradient6635);fill-opacity:1;fill-rule:evenodd;stroke:none;stroke-width:0.08370943;marker:none;visibility:visible;display:inline;overflow:visible;enable-background:accumulate" />
            <path
               d="m 79.3125,54.5 a 2.25,1.1875 0 1 1 -4.5,0 2.25,1.1875 0 1 1 4.5,0 z"
               transform="matrix(3.3401453,0,0,4.3498222,122.08472,-179.2981)"
               id="path6611"
               style="opacity:0.9;fill:url(#linearGradient6637);fill-opacity:1;fill-rule:evenodd;stroke:none;stroke-width:1;marker:none;visibility:visible;display:inline;overflow:visible;filter:url(#filter9450);enable-background:accumulate" />
          </g>
          <path
             d="m 81.875,56.125 a 4.625,4.625 0 1 1 -9.25,0 4.625,4.625 0 1 1 9.25,0 z"
             transform="matrix(12.10811,0,0,13.405405,-791.35149,-654.37837)"
             id="path6613"
             style="fill:none;stroke:url(#linearGradient6639);stroke-width:0.23547408;stroke-linecap:butt;stroke-linejoin:round;stroke-miterlimit:4;stroke-opacity:1;stroke-dasharray:none;stroke-dashoffset:0;marker:none;visibility:visible;display:inline;overflow:visible;filter:url(#filter9305);enable-background:accumulate" />
        </g>
        <path
           d="m 79.5,247 c 0,0 13.311405,6.16466 65,6.16466 56.18431,0 65,-6.16466 65,-6.16466 0,0 -45.5,3.35 -65,3.5 -19.5,0.15 -65,-3.5 -65,-3.5 z"
           id="path6615"
           style="fill:#ffffff;fill-rule:evenodd;stroke:none;filter:url(#filter9093)" />
      </g>
    </g>
  </g>
</svg>
