<?xml version="1.0" encoding="UTF-8" standalone="no"?>
<!-- Created with Inkscape (http://www.inkscape.org/) -->

<svg
   xmlns:dc="http://purl.org/dc/elements/1.1/"
   xmlns:cc="http://creativecommons.org/ns#"
   xmlns:rdf="http://www.w3.org/1999/02/22-rdf-syntax-ns#"
   xmlns:svg="http://www.w3.org/2000/svg"
   xmlns="http://www.w3.org/2000/svg"
   xmlns:xlink="http://www.w3.org/1999/xlink"
   version="1.0"
   width="256"
   height="256"
   id="svg11300"
   style="display:inline;enable-background:new">
  <metadata
     id="metadata205">
    <rdf:RDF>
      <cc:Work
         rdf:about="">
        <dc:format>image/svg+xml</dc:format>
        <dc:type
           rdf:resource="http://purl.org/dc/dcmitype/StillImage" />
        <dc:creator>
          <cc:Agent>
            <dc:title>Lapo Calamandrei</dc:title>
          </cc:Agent>
        </dc:creator>
        <dc:title></dc:title>
        <dc:description>Based of Jakub Steiner work</dc:description>
        <dc:contributor>
          <cc:Agent>
            <dc:title>Jakub Steiner</dc:title>
          </cc:Agent>
        </dc:contributor>
        <dc:subject>
          <rdf:Bag>
            <rdf:li>photo</rdf:li>
            <rdf:li>picture</rdf:li>
            <rdf:li>pic</rdf:li>
            <rdf:li>image</rdf:li>
          </rdf:Bag>
        </dc:subject>
      </cc:Work>
    </rdf:RDF>
  </metadata>
  <defs
     id="defs3">
    <linearGradient
       id="linearGradient9708">
      <stop
         id="stop9710"
         style="stop-color:#888a85;stop-opacity:1"
         offset="0" />
      <stop
         id="stop9712"
         style="stop-color:#d3d7cf;stop-opacity:1"
         offset="1" />
    </linearGradient>
    <linearGradient
       id="linearGradient3989">
      <stop
         id="stop3991"
         style="stop-color:#555753;stop-opacity:1"
         offset="0" />
      <stop
         id="stop3993"
         style="stop-color:#888a85;stop-opacity:1"
         offset="1" />
    </linearGradient>
    <linearGradient
       id="linearGradient3983">
      <stop
         id="stop3985"
         style="stop-color:#555753;stop-opacity:1"
         offset="0" />
      <stop
         id="stop3987"
         style="stop-color:#888a85;stop-opacity:1"
         offset="1" />
    </linearGradient>
    <linearGradient
       id="linearGradient3977">
      <stop
         id="stop3979"
         style="stop-color:#555753;stop-opacity:1"
         offset="0" />
      <stop
         id="stop3981"
         style="stop-color:#888a85;stop-opacity:1"
         offset="1" />
    </linearGradient>
    <linearGradient
       id="linearGradient3971">
      <stop
         id="stop3973"
         style="stop-color:#888a85;stop-opacity:1"
         offset="0" />
      <stop
         id="stop3975"
         style="stop-color:#2e3436;stop-opacity:1"
         offset="1" />
    </linearGradient>
    <linearGradient
       id="linearGradient3965">
      <stop
         id="stop3967"
         style="stop-color:#555753;stop-opacity:1"
         offset="0" />
      <stop
         id="stop3969"
         style="stop-color:#888a85;stop-opacity:1"
         offset="1" />
    </linearGradient>
    <linearGradient
       id="linearGradient9510">
      <stop
         id="stop9512"
         style="stop-color:#ffffff;stop-opacity:1"
         offset="0" />
      <stop
         id="stop9514"
         style="stop-color:#f9f9f9;stop-opacity:1"
         offset="0.12802799" />
      <stop
         id="stop9518"
         style="stop-color:#eeeeec;stop-opacity:1"
         offset="0.32319549" />
      <stop
         id="stop10294"
         style="stop-color:#989994;stop-opacity:1"
         offset="0.86810809" />
      <stop
         id="stop9520"
         style="stop-color:#bec0bd;stop-opacity:1"
         offset="1" />
    </linearGradient>
    <linearGradient
       id="linearGradient8422">
      <stop
         id="stop8424"
         style="stop-color:#000000;stop-opacity:1"
         offset="0" />
      <stop
         id="stop8426"
         style="stop-color:#000000;stop-opacity:0"
         offset="1" />
    </linearGradient>
    <linearGradient
       id="linearGradient8294">
      <stop
         id="stop8296"
         style="stop-color:#ffffff;stop-opacity:1"
         offset="0" />
      <stop
         id="stop8298"
         style="stop-color:#eeeeec;stop-opacity:1"
         offset="1" />
    </linearGradient>
    <linearGradient
       id="linearGradient8276">
      <stop
         id="stop8278"
         style="stop-color:#ffffff;stop-opacity:0"
         offset="0" />
      <stop
         id="stop8284"
         style="stop-color:#ffffff;stop-opacity:1"
         offset="0.14069583" />
      <stop
         id="stop8280"
         style="stop-color:#ffffff;stop-opacity:0"
         offset="1" />
    </linearGradient>
    <linearGradient
       id="linearGradient4621-8">
      <stop
         id="stop4623-2"
         style="stop-color:#000000;stop-opacity:1"
         offset="0" />
      <stop
         id="stop4625-3"
         style="stop-color:#000000;stop-opacity:0"
         offset="1" />
    </linearGradient>
    <filter
       color-interpolation-filters="sRGB"
       id="filter4412-3">
      <feGaussianBlur
         id="feGaussianBlur4414-08"
         stdDeviation="0.5940625" />
    </filter>
    <clipPath
       id="clipPath4396-4">
      <path
         d="m 79.40625,432.78125 c 4.95211,3.15625 10.09773,2.36004 13.8125,6.28125 0.20853,0.22012 0.41543,0.41335 0.625,0.625 -0.91227,0.0132 -3.36173,-0.64471 -5.8125,-0.21875 -2.03999,0.35455 -4.02605,-0.55433 -6.4375,1.03125 2.8086,-1.17696 5.05872,-0.41657 7.3125,-0.71875 1.75702,-0.23558 4.85952,0.60574 6.84375,1.75 3.19912,2.92004 6.06811,5.00342 6.65625,7.03125 0.75156,2.59125 0.93062,10.17703 0.96875,13.3125 -0.33977,-0.27402 -0.66062,-0.5645 -0.96875,-0.875 -0.68906,-0.71321 -1.34766,-1.47779 -2.15625,-2.0625 -0.77698,-0.56343 -1.58267,-1.08104 -2.21875,-1.8125 -0.66486,-0.8969 -1.44709,-1.69706 -2.1875,-2.53125 -0.70592,-0.72238 -1.45646,-1.39671 -2.125,-2.15625 -0.61554,-0.75741 -1.33614,-1.42319 -2.1875,-1.90625 -0.77581,-0.47272 -1.5828,-1.00327 -2.53125,-0.96875 -0.47451,-0.0791 -0.95887,-0.19127 -1.3125,-0.53125 -0.59769,-0.44175 -1.32432,-0.71337 -2.0625,-0.78125 l 0.125,0.0625 c 0.9109,0.24481 1.68179,0.8215 2.40625,1.40625 0.82464,0.41098 1.87022,0.34115 2.53125,1.0625 0.70456,0.74408 1.76065,1.14357 2.28125,2.0625 0.20942,0.35023 0.44974,0.66458 0.71875,0.96875 -0.70331,0.27896 -1.37908,1.26201 -1.875,1.59375 -1.29807,0.86836 -4.60919,-2.74752 -7.5,-2.40625 2.08544,-0.0469 5.75517,2.50843 6.46875,2.71875 0.55836,0.16459 -1.66639,2.10357 -3.375,3.03125 1.51744,-0.43138 3.97727,-2.51723 4.4375,-2.625 0.57771,-0.13527 1.16213,-1.94726 2.4375,-1.6875 0.26687,0.28232 0.53984,0.57255 0.78125,0.875 0.69303,0.78032 1.38577,1.54029 1.96875,2.40625 0.85162,1.06177 1.95474,1.87787 2.875,2.875 0.7471,0.7803 1.39506,1.64575 2.09375,2.46875 0.93323,1.12487 1.87928,2.25013 2.8125,3.375 0.42144,0.87267 1.03174,1.61036 1.65625,2.34375 0.66563,0.75999 1.30957,1.55781 1.8125,2.4375 0.59909,0.89138 1.1135,1.84141 1.5,2.84375 0.30827,0.94828 0.48395,1.92145 0.625,2.90625 0.19051,1.03702 0.34872,2.0991 0.25,3.15625 -0.14578,1.5715 -0.30651,3.14619 -0.4375,4.71875 -0.0217,0.7843 -0.12135,1.62135 0.25,2.34375 0.88575,0.56065 1.94401,0.69175 2.96875,0.75 0.86591,-0.0236 1.72648,-0.22461 2.46875,-0.6875 0.31904,-0.16231 0.63392,-0.49478 0.46875,-0.875 -0.18667,-1.01745 -0.40295,-2.03142 -0.5,-3.0625 -0.1344,-1.15271 -0.25974,-2.31102 -0.34375,-3.46875 -0.099,-1.09509 -0.14847,-2.18257 -0.1875,-3.28125 0.0322,-1.00198 0.0767,-2.03591 0.375,-3 0.32471,-0.94223 0.65194,-2.18347 1.25,-2.96875 0.85084,-1.04281 2.1162,-1.51624 3.09375,-2.4375 0.82415,-0.71738 1.68863,-1.38982 2.46875,-2.15625 0.75889,-0.71303 1.63356,-2.17099 2.3125,-2.96875 0.7624,-0.80646 1.48992,-0.89854 2.21875,-1.625 0.18969,-0.12973 0.38766,-0.25786 0.59375,-0.375 0.52915,-0.26792 1.04107,-0.57592 1.71875,-0.625 0.70029,0.0397 1.39399,-0.19008 2.09375,-0.0937 0.70007,0.0559 1.02933,0.72896 1.78125,0.65625 0.66535,-0.12321 1.35216,-0.12021 2.03125,-0.0625 -0.21541,-0.0835 -0.44604,-0.15445 -0.6875,-0.1875 -0.48981,-0.0904 -0.98368,0.0758 -1.46875,0.0313 -0.63207,-0.054 -0.8309,-0.55639 -1.375,-0.71875 -0.66242,-0.11588 -1.35944,0.10128 -2.03125,0.0625 -0.5382,-0.0737 -1.05528,0.0455 -1.59375,0.0313 0.76409,-1.1233 1.44323,-2.44724 2.25,-3.375 1.3398,-1.24472 2.98696,-2.48222 4.03125,-2.96875 1.39189,-0.64849 2.38459,0.15819 4.21875,-0.75 -2.03978,0.86066 -3.28052,-0.27726 -5.6875,1.125 -1.32634,0.76242 -2.21246,1.18656 -2.96875,1.71875 -1.58811,-1.34506 -0.70451,-6.06166 -2.09375,-8.78125 0.0827,-0.0958 0.125,-0.20732 0.125,-0.34375 1.54418,-0.65828 3.85538,-0.62579 5.34375,-0.34375 1.80941,0.34285 1.14282,0.69721 2.0625,0.75 0.8083,0.0464 2.21338,0.8335 3.34375,1.28125 1.22261,0.48428 1.53834,-0.0211 3.84375,1.21875 -1.65524,-1.12051 -3.34913,-1.13223 -3.59375,-1.40625 0.7457,-2.42944 3.79609,-2.88736 5.0625,-5.1875 -1.76435,2.59269 -4.05299,2.33985 -5.28125,5.09375 -1.22654,-0.34407 -2.44261,-0.89298 -3.0625,-1.28125 1.49793,-1.8748 -1.68651,-7.18964 -1.78125,-9 -0.11059,2.41309 2.83075,5.84705 1.25,8.8125 -3.16781,-1.25867 -5.75024,-0.78886 -7.4375,-0.40625 -0.0628,-0.0425 -0.14103,-0.0804 -0.21875,-0.0937 -1.38487,-2.04113 -0.95284,-3.54566 -2.5,-5.78125 0.85981,2.03517 1.03075,4.21454 1.875,5.96875 0.0201,0.0419 0.0431,0.0827 0.0625,0.125 -0.0386,0.0749 -0.0625,0.16002 -0.0625,0.25 0,0.22641 0.14749,0.41694 0.34375,0.5 0.92516,2.72077 0.58242,6.13236 0.8125,8.65625 -2.33949,-3.83923 -5.15618,-3.90227 -6.78125,-10.25 1.34906,7.76942 7.42824,8.46368 5.875,13.34375 -1.18921,1.23925 -3.11722,3.33597 -4.03125,4.25 -0.76285,0.67868 -1.59581,1.26835 -2.4375,1.84375 -0.87643,0.65389 -0.79689,1.13319 -1.71875,1.71875 -0.68733,0.46263 -2.24808,0.96188 -2.84375,1.4375 -0.77914,0.62211 -1.21036,1.46972 -1.875,2.3125 -0.35417,0.47917 -1.23958,0.61458 -1.5625,1.25 -0.32894,-1.33239 -1.28622,-3.80883 -3.09375,-4.84375 -0.89341,-0.51154 -1.89485,-1.4387 -2.625,-2.21875 -0.16244,-0.16986 -0.32136,-0.31728 -0.5,-0.46875 -1.2415,-3.00067 -1.37508,-6.70906 -1.65625,-10.0625 0.097,-0.0922 0.17429,-0.19076 0.28125,-0.28125 0.53668,-0.40499 1.03141,-0.85932 1.9375,-1.125 1.00361,-0.19673 1.64252,0.33535 2.6875,0.1875 1.01534,-0.18272 1.85205,-1.06453 2.84375,-1.375 0.83379,-0.32538 2.07498,-0.13823 3.0625,-0.3125 -1.14808,0.056 -2.26509,-0.14799 -3.375,0.1875 -0.91936,0.16193 -1.46612,1.11655 -2.34375,1.15625 -1.0076,0.1187 -1.63048,-0.40688 -2.59375,-0.21875 -0.80343,0.11401 -1.45915,0.39725 -2.21875,0.5625 -0.096,-0.0611 -0.4129,0.0496 -0.40625,-0.0625 -0.0616,-0.56577 -0.12813,-1.12745 -0.21875,-1.65625 -0.06,-3.89672 4.27346,-2.57015 5.15625,-3.25 0.58133,-0.44768 3.85453,-3.04945 6.75,-3.65625 -3.43517,0.61964 -6.89928,3.23605 -6.5625,2.40625 0.43039,-1.06043 0.76035,-7.91801 2.84375,-10.375 -3.23258,3.13778 -1.93744,10.59758 -4.28125,11.3125 -1.14933,0.35058 -3.94816,-0.0106 -4.4375,1.375 -0.10489,-0.29885 -0.21204,-0.57258 -0.34375,-0.84375 -0.84843,-1.74675 -3.20807,-3.66898 -5.71875,-5.84375 -0.24719,-1.22331 1.70858,-1.61353 1.90625,-2.125 0.15296,-0.39577 2.42162,-2.38883 3,-3.6875 -1.08179,1.42622 -3.17911,3.22298 -3.28125,2.71875 -0.13053,-0.6444 -2.23183,-4.07697 -1.96875,-5.90625 -0.63373,2.51321 2.51245,5.71105 1.53125,6.78125 -0.40432,0.441 -1.56827,1.00067 -1.8125,1.65625 -1.21315,-1.06576 -2.41928,-2.18039 -3.53125,-3.40625 -3.25105,-3.58405 -5.7455,-2.03174 -14.3125,-5.65625 l 0,-2e-4 z"
         id="path4398-9"
         style="fill:#000000;fill-opacity:1;fill-rule:evenodd;stroke:none;display:inline" />
    </clipPath>
    <linearGradient
       id="linearGradient4610-7">
      <stop
         id="stop4612-57"
         style="stop-color:#000000;stop-opacity:1"
         offset="0" />
      <stop
         id="stop4614-0"
         style="stop-color:#000000;stop-opacity:0"
         offset="1" />
    </linearGradient>
    <linearGradient
       id="linearGradient4616-1">
      <stop
         id="stop4618-9"
         style="stop-color:#2e3436;stop-opacity:1"
         offset="0" />
      <stop
         id="stop4620-2"
         style="stop-color:#2e3436;stop-opacity:0"
         offset="1" />
    </linearGradient>
    <filter
       x="-0.11114702"
       y="-0.20272098"
       width="1.222294"
       height="1.405442"
       color-interpolation-filters="sRGB"
       id="filter4616-8">
      <feGaussianBlur
         id="feGaussianBlur4618-0"
         stdDeviation="0.83939158" />
    </filter>
    <filter
       color-interpolation-filters="sRGB"
       id="filter4608-6">
      <feGaussianBlur
         id="feGaussianBlur4610-1"
         stdDeviation="0.84057318" />
    </filter>
    <filter
       x="-0.30265486"
       y="-0.30265486"
       width="1.6053097"
       height="1.6053097"
       color-interpolation-filters="sRGB"
       id="filter4709-1">
      <feGaussianBlur
         id="feGaussianBlur4711-29"
         stdDeviation="3.5333828" />
    </filter>
    <clipPath
       id="clipPath4719-3">
      <rect
         width="92"
         height="56"
         x="84"
         y="428"
         id="rect4721-9"
         style="fill:#000000;fill-opacity:1;stroke:none" />
    </clipPath>
    <linearGradient
       id="linearGradient2065-5">
      <stop
         id="stop2067-7"
         style="stop-color:#555753;stop-opacity:1"
         offset="0" />
      <stop
         id="stop2069-6"
         style="stop-color:#fcaf3e;stop-opacity:1"
         offset="1" />
    </linearGradient>
    <linearGradient
       id="linearGradient3566">
      <stop
         id="stop3568"
         style="stop-color:#000000;stop-opacity:0.21621622"
         offset="0" />
      <stop
         id="stop3582"
         style="stop-color:#000000;stop-opacity:1"
         offset="0.46154931" />
      <stop
         id="stop3570"
         style="stop-color:#000000;stop-opacity:0"
         offset="1" />
    </linearGradient>
    <linearGradient
       id="linearGradient3553">
      <stop
         id="stop3555"
         style="stop-color:#ffffff;stop-opacity:1"
         offset="0" />
      <stop
         id="stop3557"
         style="stop-color:#ffffff;stop-opacity:0"
         offset="1" />
    </linearGradient>
    <linearGradient
       id="linearGradient3439">
      <stop
         id="stop3441"
         style="stop-color:#000000;stop-opacity:1"
         offset="0" />
      <stop
         id="stop3443"
         style="stop-color:#000000;stop-opacity:0"
         offset="1" />
    </linearGradient>
    <linearGradient
       id="linearGradient3421">
      <stop
         id="stop3423"
         style="stop-color:#ffffff;stop-opacity:1"
         offset="0" />
      <stop
         id="stop3425"
         style="stop-color:#ffffff;stop-opacity:0"
         offset="1" />
    </linearGradient>
    <linearGradient
       id="linearGradient3411">
      <stop
         id="stop3413"
         style="stop-color:#ffffff;stop-opacity:1"
         offset="0" />
      <stop
         id="stop3415"
         style="stop-color:#ffffff;stop-opacity:0"
         offset="1" />
    </linearGradient>
    <radialGradient
       cx="605.71429"
       cy="486.64789"
       r="117.14286"
       fx="605.71429"
       fy="486.64789"
       id="radialGradient6912"
       xlink:href="#linearGradient5060"
       gradientUnits="userSpaceOnUse"
       gradientTransform="matrix(0.1044211,0,0,0.07411765,-27.930451,-1.1750779)" />
    <linearGradient
       id="linearGradient7124">
      <stop
         id="stop7126"
         style="stop-color:#888a85;stop-opacity:1"
         offset="0" />
      <stop
         id="stop7128"
         style="stop-color:#d3d7cf;stop-opacity:1"
         offset="1" />
    </linearGradient>
    <linearGradient
       id="linearGradient5060">
      <stop
         id="stop5062"
         style="stop-color:#000000;stop-opacity:1"
         offset="0" />
      <stop
         id="stop5064"
         style="stop-color:#000000;stop-opacity:0"
         offset="1" />
    </linearGradient>
    <linearGradient
       id="linearGradient6327">
      <stop
         id="stop6329"
         style="stop-color:#888a85;stop-opacity:1"
         offset="0" />
      <stop
         id="stop6331"
         style="stop-color:#eeeeec;stop-opacity:1"
         offset="1" />
    </linearGradient>
    <linearGradient
       id="linearGradient6366">
      <stop
         id="stop6368"
         style="stop-color:#ffffff;stop-opacity:1"
         offset="0" />
      <stop
         id="stop6370"
         style="stop-color:#ffffff;stop-opacity:0"
         offset="1" />
    </linearGradient>
    <linearGradient
       id="linearGradient5048">
      <stop
         id="stop5050"
         style="stop-color:#000000;stop-opacity:0"
         offset="0" />
      <stop
         id="stop5056"
         style="stop-color:#000000;stop-opacity:1"
         offset="0.5" />
      <stop
         id="stop5052"
         style="stop-color:#000000;stop-opacity:0"
         offset="1" />
    </linearGradient>
    <linearGradient
       id="linearGradient2065">
      <stop
         id="stop2067"
         style="stop-color:#555753;stop-opacity:1"
         offset="0" />
      <stop
         id="stop2069"
         style="stop-color:#fcaf3e;stop-opacity:1"
         offset="1" />
    </linearGradient>
    <linearGradient
       x1="302.85715"
       y1="366.64789"
       x2="302.85715"
       y2="609.50507"
       id="linearGradient6915"
       xlink:href="#linearGradient5048"
       gradientUnits="userSpaceOnUse"
       gradientTransform="matrix(0.0683432,0,0,0.07411765,-6.2011835,-1.1750779)" />
    <linearGradient
       id="linearGradient6390">
      <stop
         id="stop6392"
         style="stop-color:#ffffff;stop-opacity:1"
         offset="0" />
      <stop
         id="stop6394"
         style="stop-color:#ffffff;stop-opacity:0"
         offset="1" />
    </linearGradient>
    <radialGradient
       cx="605.71429"
       cy="486.64789"
       r="117.14286"
       fx="605.71429"
       fy="486.64789"
       id="radialGradient6909"
       xlink:href="#linearGradient5060"
       gradientUnits="userSpaceOnUse"
       gradientTransform="matrix(-0.01606477,0,0,0.07411765,11.681601,-1.1750779)" />
    <linearGradient
       id="linearGradient6431">
      <stop
         id="stop6433"
         style="stop-color:#ffffff;stop-opacity:1"
         offset="0" />
      <stop
         id="stop6435"
         style="stop-color:#ffffff;stop-opacity:0"
         offset="1" />
    </linearGradient>
    <linearGradient
       id="linearGradient4928">
      <stop
         id="stop4930"
         style="stop-color:#fce94f;stop-opacity:1"
         offset="0" />
      <stop
         id="stop4932"
         style="stop-color:#fce94f;stop-opacity:0"
         offset="1" />
    </linearGradient>
    <linearGradient
       id="linearGradient7138">
      <stop
         id="stop7140"
         style="stop-color:#ffffff;stop-opacity:0"
         offset="0" />
      <stop
         id="stop7146"
         style="stop-color:#ffffff;stop-opacity:0"
         offset="0.35714287" />
      <stop
         id="stop7142"
         style="stop-color:#ffffff;stop-opacity:1"
         offset="1" />
    </linearGradient>
    <linearGradient
       id="linearGradient6374">
      <stop
         id="stop6376"
         style="stop-color:#555753;stop-opacity:1"
         offset="0" />
      <stop
         id="stop6378"
         style="stop-color:#888a85;stop-opacity:1"
         offset="1" />
    </linearGradient>
    <linearGradient
       id="linearGradient4616">
      <stop
         id="stop4618"
         style="stop-color:#2e3436;stop-opacity:1"
         offset="0" />
      <stop
         id="stop4620"
         style="stop-color:#2e3436;stop-opacity:0"
         offset="1" />
    </linearGradient>
    <clipPath
       id="clipPath3379">
      <path
         d="m -235.75736,72 215.514735,0 c 2.350423,0 4.24264,1.892218 4.24264,4.24264 L -16,192 c 0,4 -4,8 -4,8 l -40,40 c 0,0 -4,4 -8,4 l -167.75736,0 C -238.10778,244 -240,242.10778 -240,239.75736 l 0,-163.51472 C -240,73.892218 -238.10778,72 -235.75736,72 z"
         id="path3381"
         style="fill:#eeeeec;fill-opacity:1;stroke:none;display:inline;enable-background:new" />
    </clipPath>
    <clipPath
       id="clipPath3387">
      <path
         d="m -555.75736,72 215.51473,0 c 2.35043,0 4.24265,1.892218 4.24265,4.24264 L -336,192 c 0,4 -4,8 -4,8 l -40,40 c 0,0 -4,4 -8,4 l -167.75736,0 C -558.10778,244 -560,242.10778 -560,239.75736 l 0,-163.51472 C -560,73.892218 -558.10778,72 -555.75736,72 z"
         id="path3389"
         style="fill:#eeeeec;fill-opacity:1;stroke:none;display:inline;enable-background:new" />
    </clipPath>
    <filter
       color-interpolation-filters="sRGB"
       id="filter3391">
      <feGaussianBlur
         id="feGaussianBlur3393"
         stdDeviation="0.99000005" />
    </filter>
    <clipPath
       id="clipPath3483">
      <path
         d="m -235.75736,72 215.514735,0 c 2.350423,0 4.24264,1.892218 4.24264,4.24264 L -16,192 c 0,4 -4,8 -4,8 l -40,40 c 0,0 -4,4 -8,4 l -167.75736,0 C -238.10778,244 -240,242.10778 -240,239.75736 l 0,-163.51472 C -240,73.892218 -238.10778,72 -235.75736,72 z"
         id="path3485"
         style="fill:#eeeeec;fill-opacity:1;stroke:none;display:inline;enable-background:new" />
    </clipPath>
    <filter
       x="-0.17999998"
       y="-0.18000004"
       width="1.3599999"
       height="1.3600001"
       color-interpolation-filters="sRGB"
       id="filter3584">
      <feGaussianBlur
         id="feGaussianBlur3586"
         stdDeviation="3.9000006" />
    </filter>
    <clipPath
       id="clipPath8264">
      <path
         d="m -235.75,74.125 c -1.20747,0 -2.125,0.91753 -2.125,2.125 l 0,163.5 c 0,1.20748 0.91751,2.125 2.125,2.125 l 167.75,0 c 1.292893,0 2.99353,-0.74569 4.3125,-1.625 1.31897,-0.87931 2.1875,-1.75 2.1875,-1.75 l 40,-40 c 0,0 0.870687,-0.86853 1.75,-2.1875 0.879313,-1.31897 1.625,-3.01961 1.625,-4.3125 l 0,-115.75 c 0,-1.207475 -0.917525,-2.125 -2.125,-2.125 l -215.5,0 z"
         transform="matrix(0.46,0,0,0.4571429,-106.62,74.442849)"
         id="path8266"
         style="fill:#808080;fill-opacity:1;stroke:none;display:inline;enable-background:new" />
    </clipPath>
    <linearGradient
       x1="-173.00507"
       y1="196.83751"
       x2="-213.36243"
       y2="46.221783"
       id="linearGradient8391"
       xlink:href="#linearGradient3439"
       gradientUnits="userSpaceOnUse"
       gradientTransform="translate(280,0)" />
    <filter
       color-interpolation-filters="sRGB"
       id="filter8432">
      <feGaussianBlur
         id="feGaussianBlur8434"
         stdDeviation="2.9700001" />
    </filter>
    <linearGradient
       x1="175.65868"
       y1="223.9749"
       x2="168"
       y2="183"
       id="linearGradient8436"
       xlink:href="#linearGradient8422"
       gradientUnits="userSpaceOnUse" />
    <filter
       color-interpolation-filters="sRGB"
       id="filter3456">
      <feGaussianBlur
         id="feGaussianBlur3458"
         stdDeviation="2.3760001" />
    </filter>
    <radialGradient
       cx="-205.37552"
       cy="194.83531"
       r="112.00001"
       fx="-205.37552"
       fy="194.83531"
       id="radialGradient2870"
       xlink:href="#linearGradient8294"
       gradientUnits="userSpaceOnUse"
       gradientTransform="matrix(3.6313195,-0.9730096,0.1255334,0.4684969,827.05876,-113.08265)" />
    <linearGradient
       x1="-11.986486"
       y1="11.500009"
       x2="-11.986486"
       y2="28.976542"
       id="linearGradient2872"
       xlink:href="#linearGradient2065-5"
       gradientUnits="userSpaceOnUse"
       gradientTransform="matrix(2.62654,0,0,2.66667,-134.017,85.83301)" />
    <linearGradient
       x1="25.355263"
       y1="33.357342"
       x2="25.355263"
       y2="31.76339"
       id="linearGradient2874"
       xlink:href="#linearGradient4616-1"
       gradientUnits="userSpaceOnUse"
       gradientTransform="matrix(2.70588,0,0,3.49999,-230.4411,58.00001)" />
    <linearGradient
       x1="145"
       y1="481.125"
       x2="149.75"
       y2="492.875"
       id="linearGradient2876"
       xlink:href="#linearGradient4610-7"
       gradientUnits="userSpaceOnUse"
       gradientTransform="translate(-295.5,-303.49999)" />
    <radialGradient
       cx="130"
       cy="536.62244"
       r="46"
       fx="130"
       fy="536.62244"
       id="radialGradient2878"
       xlink:href="#linearGradient4621-8"
       gradientUnits="userSpaceOnUse"
       gradientTransform="matrix(3.20934,0,0,0.190247,-582.714,79.53401)" />
    <linearGradient
       x1="-35.589153"
       y1="195.82149"
       x2="-28.106348"
       y2="203.30429"
       id="linearGradient2934"
       xlink:href="#linearGradient3411"
       gradientUnits="userSpaceOnUse" />
    <radialGradient
       cx="-234.64598"
       cy="20.162687"
       r="112.00001"
       fx="-234.64598"
       fy="20.162687"
       id="radialGradient2958"
       xlink:href="#linearGradient3421"
       gradientUnits="userSpaceOnUse"
       gradientTransform="matrix(0,0.5392495,-3.0198325,0,127.40428,201.85163)" />
    <linearGradient
       x1="-40.305084"
       y1="218.32916"
       x2="-65.438957"
       y2="193.1953"
       id="linearGradient2960"
       xlink:href="#linearGradient8276"
       gradientUnits="userSpaceOnUse"
       gradientTransform="translate(280,0)" />
    <linearGradient
       x1="-56"
       y1="206.75"
       x2="-38.462311"
       y2="226.16942"
       id="linearGradient2962"
       xlink:href="#linearGradient3566"
       gradientUnits="userSpaceOnUse" />
    <linearGradient
       x1="-55.25"
       y1="203.5"
       x2="-38.75"
       y2="219.25"
       id="linearGradient2964"
       xlink:href="#linearGradient9510"
       gradientUnits="userSpaceOnUse" />
    <linearGradient
       x1="-41.996742"
       y1="210.50327"
       x2="-38.925037"
       y2="213.57497"
       id="linearGradient2966"
       xlink:href="#linearGradient3553"
       gradientUnits="userSpaceOnUse" />
    <radialGradient
       cx="30.040548"
       cy="36.636337"
       r="22"
       fx="30.040548"
       fy="36.636337"
       id="radialGradient2968"
       xlink:href="#linearGradient6390"
       gradientUnits="userSpaceOnUse"
       gradientTransform="matrix(6.0498236,-2.9537973,1.8074879,3.7020116,-62.77537,117.90552)" />
    <radialGradient
       cx="-264.09189"
       cy="208.0045"
       r="100"
       fx="-264.09189"
       fy="208.0045"
       id="radialGradient2708"
       xlink:href="#linearGradient3971"
       gradientUnits="userSpaceOnUse"
       gradientTransform="matrix(3.319371,-4.9658935e-8,2.8656771e-8,1.9155154,1422.527,-203.43249)" />
    <linearGradient
       x1="302.85715"
       y1="366.64789"
       x2="302.85715"
       y2="609.50507"
       id="linearGradient2710"
       xlink:href="#linearGradient5048"
       gradientUnits="userSpaceOnUse"
       gradientTransform="matrix(0.0683432,0,0,0.07411765,-6.2011835,-1.1750779)" />
    <radialGradient
       cx="605.71429"
       cy="486.64789"
       r="117.14286"
       fx="605.71429"
       fy="486.64789"
       id="radialGradient2712"
       xlink:href="#linearGradient5060"
       gradientUnits="userSpaceOnUse"
       gradientTransform="matrix(0.1044211,0,0,0.07411765,-27.930451,-1.1750779)" />
    <radialGradient
       cx="605.71429"
       cy="486.64789"
       r="117.14286"
       fx="605.71429"
       fy="486.64789"
       id="radialGradient2714"
       xlink:href="#linearGradient5060"
       gradientUnits="userSpaceOnUse"
       gradientTransform="matrix(-0.01606477,0,0,0.07411765,11.681601,-1.1750779)" />
    <linearGradient
       x1="61.18124"
       y1="137.97644"
       x2="20.420683"
       y2="2.6749926"
       id="linearGradient2745"
       xlink:href="#linearGradient6327"
       gradientUnits="userSpaceOnUse"
       gradientTransform="translate(296,50)" />
    <linearGradient
       x1="-11.986486"
       y1="13.122552"
       x2="-11.986486"
       y2="29.726542"
       id="linearGradient3592"
       xlink:href="#linearGradient2065"
       gradientUnits="userSpaceOnUse"
       gradientTransform="matrix(1.1141976,0,0,1.1666667,353.36883,46.083333)" />
    <radialGradient
       cx="-6.0070167"
       cy="32.837029"
       r="9.90625"
       fx="-6.0070167"
       fy="32.837029"
       id="radialGradient3594"
       xlink:href="#linearGradient4928"
       gradientUnits="userSpaceOnUse"
       gradientTransform="matrix(1,-1.487184e-8,1.425535e-8,0.958546,378.7158,52.575973)" />
    <linearGradient
       x1="25.355263"
       y1="33.654644"
       x2="25.355263"
       y2="32.409008"
       id="linearGradient3596"
       xlink:href="#linearGradient4616"
       gradientUnits="userSpaceOnUse"
       gradientTransform="matrix(1.117647,0,0,1.5,353.17647,34.5)" />
    <linearGradient
       x1="61.18124"
       y1="137.97644"
       x2="20.420683"
       y2="2.6749926"
       id="linearGradient3636"
       xlink:href="#linearGradient6327"
       gradientUnits="userSpaceOnUse"
       gradientTransform="matrix(0.6445127,0,0,0.64709,303.53021,127.29389)" />
    <linearGradient
       x1="57.522598"
       y1="54.140625"
       x2="51.075691"
       y2="47.71719"
       id="linearGradient3649"
       xlink:href="#linearGradient6366"
       gradientUnits="userSpaceOnUse"
       gradientTransform="matrix(0.4591734,0,0,0.4608513,332.89443,125.57732)" />
    <linearGradient
       x1="42.999424"
       y1="36.811924"
       x2="40.621296"
       y2="34.433796"
       id="linearGradient3651"
       xlink:href="#linearGradient6327"
       gradientUnits="userSpaceOnUse"
       gradientTransform="matrix(0.6445127,0,0,0.64709,333.53021,127.29389)" />
    <radialGradient
       cx="39.437065"
       cy="34.33852"
       r="6"
       fx="39.437065"
       fy="34.33852"
       id="radialGradient3653"
       xlink:href="#linearGradient6374"
       gradientUnits="userSpaceOnUse"
       gradientTransform="matrix(0.1208461,-0.6816653,0.4628124,0.08270522,338.57204,173.25697)" />
    <radialGradient
       cx="40.179535"
       cy="34.080399"
       r="4.125"
       fx="40.179535"
       fy="34.080399"
       id="radialGradient3655"
       xlink:href="#linearGradient6431"
       gradientUnits="userSpaceOnUse"
       gradientTransform="matrix(0.6445127,0,0,0.6054214,333.30672,128.4883)" />
    <linearGradient
       x1="-11.986486"
       y1="13.122552"
       x2="-11.986486"
       y2="29.726542"
       id="linearGradient3698"
       xlink:href="#linearGradient2065"
       gradientUnits="userSpaceOnUse"
       gradientTransform="matrix(0.7133224,0,0,0.7499577,357.55745,124.8765)" />
    <radialGradient
       cx="-6.0070167"
       cy="32.837029"
       r="9.90625"
       fx="-6.0070167"
       fy="32.837029"
       id="radialGradient3700"
       xlink:href="#linearGradient4928"
       gradientUnits="userSpaceOnUse"
       gradientTransform="matrix(0.6445127,0,0,0.6202655,348.17083,128.96078)" />
    <linearGradient
       x1="25.355263"
       y1="33.654644"
       x2="25.355263"
       y2="32.409008"
       id="linearGradient3702"
       xlink:href="#linearGradient4616"
       gradientUnits="userSpaceOnUse"
       gradientTransform="matrix(0.7057947,0,0,1,332.05944,116)" />
    <linearGradient
       x1="38.310741"
       y1="34.998718"
       x2="34.541054"
       y2="31.242756"
       id="linearGradient3776"
       xlink:href="#linearGradient6366"
       gradientUnits="userSpaceOnUse"
       gradientTransform="matrix(0.4591734,0,0,0.4608513,302.89443,176.57732)" />
    <linearGradient
       x1="42.404869"
       y1="36.23819"
       x2="39.720673"
       y2="33.572281"
       id="linearGradient3778"
       xlink:href="#linearGradient7124"
       gradientUnits="userSpaceOnUse"
       gradientTransform="matrix(0.4671814,0,0,0.4703865,302.77606,176.44592)" />
    <linearGradient
       x1="18.517229"
       y1="14.630617"
       x2="19.3125"
       y2="15.425888"
       id="linearGradient3780"
       xlink:href="#linearGradient6374"
       gradientUnits="userSpaceOnUse"
       gradientTransform="translate(303,177)" />
    <radialGradient
       cx="18.870167"
       cy="18.81464"
       r="10.046875"
       fx="18.870167"
       fy="18.81464"
       id="radialGradient3782"
       xlink:href="#linearGradient7138"
       gradientUnits="userSpaceOnUse"
       gradientTransform="matrix(0,-0.3919166,0.3961029,0,11.969342,23.52053)" />
    <linearGradient
       x1="302.85715"
       y1="366.64789"
       x2="302.85715"
       y2="609.50507"
       id="linearGradient3812"
       xlink:href="#linearGradient5048"
       gradientUnits="userSpaceOnUse"
       gradientTransform="matrix(0.03132396,0,0,0.03139706,-2.8422095,1.3633344)" />
    <radialGradient
       cx="605.71429"
       cy="486.64789"
       r="117.14286"
       fx="605.71429"
       fy="486.64789"
       id="radialGradient3814"
       xlink:href="#linearGradient5060"
       gradientUnits="userSpaceOnUse"
       gradientTransform="matrix(0.04785967,0,0,0.03139706,-12.801456,1.3633344)" />
    <radialGradient
       cx="605.71429"
       cy="486.64789"
       r="117.14286"
       fx="605.71429"
       fy="486.64789"
       id="radialGradient3816"
       xlink:href="#linearGradient5060"
       gradientUnits="userSpaceOnUse"
       gradientTransform="matrix(-0.00736302,0,0,0.03139706,5.3540661,1.3633344)" />
    <linearGradient
       x1="61.18124"
       y1="137.97644"
       x2="20.420683"
       y2="2.6749926"
       id="linearGradient3818"
       xlink:href="#linearGradient6327"
       gradientUnits="userSpaceOnUse"
       gradientTransform="matrix(0.4664872,0,0,-0.4703865,302.80819,199.55408)" />
    <linearGradient
       x1="-11.986486"
       y1="9.3981953"
       x2="-11.986489"
       y2="33.140533"
       id="linearGradient3845"
       xlink:href="#linearGradient2065"
       gradientUnits="userSpaceOnUse"
       gradientTransform="matrix(0.4862465,0,0,0.5034427,319.84427,175.6691)" />
    <radialGradient
       cx="-6.0070167"
       cy="32.837029"
       r="9.90625"
       fx="-6.0070167"
       fy="32.837029"
       id="radialGradient3847"
       xlink:href="#linearGradient4928"
       gradientUnits="userSpaceOnUse"
       gradientTransform="matrix(0.4374939,0,0,0.413634,282.96195,178.41749)" />
    <linearGradient
       x1="25.355263"
       y1="33.654644"
       x2="25.355263"
       y2="32.409008"
       id="linearGradient3849"
       xlink:href="#linearGradient4616"
       gradientUnits="userSpaceOnUse"
       gradientTransform="matrix(0.4712461,0,0,0.4999999,272.67891,175.5)" />
    <linearGradient
       x1="36.825886"
       y1="32.051472"
       x2="32.402149"
       y2="28.182159"
       id="linearGradient3886"
       xlink:href="#linearGradient6366"
       gradientUnits="userSpaceOnUse"
       gradientTransform="matrix(0.322699,0,0,0.3689375,323.15584,218.2425)" />
    <linearGradient
       x1="39.854687"
       y1="34.001953"
       x2="37.322441"
       y2="31.781445"
       id="linearGradient3888"
       xlink:href="#linearGradient7124"
       gradientUnits="userSpaceOnUse"
       gradientTransform="matrix(0.3335136,0,0,0.3803359,322.99599,218.08541)" />
    <radialGradient
       cx="11.53125"
       cy="10.5625"
       r="2.5"
       fx="11.53125"
       fy="10.5625"
       id="radialGradient3890"
       xlink:href="#linearGradient6374"
       gradientUnits="userSpaceOnUse"
       gradientTransform="translate(323,219)" />
    <radialGradient
       cx="-6.0070167"
       cy="32.837029"
       r="9.90625"
       fx="-6.0070167"
       fy="32.837029"
       id="radialGradient3898"
       xlink:href="#linearGradient4928"
       gradientUnits="userSpaceOnUse"
       gradientTransform="matrix(0.2833987,0,0,0.3061047,-22.666315,1.3078025)" />
    <linearGradient
       x1="25.355263"
       y1="33.654644"
       x2="25.355263"
       y2="32.409008"
       id="linearGradient3900"
       xlink:href="#linearGradient4616"
       gradientUnits="userSpaceOnUse"
       gradientTransform="matrix(0.2941176,0,0,0.4999999,-29.058823,-5.4999978)" />
    <linearGradient
       x1="-11.986486"
       y1="5.5398235"
       x2="-11.986486"
       y2="36.842041"
       id="linearGradient3921"
       xlink:href="#linearGradient2065"
       gradientUnits="userSpaceOnUse"
       gradientTransform="matrix(0.3149795,0,0,0.3725665,-18.208103,-0.7261107)" />
    <linearGradient
       x1="61.18124"
       y1="137.97644"
       x2="20.420683"
       y2="2.6749926"
       id="linearGradient3941"
       xlink:href="#linearGradient6327"
       gradientUnits="userSpaceOnUse"
       gradientTransform="matrix(0.3334165,0,0,-0.3819467,302.99612,236.7836)" />
    <linearGradient
       x1="-11.986486"
       y1="13.122552"
       x2="-11.986486"
       y2="29.726542"
       id="linearGradient3957"
       xlink:href="#linearGradient3965"
       gradientUnits="userSpaceOnUse"
       gradientTransform="matrix(1.1141976,0,0,1.1666667,733.36883,46.083333)" />
    <linearGradient
       x1="-11.986486"
       y1="13.122552"
       x2="-11.986486"
       y2="29.726542"
       id="linearGradient3959"
       xlink:href="#linearGradient3977"
       gradientUnits="userSpaceOnUse"
       gradientTransform="matrix(0.7133224,0,0,0.7499577,727.55745,124.8765)" />
    <linearGradient
       x1="-11.986486"
       y1="9.3981953"
       x2="-11.986489"
       y2="33.140533"
       id="linearGradient3961"
       xlink:href="#linearGradient3983"
       gradientUnits="userSpaceOnUse"
       gradientTransform="matrix(0.4862465,0,0,0.5034427,319.84427,175.6691)" />
    <linearGradient
       x1="-11.986486"
       y1="5.5398235"
       x2="-11.986486"
       y2="36.842041"
       id="linearGradient3963"
       xlink:href="#linearGradient3989"
       gradientUnits="userSpaceOnUse"
       gradientTransform="matrix(0.3149795,0,0,0.3725665,-18.208103,-0.7261107)" />
    <radialGradient
       cx="12.772971"
       cy="12.488614"
       r="7"
       fx="12.772971"
       fy="12.488614"
       id="radialGradient3999"
       xlink:href="#linearGradient7138"
       gradientUnits="userSpaceOnUse"
       gradientTransform="matrix(0.3939591,0,0,0.3359205,7.7409434,7.6367681)" />
    <radialGradient
       cx="27.6255"
       cy="37.688992"
       r="22"
       fx="27.6255"
       fy="37.688992"
       id="radialGradient8580"
       xlink:href="#linearGradient6390"
       gradientUnits="userSpaceOnUse"
       gradientTransform="matrix(0.7764476,-0.2106926,0.1256195,0.4688188,325.76463,132.5)" />
    <radialGradient
       cx="31.11784"
       cy="38.058044"
       r="22"
       fx="31.11784"
       fy="38.058044"
       id="radialGradient8708"
       xlink:href="#linearGradient6390"
       gradientUnits="userSpaceOnUse"
       gradientTransform="matrix(0.5761217,-0.1570108,0.1027131,0.383331,295.75606,178.88892)" />
    <radialGradient
       cx="30.28997"
       cy="36.392262"
       r="22"
       fx="30.28997"
       fy="36.392262"
       id="radialGradient8896"
       xlink:href="#linearGradient6390"
       gradientUnits="userSpaceOnUse"
       gradientTransform="matrix(0.3827234,-0.1256563,0.0495766,0.2373753,319.81201,222.95001)" />
    <linearGradient
       x1="324.25"
       y1="94.5"
       x2="313.25"
       y2="60.75"
       id="linearGradient9984"
       xlink:href="#linearGradient9708"
       gradientUnits="userSpaceOnUse" />
    <linearGradient
       x1="322.19617"
       y1="154.43425"
       x2="316.59952"
       y2="133.54723"
       id="linearGradient10046"
       xlink:href="#linearGradient9708"
       gradientUnits="userSpaceOnUse" />
    <linearGradient
       x1="316.29471"
       y1="196.06461"
       x2="311.73041"
       y2="179.03041"
       id="linearGradient10132"
       xlink:href="#linearGradient9708"
       gradientUnits="userSpaceOnUse" />
    <linearGradient
       x1="312.51794"
       y1="232.68283"
       x2="309.47253"
       y2="221.31717"
       id="linearGradient10158"
       xlink:href="#linearGradient9708"
       gradientUnits="userSpaceOnUse" />
    <linearGradient
       x1="40.941582"
       y1="37.639805"
       x2="35.496311"
       y2="32.194534"
       id="linearGradient10170"
       xlink:href="#linearGradient6366"
       gradientUnits="userSpaceOnUse"
       gradientTransform="translate(346,50)" />
    <linearGradient
       x1="42.999424"
       y1="36.811924"
       x2="40.621296"
       y2="34.433796"
       id="linearGradient10172"
       xlink:href="#linearGradient6327"
       gradientUnits="userSpaceOnUse"
       gradientTransform="translate(346,50)" />
    <radialGradient
       cx="39.437065"
       cy="34.33852"
       r="6"
       fx="39.437065"
       fy="34.33852"
       id="radialGradient10174"
       xlink:href="#linearGradient6374"
       gradientUnits="userSpaceOnUse"
       gradientTransform="matrix(0.1875,-1.053432,0.7180811,0.127811,353.82271,121.03043)" />
    <radialGradient
       cx="40.179535"
       cy="34.080399"
       r="4.125"
       fx="40.179535"
       fy="34.080399"
       id="radialGradient10176"
       xlink:href="#linearGradient6431"
       gradientUnits="userSpaceOnUse"
       gradientTransform="matrix(1,0,0,0.9356061,346,52.307114)" />
    <radialGradient
       cx="29.08744"
       cy="40.243748"
       r="22"
       fx="29.08744"
       fy="40.243748"
       id="radialGradient10178"
       xlink:href="#linearGradient6390"
       gradientUnits="userSpaceOnUse"
       gradientTransform="matrix(1.2473139,-0.3342167,0.229654,0.8570803,330.71043,52.561079)" />
    <linearGradient
       x1="366.88498"
       y1="59.430328"
       x2="366.88498"
       y2="72.351585"
       id="linearGradient10365"
       xlink:href="#linearGradient6390"
       gradientUnits="userSpaceOnUse" />
    <linearGradient
       x1="348.99854"
       y1="134.39658"
       x2="348.99854"
       y2="145.26437"
       id="linearGradient10378"
       xlink:href="#linearGradient6390"
       gradientUnits="userSpaceOnUse" />
    <linearGradient
       x1="314"
       y1="181.81593"
       x2="314"
       y2="190.3773"
       id="linearGradient10474"
       xlink:href="#linearGradient6390"
       gradientUnits="userSpaceOnUse" />
    <linearGradient
       x1="331"
       y1="223.02888"
       x2="331"
       y2="229.377"
       id="linearGradient10618"
       xlink:href="#linearGradient6390"
       gradientUnits="userSpaceOnUse" />
    <linearGradient
       x1="175.65868"
       y1="223.9749"
       x2="168"
       y2="183"
       id="linearGradient3763"
       xlink:href="#linearGradient8422"
       gradientUnits="userSpaceOnUse" />
    <linearGradient
       x1="-173.00507"
       y1="196.83751"
       x2="-213.36243"
       y2="46.221783"
       id="linearGradient3765"
       xlink:href="#linearGradient3439"
       gradientUnits="userSpaceOnUse"
       gradientTransform="translate(280,0)" />
    <radialGradient
       cx="-205.37552"
       cy="194.83531"
       r="112.00001"
       fx="-205.37552"
       fy="194.83531"
       id="radialGradient3767"
       xlink:href="#linearGradient8294"
       gradientUnits="userSpaceOnUse"
       gradientTransform="matrix(3.6313195,-0.9730096,0.1255334,0.4684969,827.05876,-113.08265)" />
    <linearGradient
       x1="-35.589153"
       y1="195.82149"
       x2="-28.106348"
       y2="203.30429"
       id="linearGradient3769"
       xlink:href="#linearGradient3411"
       gradientUnits="userSpaceOnUse" />
    <radialGradient
       cx="-234.64598"
       cy="20.162687"
       r="112.00001"
       fx="-234.64598"
       fy="20.162687"
       id="radialGradient3771"
       xlink:href="#linearGradient3421"
       gradientUnits="userSpaceOnUse"
       gradientTransform="matrix(0,0.5392495,-3.0198325,0,127.40428,201.85163)" />
    <linearGradient
       x1="-40.305084"
       y1="218.32916"
       x2="-65.438957"
       y2="193.1953"
       id="linearGradient3773"
       xlink:href="#linearGradient8276"
       gradientUnits="userSpaceOnUse"
       gradientTransform="translate(280,0)" />
    <linearGradient
       x1="-56"
       y1="206.75"
       x2="-38.462311"
       y2="226.16942"
       id="linearGradient3775"
       xlink:href="#linearGradient3566"
       gradientUnits="userSpaceOnUse" />
    <linearGradient
       x1="-55.25"
       y1="203.5"
       x2="-38.75"
       y2="219.25"
       id="linearGradient3777"
       xlink:href="#linearGradient9510"
       gradientUnits="userSpaceOnUse" />
    <linearGradient
       x1="-41.996742"
       y1="210.50327"
       x2="-38.925037"
       y2="213.57497"
       id="linearGradient3779"
       xlink:href="#linearGradient3553"
       gradientUnits="userSpaceOnUse" />
    <radialGradient
       cx="30.040548"
       cy="36.636337"
       r="22"
       fx="30.040548"
       fy="36.636337"
       id="radialGradient3781"
       xlink:href="#linearGradient6390"
       gradientUnits="userSpaceOnUse"
       gradientTransform="matrix(6.0498236,-2.9537973,1.8074879,3.7020116,-62.77537,117.90552)" />
  </defs>
  <g
     transform="translate(0,-44)"
     id="layer1"
     style="display:inline">
    <g
       id="layer6"
       style="display:none">
      <rect
         width="48"
         height="48"
         x="296"
         y="50"
         id="rect6284"
         style="fill:#eeeeec;fill-opacity:1;fill-rule:nonzero;stroke:none;stroke-width:2;marker:none;visibility:visible;display:inline;overflow:visible;enable-background:accumulate" />
      <rect
         width="32"
         height="32"
         x="303"
         y="126"
         id="rect6592"
         style="fill:#eeeeec;fill-opacity:1;fill-rule:nonzero;stroke:none;stroke-width:2;marker:none;visibility:visible;display:inline;overflow:visible;enable-background:accumulate" />
      <rect
         width="22"
         height="22"
         x="303"
         y="177"
         id="rect6749"
         style="fill:#eeeeec;fill-opacity:1;fill-rule:nonzero;stroke:none;stroke-width:2;marker:none;visibility:visible;display:inline;overflow:visible;enable-background:accumulate" />
      <rect
         width="16"
         height="16"
         x="303"
         y="219"
         id="rect6833"
         style="fill:#eeeeec;fill-opacity:1;fill-rule:nonzero;stroke:none;stroke-width:2;marker:none;visibility:visible;display:inline;overflow:visible;enable-background:accumulate" />
      <rect
         width="24"
         height="24"
         x="302"
         y="176"
         id="rect8104"
         style="fill:#eeeeec;fill-opacity:1;fill-rule:nonzero;stroke:none;stroke-width:2;marker:none;visibility:visible;display:inline;overflow:visible;enable-background:accumulate" />
      <rect
         width="256"
         height="256"
         x="24"
         y="36"
         id="rect6282"
         style="fill:#eeeeec;fill-opacity:1;fill-rule:nonzero;stroke:none;stroke-width:2;marker:none;visibility:visible;display:inline;overflow:visible;enable-background:accumulate" />
      <text
         x="20.970737"
         y="21.513618"
         id="context"
         xml:space="preserve"
         style="font-size:18.30070686px;font-style:normal;font-weight:normal;fill:#000000;fill-opacity:1;stroke:none;display:inline;enable-background:new;font-family:Bitstream Vera Sans"><tspan
           x="20.970737"
           y="21.513618"
           id="tspan2716">mimetypes</tspan></text>
      <text
         x="191.97073"
         y="21.513618"
         id="icon-name"
         xml:space="preserve"
         style="font-size:18.30070686px;font-style:normal;font-variant:normal;font-weight:bold;font-stretch:normal;text-align:start;line-height:125%;writing-mode:lr-tb;text-anchor:start;fill:#000000;fill-opacity:1;stroke:none;display:inline;enable-background:new;font-family:Droid Sans;-inkscape-font-specification:Droid Sans Bold"><tspan
           x="191.97073"
           y="21.513618"
           id="tspan3023">image-x-generic</tspan></text>
    </g>
    <g
       id="layer3"
       style="display:inline" />
    <g
       id="layer2"
       style="display:inline">
      <g
         transform="translate(-24.000005,12.2872)"
         id="g2970">
        <path
           d="m 44.24264,74 215.51473,0 c 2.35043,0 4.24264,1.89222 4.24264,4.24264 L 264,194 c 0,4 -4,8 -4,8 l -40,40 c 0,0 -4,4 -8,4 L 44.24264,246 C 41.89222,246 40,244.10778 40,241.75736 L 40,78.24264 C 40,75.89222 41.89222,74 44.24264,74 z"
           id="path8430"
           style="opacity:0.8;fill:url(#linearGradient3763);fill-opacity:1;stroke:none;display:inline;filter:url(#filter8432);enable-background:new" />
        <path
           d="m 44.24264,72 215.51474,0 c 2.35042,0 4.24264,1.892218 4.24264,4.24264 L 264,192 c 0,4 -4,8 -4,8 l -40,40 c 0,0 -4,4 -8,4 L 44.24264,244 C 41.89222,244 40,242.10778 40,239.75736 L 40,76.24264 C 40,73.892218 41.89222,72 44.24264,72 z"
           id="path3433"
           style="opacity:0.7;fill:url(#linearGradient3765);fill-opacity:1;stroke:none;display:inline;filter:url(#filter3456);enable-background:new" />
        <path
           d="m 44.24264,72 215.51474,0 c 2.35042,0 4.24264,1.892218 4.24264,4.24264 L 264,192 c 0,4 -4,8 -4,8 l -40,40 c 0,0 -4,4 -8,4 L 44.24264,244 C 41.89222,244 40,242.10778 40,239.75736 L 40,76.24264 C 40,73.892218 41.89222,72 44.24264,72 z"
           id="path3375"
           style="fill:url(#radialGradient3767);fill-opacity:1;stroke:none;display:inline;enable-background:new" />
        <path
           d="m -555.75736,72 215.51473,0 c 2.35043,0 4.24265,1.892218 4.24265,4.24264 L -336,192 c 0,4 -4,8 -4,8 l -40,40 c 0,0 -4,4 -8,4 l -167.75736,0 C -558.10778,244 -560,242.10778 -560,239.75736 l 0,-163.51472 C -560,73.892218 -558.10778,72 -555.75736,72 z"
           transform="translate(600,0)"
           clip-path="url(#clipPath3387)"
           id="path3383"
           style="fill:none;stroke:#babdb6;stroke-width:2;stroke-linecap:round;stroke-linejoin:miter;stroke-miterlimit:4;stroke-opacity:1;stroke-dashoffset:0.50000001;display:inline;filter:url(#filter3391);enable-background:new" />
        <path
           d="m -235.75,73.78125 c -1.39796,0 -2.46875,1.070788 -2.46875,2.46875 l 0,163.5 c 0,1.39797 1.07077,2.46875 2.46875,2.46875 l 167.75,0 c 1.410744,0 3.182109,-0.78807 4.53125,-1.6875 C -62.119609,239.63182 -61.25,238.75 -61.25,238.75 l 40,-40 c 0,0 0.881822,-0.86961 1.78125,-2.21875 0.899428,-1.34914 1.6875,-3.12051 1.6875,-4.53125 l 0,-115.75 c 0,-1.397966 -1.070784,-2.46875 -2.46875,-2.46875 l -215.5,0 z"
           transform="translate(280,0)"
           id="path3397"
           style="fill:none;stroke:url(#linearGradient3769);stroke-width:1.5;stroke-linecap:round;stroke-linejoin:miter;stroke-miterlimit:4;stroke-opacity:1;stroke-dasharray:none;stroke-dashoffset:0.50000001;display:inline;enable-background:new" />
      </g>
      <g
         transform="matrix(2.173913,0,0,2.1874997,487.7826,-150.55651)"
         clip-path="url(#clipPath8264)"
         id="g8231">
        <path
           d="m -211.5,112.84286 92,0 0,67.65714 -92,0 0,-67.65714 z"
           id="rect3813"
           style="fill:url(#linearGradient2872);fill-opacity:1;stroke:none;display:inline" />
        <g
           transform="translate(-295.5,-310.49999)"
           clip-path="url(#clipPath4719-3)"
           id="g4713"
           style="display:inline">
          <path
             d="m 124.80435,483.02795 a 14.009553,14.009553 0 1 1 -28.019111,0 14.009553,14.009553 0 1 1 28.019111,0 z"
             transform="matrix(1.71312,0,0,1.37852,-77.8045,-183.178)"
             id="path4639"
             style="fill:#fef39e;fill-opacity:1;stroke:none;display:inline;filter:url(#filter4709-1)" />
          <g
             id="g4629">
            <path
               d="m 124.80435,483.02795 a 14.009553,14.009553 0 1 1 -28.019111,0 14.009553,14.009553 0 1 1 28.019111,0 z"
               transform="matrix(1.14208,0,0,1.14208,-14.5363,-68.6555)"
               id="path4565"
               style="fill:#fef39e;fill-opacity:1;stroke:none" />
            <path
               d="m 124.80435,483.02795 a 14.009553,14.009553 0 1 1 -28.019111,0 14.009553,14.009553 0 1 1 28.019111,0 z"
               transform="matrix(0.994857,0,0,0.994857,1.775,2.45615)"
               id="path4587"
               style="fill:#fffbd7;fill-opacity:1;stroke:none;display:inline;filter:url(#filter4608-6)" />
          </g>
        </g>
        <path
           d="m -183.5,163.43751 c -5.0025,0 -9.0625,4.06 -9.0625,9.0625 0,0.29184 0.004,0.5902 0.0313,0.875 l 18.0625,0 c 0.027,-0.2848 0.0313,-0.58316 0.0313,-0.875 0,-5.0025 -4.06,-9.06251 -9.0625,-9.0625 l -1e-4,0 z"
           id="path4416"
           style="fill:#ffffff;fill-opacity:1;stroke:none;display:inline;filter:url(#filter4616-8)" />
        <path
           d="m -211.5,173.62501 c 22.49807,-3.41152 40.875,-0.16667 60.875,-0.125 l 31.125,-1.75 0,8.74999 -92,0 0,-6.87499 z"
           id="rect3817"
           style="fill:url(#linearGradient2874);fill-opacity:1;stroke:none;display:inline" />
        <path
           d="m -186.09375,121.28126 c 4.95211,3.15625 10.09773,2.36004 13.8125,6.28125 0.20853,0.22012 0.41543,0.41335 0.625,0.625 -0.91227,0.0132 -3.36173,-0.64471 -5.8125,-0.21875 -2.03999,0.35455 -4.02605,-0.55433 -6.4375,1.03125 2.8086,-1.17696 5.05872,-0.41657 7.3125,-0.71875 1.75702,-0.23558 4.85952,0.60574 6.84375,1.75 3.19912,2.92004 6.06811,5.00342 6.65625,7.03125 0.75156,2.59125 0.93062,10.17703 0.96875,13.3125 -0.33977,-0.27402 -0.66062,-0.5645 -0.96875,-0.875 -0.68906,-0.71321 -1.34766,-1.47779 -2.15625,-2.0625 -0.77698,-0.56343 -1.58267,-1.08104 -2.21875,-1.8125 -0.66486,-0.8969 -1.44709,-1.69706 -2.1875,-2.53125 -0.70592,-0.72238 -1.45646,-1.39671 -2.125,-2.15625 -0.61554,-0.75741 -1.33614,-1.42319 -2.1875,-1.90625 -0.77581,-0.47272 -1.5828,-1.00327 -2.53125,-0.96875 -0.47451,-0.0791 -0.95887,-0.19127 -1.3125,-0.53125 -0.59769,-0.44175 -1.32432,-0.71337 -2.0625,-0.78125 l 0.125,0.0625 c 0.9109,0.24481 1.68179,0.8215 2.40625,1.40625 0.82464,0.41098 1.87022,0.34115 2.53125,1.0625 0.70456,0.74408 1.76065,1.14357 2.28125,2.0625 0.20942,0.35023 0.44974,0.66458 0.71875,0.96875 -0.70331,0.27896 -1.37908,1.26201 -1.875,1.59375 -1.29807,0.86836 -4.60919,-2.74752 -7.5,-2.40625 2.08544,-0.0469 5.75517,2.50843 6.46875,2.71875 0.55836,0.16459 -1.66639,2.10357 -3.375,3.03125 1.51744,-0.43138 3.97727,-2.51723 4.4375,-2.625 0.57771,-0.13527 1.16213,-1.94726 2.4375,-1.6875 0.26687,0.28232 0.53984,0.57255 0.78125,0.875 0.69303,0.78032 1.38577,1.54029 1.96875,2.40625 0.85162,1.06177 1.95474,1.87787 2.875,2.875 0.7471,0.7803 1.39506,1.64575 2.09375,2.46875 0.93323,1.12487 1.87928,2.25013 2.8125,3.375 0.42144,0.87267 1.03174,1.61036 1.65625,2.34375 0.66563,0.75999 1.30957,1.55781 1.8125,2.4375 0.59909,0.89138 1.1135,1.84141 1.5,2.84375 0.30827,0.94828 0.48395,1.92145 0.625,2.90625 0.19051,1.03702 0.34872,2.0991 0.25,3.15625 -0.14578,1.5715 -0.30651,3.14619 -0.4375,4.71875 -0.0217,0.7843 -0.12135,1.62135 0.25,2.34375 0.88575,0.56065 1.94401,0.69175 2.96875,0.75 0.86591,-0.0236 1.72648,-0.22461 2.46875,-0.6875 0.31904,-0.16231 0.63392,-0.49478 0.46875,-0.875 -0.18667,-1.01745 -0.40295,-2.03142 -0.5,-3.0625 -0.1344,-1.15271 -0.25974,-2.31102 -0.34375,-3.46875 -0.099,-1.09509 -0.14847,-2.18257 -0.1875,-3.28125 0.0322,-1.00198 0.0767,-2.03591 0.375,-3 0.32471,-0.94223 0.65194,-2.18347 1.25,-2.96875 0.85084,-1.04281 2.1162,-1.51624 3.09375,-2.4375 0.82415,-0.71738 1.68863,-1.38982 2.46875,-2.15625 0.75889,-0.71303 1.63356,-2.17099 2.3125,-2.96875 0.7624,-0.80646 1.48992,-0.89854 2.21875,-1.625 0.18969,-0.12973 0.38766,-0.25786 0.59375,-0.375 0.52915,-0.26792 1.04107,-0.57592 1.71875,-0.625 0.70029,0.0397 1.39399,-0.19008 2.09375,-0.0937 0.70007,0.0559 1.02933,0.72896 1.78125,0.65625 0.66535,-0.12321 1.35216,-0.12021 2.03125,-0.0625 -0.21541,-0.0835 -0.44604,-0.15445 -0.6875,-0.1875 -0.48981,-0.0904 -0.98368,0.0758 -1.46875,0.0313 -0.63207,-0.054 -0.8309,-0.55639 -1.375,-0.71875 -0.66242,-0.11588 -1.35944,0.10128 -2.03125,0.0625 -0.5382,-0.0737 -1.05528,0.0455 -1.59375,0.0313 0.76409,-1.1233 1.44323,-2.44724 2.25,-3.375 1.3398,-1.24472 2.98696,-2.48222 4.03125,-2.96875 1.39189,-0.64849 2.38459,0.15819 4.21875,-0.75 -2.03978,0.86066 -3.28052,-0.27726 -5.6875,1.125 -1.32634,0.76242 -2.21246,1.18656 -2.96875,1.71875 -1.58811,-1.34506 -0.70451,-6.06166 -2.09375,-8.78125 0.0827,-0.0958 0.125,-0.20732 0.125,-0.34375 1.54418,-0.65828 3.85538,-0.62579 5.34375,-0.34375 1.80941,0.34285 1.14282,0.69721 2.0625,0.75 0.8083,0.0464 2.21338,0.8335 3.34375,1.28125 1.22261,0.48428 1.53834,-0.0211 3.84375,1.21875 -1.65524,-1.12051 -3.34913,-1.13223 -3.59375,-1.40625 0.7457,-2.42944 3.79609,-2.88736 5.0625,-5.1875 -1.76435,2.59269 -4.05299,2.33985 -5.28125,5.09375 -1.22654,-0.34407 -2.44261,-0.89298 -3.0625,-1.28125 1.49793,-1.8748 -1.68651,-7.18964 -1.78125,-9 -0.11059,2.41309 2.83075,5.84705 1.25,8.8125 -3.16781,-1.25867 -5.75024,-0.78886 -7.4375,-0.40625 -0.0628,-0.0425 -0.14103,-0.0804 -0.21875,-0.0937 -1.38487,-2.04113 -0.95284,-3.54566 -2.5,-5.78125 0.85981,2.03517 1.03075,4.21454 1.875,5.96875 0.0201,0.0419 0.0431,0.0827 0.0625,0.125 -0.0385,0.0749 -0.0625,0.16002 -0.0625,0.25 0,0.22641 0.14749,0.41694 0.34375,0.5 0.92516,2.72077 0.58242,6.13236 0.8125,8.65625 -2.33949,-3.83923 -5.15618,-3.90227 -6.78125,-10.25 1.34906,7.76942 7.42824,8.46368 5.875,13.34375 -1.18921,1.23925 -3.11722,3.33597 -4.03125,4.25 -0.76285,0.67868 -1.59581,1.26835 -2.4375,1.84375 -0.87643,0.65389 -0.79689,1.13319 -1.71875,1.71875 -0.68733,0.46263 -2.24808,0.96188 -2.84375,1.4375 -0.77914,0.62211 -1.21036,1.46972 -1.875,2.3125 -0.35417,0.47917 -1.23958,0.61458 -1.5625,1.25 -0.32894,-1.33239 -1.28622,-3.80883 -3.09375,-4.84375 -0.89341,-0.51154 -1.89485,-1.4387 -2.625,-2.21875 -0.16244,-0.16986 -0.32136,-0.31728 -0.5,-0.46875 -1.2415,-3.00067 -1.37508,-6.70906 -1.65625,-10.0625 0.097,-0.0922 0.17429,-0.19076 0.28125,-0.28125 0.53668,-0.40499 1.03141,-0.85932 1.9375,-1.125 1.00361,-0.19673 1.64252,0.33535 2.6875,0.1875 1.01534,-0.18272 1.85205,-1.06453 2.84375,-1.375 0.83379,-0.32538 2.07498,-0.13823 3.0625,-0.3125 -1.14808,0.056 -2.26509,-0.14799 -3.375,0.1875 -0.91936,0.16193 -1.46612,1.11655 -2.34375,1.15625 -1.0076,0.1187 -1.63048,-0.40688 -2.59375,-0.21875 -0.80343,0.11401 -1.45915,0.39725 -2.21875,0.5625 -0.096,-0.0611 -0.4129,0.0496 -0.40625,-0.0625 -0.0616,-0.56577 -0.12813,-1.12745 -0.21875,-1.65625 -0.06,-3.89672 4.27346,-2.57015 5.15625,-3.25 0.58133,-0.44768 3.85453,-3.04945 6.75,-3.65625 -3.43517,0.61964 -6.89928,3.23605 -6.5625,2.40625 0.43039,-1.06043 0.76035,-7.91801 2.84375,-10.375 -3.23258,3.13778 -1.93744,10.59758 -4.28125,11.3125 -1.14933,0.35058 -3.94816,-0.0106 -4.4375,1.375 -0.10489,-0.29885 -0.21204,-0.57258 -0.34375,-0.84375 -0.84843,-1.74675 -3.20807,-3.66898 -5.71875,-5.84375 -0.24719,-1.22331 1.70858,-1.61353 1.90625,-2.125 0.15296,-0.39577 2.42162,-2.38883 3,-3.6875 -1.08179,1.42622 -3.17911,3.22298 -3.28125,2.71875 -0.13053,-0.6444 -2.23183,-4.07697 -1.96875,-5.90625 -0.63373,2.51321 2.51245,5.71105 1.53125,6.78125 -0.40432,0.441 -1.56827,1.00067 -1.8125,1.65625 -1.21315,-1.06576 -2.41928,-2.18039 -3.53125,-3.40625 -3.25105,-3.58405 -5.7455,-2.03174 -14.3125,-5.65625 l 0,-2e-4 z"
           id="path4732"
           style="fill:#000000;fill-opacity:1;fill-rule:evenodd;stroke:none;display:inline" />
        <path
           d="m -152.59375,174.37501 c -0.99296,0.048 -1.98253,0.16292 -2.5625,0.625 0.0227,0.59538 0.58177,1.29111 1.03125,1.9375 0.90796,1.19023 1.82677,2.3727 2.75,3.5625 l 4.96875,0 c -0.42722,-0.7657 -0.82207,-1.55011 -1.21875,-2.3125 -0.46532,-0.84979 -0.81924,-1.69268 -1.1875,-2.53125 -0.0422,-0.31337 -0.52993,-0.58499 -0.9375,-0.71875 -0.99474,-0.3815 -1.96498,-0.54306 -2.84375,-0.5625 z"
           id="path3791"
           style="opacity:0.79729698;fill:url(#linearGradient2876);fill-opacity:1;fill-rule:evenodd;stroke:none;display:inline" />
        <path
           d="m 80.40625,432.78125 c 4.95211,3.15625 10.09773,2.36004 13.8125,6.28125 0.16682,0.1761 0.33306,0.33512 0.5,0.5 0.47081,0.0642 0.86634,0.12875 1.125,0.125 -0.20957,-0.21165 -0.41647,-0.40488 -0.625,-0.625 -3.01825,-3.18598 -6.9951,-3.26716 -11.03125,-4.875 -0.03474,-0.0138 -0.059,-0.0484 -0.09375,-0.0625 -1.10179,-0.36006 -2.29362,-0.75403 -3.6875,-1.34375 z m 18.125,0.625 c -0.63373,2.51321 2.51245,5.71105 1.53125,6.78125 -0.28982,0.31612 -0.95433,0.69532 -1.40625,1.125 0.12002,0.10757 0.25465,0.20603 0.375,0.3125 0.45504,-0.64981 1.60175,-0.96015 1.75,-1.34375 0.0395,-0.1023 0.21224,-0.3176 0.46875,-0.59375 0.007,-0.15893 -0.013,-0.33834 -0.0625,-0.53125 -0.36749,0.24581 -0.65336,0.32478 -0.6875,0.15625 -0.13053,-0.6444 -2.23183,-4.07697 -1.96875,-5.90625 z m 15.125,3 c -3.23258,3.13778 -1.93744,10.59758 -4.28125,11.3125 -0.87305,0.26631 -2.67739,0.13373 -3.71875,0.65625 0.10564,0.23081 0.1924,0.46561 0.28125,0.71875 0.48934,-1.38565 3.28817,-1.02442 4.4375,-1.375 0.40212,-0.12266 0.70836,-0.4424 0.9375,-0.90625 -0.37324,0.16279 -0.58924,0.18863 -0.5,-0.0313 0.43039,-1.06043 0.76035,-7.91801 2.84375,-10.375 l 0,5e-5 z m -9.875,0.1875 c -0.65633,0.8653 -1.67467,1.86478 -2.40625,2.40625 0.035,0.0884 0.11425,0.25945 0.125,0.3125 0.006,0.0315 0.01,0.0483 0.0313,0.0625 0.76016,-0.80336 1.86771,-1.92287 2.25,-2.78125 l -5e-5,0 z m 31.15625,1.28125 c -0.10681,2.33068 2.61199,5.60659 1.375,8.5 0.1879,0.0583 0.37002,0.14826 0.5625,0.21875 1.03088,-2.07763 -1.84715,-6.99222 -1.9375,-8.71875 z m -44.09375,1.4375 c -0.58853,-0.002 -1.19981,0.0498 -1.8125,0.15625 -0.24454,0.0425 -0.47494,0.0811 -0.71875,0.0937 0.57324,0.0163 1.14758,0.006 1.71875,-0.0937 0.3802,-0.0661 0.75059,-0.10454 1.125,-0.125 -0.10937,-0.003 -0.20125,-0.031 -0.3125,-0.0313 l 0,5e-5 z m -4.90625,0.21875 c -1.05294,0.0153 -2.13802,0.17596 -3.34375,0.96875 0.73581,-0.30835 1.4245,-0.46615 2.09375,-0.5625 0.66231,-0.25997 1.29099,-0.37458 1.90625,-0.40625 -0.21749,-0.006 -0.43522,-0.003 -0.65625,0 z M 91.625,439.75 c -0.16769,-0.002 -0.31622,0.0195 -0.46875,0.0313 1.75151,0.14017 4.01985,0.84237 5.59375,1.75 3.19912,2.92004 6.06811,5.00342 6.65625,7.03125 0.69343,2.39084 0.87982,8.89902 0.9375,12.375 0.0202,0.021 0.0422,0.0415 0.0625,0.0625 0.30813,0.3105 0.62898,0.60098 0.96875,0.875 -0.0381,-3.13547 -0.21719,-10.72125 -0.96875,-13.3125 -0.58814,-2.02783 -3.45713,-4.11121 -6.65625,-7.03125 -1.7362,-1.00123 -4.32697,-1.76239 -6.125,-1.78125 l 0,-5e-5 z m -4.5,0.0625 c 0.65921,0.0186 1.30134,0.0547 1.9375,0.0313 -0.6308,-0.0149 -1.27239,-0.0416 -1.9375,-0.0313 z m 38.90625,0.59375 c 0.85981,2.03517 1.03075,4.21454 1.875,5.96875 0.0201,0.0419 0.0431,0.0827 0.0625,0.125 -0.0386,0.0749 -0.0625,0.16002 -0.0625,0.25 0,0.22641 0.14749,0.41694 0.34375,0.5 0.75795,2.22902 0.68188,4.89913 0.75,7.1875 0.35884,0.43277 0.71896,0.90498 1.0625,1.46875 -0.081,-0.88874 -0.10567,-1.89754 -0.125,-2.9375 -0.22118,-1.90879 -0.22993,-4.24515 -1.0625,-5.875 0.0353,-0.0409 0.0733,-0.0777 0.0937,-0.125 -0.004,-0.008 0.004,-0.0227 0,-0.0313 -0.0255,-0.0612 -0.0625,-0.11723 -0.0625,-0.1875 0,-0.09 0.024,-0.17511 0.0625,-0.25 -0.0194,-0.0423 -0.0424,-0.0831 -0.0625,-0.125 -0.0198,-0.0411 -0.0434,-0.0834 -0.0625,-0.125 -0.0287,0.006 -0.0655,0.0249 -0.0937,0.0313 -0.0628,-0.0425 -0.14103,-0.0804 -0.21875,-0.0937 -1.38487,-2.04113 -0.95284,-3.54566 -2.5,-5.78125 l 0,-5e-5 z m 19.03125,2.65625 c -1.69758,2.49457 -3.86818,2.37373 -5.125,4.8125 0.0526,0.0186 0.10315,0.0444 0.15625,0.0625 0.89869,-2.16469 3.75785,-2.67569 4.96875,-4.875 z m -27.6875,1.3125 c -2.19466,0.39587 -4.28042,1.54971 -5.5,2.15625 -0.0203,0.0759 -0.0419,0.19937 -0.0625,0.25 -0.0928,0.22874 0.15792,0.18098 0.5625,0 1.35368,-0.92023 3.20812,-2.03073 5,-2.40625 z m 4.90625,1.28125 c 1.34906,7.76942 7.42824,8.46368 5.875,13.34375 -1.18921,1.23925 -3.11722,3.33597 -4.03125,4.25 -0.76285,0.67868 -1.59581,1.26835 -2.4375,1.84375 -0.87643,0.65389 -0.79689,1.13319 -1.71875,1.71875 -0.68733,0.46263 -2.24808,0.96188 -2.84375,1.4375 -0.77914,0.62211 -1.21036,1.46972 -1.875,2.3125 -0.17709,0.23959 -0.47526,0.38932 -0.78125,0.5625 0.0747,0.23312 0.17111,0.49452 0.21875,0.6875 0.32292,-0.63542 1.20833,-0.77083 1.5625,-1.25 0.66464,-0.84278 1.09586,-1.69039 1.875,-2.3125 0.59567,-0.47562 2.15642,-0.97487 2.84375,-1.4375 0.92186,-0.58556 0.84232,-1.06486 1.71875,-1.71875 0.84169,-0.5754 1.67465,-1.16507 2.4375,-1.84375 0.91403,-0.91403 2.84204,-3.01075 4.03125,-4.25 0.39409,-1.23817 0.2929,-2.21057 -0.0937,-3.09375 -0.005,-0.008 0.005,-0.0235 0,-0.0313 -2.33668,-3.81627 -5.15947,-3.88386 -6.78125,-10.21875 l -5e-5,5e-5 z m 9.625,0.21875 c -0.92497,0.006 -1.69874,0.11176 -2.40625,0.25 0.0135,0.0204 0.0173,0.042 0.0313,0.0625 0.0777,0.0133 0.1559,0.0513 0.21875,0.0937 0.73442,-0.16654 1.63943,-0.32515 2.6875,-0.375 -0.17873,-0.007 -0.35939,-0.0323 -0.53125,-0.0313 l -5e-5,10e-5 z m 0.78125,0.34375 c -0.0732,0.003 -0.1456,0.0269 -0.21875,0.0313 0.67709,0.016 1.33761,0.0544 1.875,0.15625 1.80941,0.34285 1.14282,0.69721 2.0625,0.75 0.8083,0.0464 2.21338,0.8335 3.34375,1.28125 1.22261,0.48428 1.53834,-0.0211 3.84375,1.21875 -1.65524,-1.12051 -3.34913,-1.13223 -3.59375,-1.40625 0.0129,-0.0419 0.017,-0.0842 0.0313,-0.125 -0.0649,-0.0291 -0.12217,-0.0641 -0.1875,-0.0937 -0.0207,0.0437 -0.0423,0.0797 -0.0625,0.125 -1.00669,-0.2824 -1.9875,-0.7062 -2.65625,-1.0625 -0.18654,-0.0477 -0.28433,-0.1223 -0.40625,-0.21875 -0.0974,-0.077 -0.24506,-0.15717 -0.5,-0.25 -0.0108,0.0211 -0.02,0.0415 -0.0313,0.0625 -0.24588,-0.0977 -0.48007,-0.17228 -0.71875,-0.25 -0.0468,-0.01 -0.0744,-0.0217 -0.125,-0.0313 -0.74419,-0.14102 -1.69938,-0.22641 -2.65625,-0.1875 l 0,-5e-5 z M 86.625,448.25 l 0.125,0.0625 c 0.9109,0.24481 1.68179,0.8215 2.40625,1.40625 0.82464,0.41098 1.87022,0.34115 2.53125,1.0625 0.70456,0.74408 1.76065,1.14357 2.28125,2.0625 0.20942,0.35023 0.44974,0.66458 0.71875,0.96875 -0.70331,0.27896 -1.37908,1.26201 -1.875,1.59375 -0.0184,0.0123 -0.0433,0.0207 -0.0625,0.0313 0.26674,0.0829 0.5096,0.12431 0.71875,0.0937 0.35283,-0.4495 0.78212,-0.98745 1.375,-1.09375 0.27247,-0.26266 0.5507,-0.50877 0.84375,-0.625 -0.26901,-0.30417 -0.50933,-0.61852 -0.71875,-0.96875 -0.5206,-0.91893 -1.57669,-1.31842 -2.28125,-2.0625 -0.66103,-0.72135 -1.70661,-0.65152 -2.53125,-1.0625 -0.06827,-0.0551 -0.14958,-0.10156 -0.21875,-0.15625 -0.45456,-0.0788 -0.91165,-0.20596 -1.25,-0.53125 -0.59769,-0.44175 -1.32432,-0.71337 -2.0625,-0.78125 z m 28.3125,3.0625 c -0.5615,-0.002 -1.13254,0.0198 -1.6875,0.1875 -0.8619,0.15181 -1.40092,0.98682 -2.1875,1.125 0.15712,0.0284 0.29573,0.0585 0.46875,0.0625 0.008,-0.004 0.0232,0.004 0.0313,0 0.66399,-0.34171 1.29896,-0.84303 2,-1.0625 0.29196,-0.11393 0.63652,-0.16173 1,-0.1875 0.45253,-0.0986 0.91776,-0.12668 1.375,-0.125 -0.33672,-0.005 -0.66726,10e-4 -1,0 l -5e-5,0 z m -6.28125,1.09375 c -0.11119,0.004 -0.22334,0.008 -0.34375,0.0313 -0.58666,0.0833 -1.09791,0.25436 -1.625,0.40625 0.003,0.0315 -0.003,0.0623 0,0.0937 -0.007,0.11209 0.31024,10e-4 0.40625,0.0625 0.72887,-0.15857 1.36514,-0.40917 2.125,-0.53125 -0.18386,-0.0329 -0.36151,-0.0695 -0.5625,-0.0625 z m 0.75,0.375 c -0.11556,0.005 -0.24955,0.007 -0.375,0.0313 0.5303,0.0941 1.02742,0.28089 1.6875,0.1875 0.0423,-0.008 0.0833,-0.0213 0.125,-0.0313 -0.48738,-0.0785 -0.91748,-0.20805 -1.4375,-0.1875 z m -23.5625,0.1875 c -0.18337,-0.008 -0.35057,0.01 -0.53125,0.0313 2.08544,-0.0469 5.75517,2.50843 6.46875,2.71875 0.55836,0.16459 -1.66639,2.10357 -3.375,3.03125 1.32776,-0.37746 3.38761,-2.02266 4.1875,-2.5 0.01714,-0.0102 0.01528,-0.0221 0.03125,-0.0313 0.21446,-0.26888 0.31472,-0.45329 0.15625,-0.5 -0.0892,-0.0263 -0.23354,-0.0976 -0.40625,-0.1875 -1.40032,0.064 -4.06601,-2.46133 -6.53125,-2.5625 z m 53.78125,0.0625 c -0.88641,0.37401 -1.6291,0.38336 -2.375,0.375 0.46305,-0.0347 0.90399,-0.0303 1.34375,-0.0313 0.31369,-0.0695 0.65846,-0.15916 1.03125,-0.34375 l 0,5e-5 z m -2.375,0.375 c -0.97055,-0.0109 -1.9515,-0.0429 -3.3125,0.75 -0.98526,0.56636 -1.68584,0.93652 -2.3125,1.3125 0.1001,0.15403 0.21261,0.29518 0.34375,0.40625 0.43285,-0.30459 0.95516,-0.58877 1.53125,-0.90625 0.0447,-0.0331 0.0806,-0.0614 0.125,-0.0937 0.66035,-0.48117 1.29197,-0.8658 1.78125,-1.09375 0.34797,-0.16212 0.68254,-0.22024 1,-0.25 0.018,-0.004 0.0446,0.004 0.0625,0 0.27556,-0.0643 0.52793,-0.10604 0.78125,-0.125 l 0,-5e-5 z m -41.40625,1.03125 c -0.15346,0.0275 -0.30526,0.0776 -0.4375,0.15625 0.22223,0.23657 0.45596,0.46782 0.65625,0.71875 0.69303,0.78032 1.38577,1.54029 1.96875,2.40625 0.85162,1.06177 1.95474,1.87787 2.875,2.875 0.7471,0.7803 1.39506,1.64575 2.09375,2.46875 0.93323,1.12487 1.87928,2.25013 2.8125,3.375 0.42144,0.87267 1.03174,1.61036 1.65625,2.34375 0.66563,0.75999 1.30957,1.55781 1.8125,2.4375 0.59909,0.89138 1.1135,1.84141 1.5,2.84375 0.30827,0.94828 0.48395,1.92145 0.625,2.90625 0.19051,1.03702 0.34872,2.0991 0.25,3.15625 -0.14578,1.5715 -0.30651,3.14619 -0.4375,4.71875 -0.0217,0.7843 -0.12135,1.62135 0.25,2.34375 0.88575,0.56065 1.94401,0.69175 2.96875,0.75 0.15421,-0.004 0.31552,-0.0153 0.46875,-0.0313 -0.85535,-0.0774 -1.70207,-0.25325 -2.4375,-0.71875 -0.37135,-0.7224 -0.27171,-1.55945 -0.25,-2.34375 0.13099,-1.57256 0.29172,-3.14725 0.4375,-4.71875 0.0987,-1.05715 -0.0595,-2.11923 -0.25,-3.15625 -0.14105,-0.9848 -0.31673,-1.95797 -0.625,-2.90625 -0.3865,-1.00234 -0.90091,-1.95237 -1.5,-2.84375 -0.50293,-0.87969 -1.14687,-1.67751 -1.8125,-2.4375 -0.62451,-0.73339 -1.23481,-1.47108 -1.65625,-2.34375 -0.93322,-1.12487 -1.87927,-2.25013 -2.8125,-3.375 -0.69869,-0.823 -1.34665,-1.68845 -2.09375,-2.46875 -0.92026,-0.99713 -2.02338,-1.81323 -2.875,-2.875 -0.58298,-0.86596 -1.27572,-1.62593 -1.96875,-2.40625 -0.24141,-0.30245 -0.51438,-0.59268 -0.78125,-0.875 -0.15942,-0.0325 -0.29833,-0.0249 -0.4375,0 l 0,5e-5 z M 132.25,460 c -0.27801,0.006 -0.56326,0.0349 -0.84375,0.0625 0.10242,0.002 0.20882,0.017 0.3125,0.0313 0.3359,0.0194 0.69022,-0.0275 1.03125,-0.0625 -0.1656,-0.029 -0.331,-0.0347 -0.5,-0.0313 z m -2.09375,0.0625 c -0.0128,0.019 -0.0184,0.0436 -0.0313,0.0625 0.19686,0.005 0.40053,-0.0167 0.59375,-0.0313 -0.19023,-0.0261 -0.37567,-0.039 -0.5625,-0.0313 l 5e-5,10e-5 z m 2.78125,0.21875 c -0.14219,0.006 -0.2642,0.0468 -0.40625,0.0625 0.65402,0.0921 0.99171,0.6953 1.71875,0.625 0.16682,-0.0309 0.33094,-0.0464 0.5,-0.0625 -0.11167,-0.0407 -0.21151,-0.0958 -0.3125,-0.15625 -0.10595,0.005 -0.20725,0.01 -0.3125,0 -0.40936,-0.035 -0.64885,-0.24056 -0.90625,-0.4375 -0.0927,-0.004 -0.18865,-0.0352 -0.28125,-0.0313 l 0,5e-5 z m 2.28125,0.40625 c -0.072,10e-4 -0.14679,0.0254 -0.21875,0.0313 0.0432,0.009 0.0772,0.0272 0.125,0.0313 0.15833,0.0145 0.30899,-0.0171 0.46875,-0.0313 -0.12245,-0.0226 -0.25224,-0.0334 -0.375,-0.0313 z m 0.96875,0.1875 c -0.0641,0.002 -0.12357,0.0276 -0.1875,0.0313 0.0927,0.006 0.18873,-0.008 0.28125,0 -0.0298,-0.0116 -0.0634,-0.0202 -0.0937,-0.0313 l -5e-5,0 z"
           transform="translate(-265.5,-311.49999)"
           clip-path="url(#clipPath4396-4)"
           id="path4380"
           style="opacity:0.49153197;fill:#fce94f;fill-opacity:1;fill-rule:evenodd;stroke:none;display:inline;filter:url(#filter4412-3)" />
        <path
           d="m -211.5,173.62501 c 22.49807,-3.41152 40.875,-0.16667 60.875,-0.125 l 31.125,-1.75 0,8.74999 -92,0 0,-6.87499 z"
           id="path4619"
           style="fill:url(#radialGradient2878);fill-opacity:1;stroke:none;display:inline" />
      </g>
      <g
         transform="translate(-34.000005,12.2872)"
         id="g2946"
         style="display:inline;enable-background:new">
        <path
           d="M 54.25,72 C 51.89958,72 50,73.89958 50,76.25 l 0,84.75 224,0 0,-84.75 C 274,73.899578 272.10042,72 269.75,72 l -215.5,0 z"
           id="path3419"
           style="opacity:0.6756757;fill:url(#radialGradient3771);fill-opacity:1;stroke:none;display:inline;enable-background:new" />
        <g
           transform="translate(10,0)"
           id="g2886"
           style="display:inline;enable-background:new">
          <path
             d="m 141.40625,139.84375 0,102.75 70.59375,0 c 1.52859,0 3.33944,-0.86171 4.71875,-1.78125 C 218.09806,239.89296 219,239 219,239 l 40,-40 c 0,0 0.89296,-0.90194 1.8125,-2.28125 0.91954,-1.37931 1.78125,-3.19015 1.78125,-4.71875 l 0,-52.15625 -121.1875,0 z"
             id="path8272"
             style="opacity:0.4;fill:url(#linearGradient3773);fill-opacity:1;stroke:none;display:inline;enable-background:new" />
          <g
             id="g8399">
            <path
               d="m -62,207 c 0,-3 1,-4 4,-4 0,0 28,1 28,1 4,0 16,-2 16,-10 l 0,52 -54,0 c 8,0 8,-12 8,-16 l -2,-23 z"
               transform="translate(280,0)"
               clip-path="url(#clipPath3483)"
               id="path3477"
               style="fill:url(#linearGradient3775);fill-opacity:1;stroke:none;display:inline;filter:url(#filter3584);enable-background:new" />
            <g
               transform="translate(270,0)"
               id="g3574">
              <g
                 id="g3588">
                <path
                   d="m -56.25,209.5 c 0.875,-3.375 3.801868,-3.94455 6.75,-4.5 0,0 17.25,-3.25 17.25,-3.25 C -25.663799,200.51509 -16,198 -16,190 l 0,54 -54,0 c 8,0 9,-8.75 10.25,-14.5 l 3.5,-20 z"
                   transform="translate(10,0)"
                   clip-path="url(#clipPath3379)"
                   id="rect3372"
                   style="fill:url(#linearGradient3777);fill-opacity:1;stroke:none" />
                <path
                   d="m -17.875,190 c 0,8 -10.460331,10.52773 -14.479473,10.96339 0,0 -18.530331,2.7045 -18.53033,2.7045 -4.1875,1.125 -5.224111,2.19823 -5.974112,5.44823 L -60.21875,228 c -0.625,4.375 -0.947919,16.375 -8.78125,16.375 l 3.65625,-0.75 c 4.976174,-2.9543 5.09375,-10.94794 5.84375,-14.5 l 4.008883,-18.65533 c 0.728554,-2.09467 2.323224,-3.16789 5.116117,-4.21967 0,0 17.984835,-3.84467 17.984835,-3.84467 3.426777,-0.35355 10.805204,-3.21295 13.890165,-7.99908 L -17.875,190 z"
                   transform="translate(9.875,1)"
                   clip-path="url(#clipPath3379)"
                   id="path3537"
                   style="fill:url(#linearGradient3779);fill-opacity:1;stroke:none;display:inline;enable-background:new" />
              </g>
            </g>
          </g>
          <path
             d="m 45.90624,74.999997 c -2.13796,0 -3.90625,1.768288 -3.90625,3.90625 l 0,136.562503 c 0,0 220.00001,-98.90625 220.00001,-98.90625 l 0,-37.656253 c 0,-2.137958 -1.7683,-3.90625 -3.90625,-3.90625 l -212.18751,0 z"
             id="path2612"
             style="opacity:0.34482757;fill:url(#radialGradient3781);fill-opacity:1;stroke:none;display:inline;enable-background:new" />
        </g>
      </g>
    </g>
    <g
       transform="translate(20,30)"
       id="g256"
       style="display:inline;enable-background:new" />
  </g>
  <g
     transform="translate(0,-44)"
     id="layer4">
    <g
       id="layer5"
       style="display:none">
      <rect
         width="48"
         height="48"
         x="696.00018"
         y="50"
         id="rect2685"
         style="fill:#eeeeec;fill-opacity:1;fill-rule:nonzero;stroke:none;stroke-width:2;marker:none;visibility:visible;display:inline;overflow:visible;enable-background:accumulate" />
      <rect
         width="32"
         height="32"
         x="703.00018"
         y="126"
         id="rect2687"
         style="fill:#eeeeec;fill-opacity:1;fill-rule:nonzero;stroke:none;stroke-width:2;marker:none;visibility:visible;display:inline;overflow:visible;enable-background:accumulate" />
      <rect
         width="22"
         height="22"
         x="703.00018"
         y="177"
         id="rect2689"
         style="fill:#eeeeec;fill-opacity:1;fill-rule:nonzero;stroke:none;stroke-width:2;marker:none;visibility:visible;display:inline;overflow:visible;enable-background:accumulate" />
      <rect
         width="16"
         height="16"
         x="703.00018"
         y="219"
         id="rect2691"
         style="fill:#eeeeec;fill-opacity:1;fill-rule:nonzero;stroke:none;stroke-width:2;marker:none;visibility:visible;display:inline;overflow:visible;enable-background:accumulate" />
      <rect
         width="24"
         height="24"
         x="702.00018"
         y="176"
         id="rect2693"
         style="fill:#eeeeec;fill-opacity:1;fill-rule:nonzero;stroke:none;stroke-width:2;marker:none;visibility:visible;display:inline;overflow:visible;enable-background:accumulate" />
      <rect
         width="256"
         height="256"
         x="424.00018"
         y="36"
         id="rect2695"
         style="fill:#eeeeec;fill-opacity:1;fill-rule:nonzero;stroke:none;stroke-width:2;marker:none;visibility:visible;display:inline;overflow:visible;enable-background:accumulate" />
      <text
         x="420.97092"
         y="21.513618"
         id="text2697"
         xml:space="preserve"
         style="font-size:18.30070686px;font-style:normal;font-weight:normal;fill:#000000;fill-opacity:1;stroke:none;display:inline;enable-background:new;font-family:Bitstream Vera Sans"><tspan
           x="420.97092"
           y="21.513618"
           id="tspan2699">status</tspan></text>
      <text
         x="591.97095"
         y="21.513618"
         id="text2701"
         xml:space="preserve"
         style="font-size:18.30070686px;font-style:normal;font-variant:normal;font-weight:bold;font-stretch:normal;text-align:start;line-height:125%;writing-mode:lr-tb;text-anchor:start;fill:#000000;fill-opacity:1;stroke:none;display:inline;enable-background:new;font-family:Droid Sans;-inkscape-font-specification:Droid Sans Bold"><tspan
           x="591.97095"
           y="21.513618"
           id="tspan2703">image-missing</tspan></text>
    </g>
    <g
       id="layer7" />
    <g
       id="layer8" />
  </g>
</svg>
