<?xml version="1.0" encoding="UTF-8" standalone="no"?>
<!-- Created with Inkscape (http://www.inkscape.org/) -->

<svg
   xmlns:dc="http://purl.org/dc/elements/1.1/"
   xmlns:cc="http://creativecommons.org/ns#"
   xmlns:rdf="http://www.w3.org/1999/02/22-rdf-syntax-ns#"
   xmlns:svg="http://www.w3.org/2000/svg"
   xmlns="http://www.w3.org/2000/svg"
   xmlns:xlink="http://www.w3.org/1999/xlink"
   version="1.0"
   width="256"
   height="256"
   id="svg11300"
   style="display:inline;enable-background:new">
  <title
     id="title4251">Internet</title>
  <metadata
     id="metadata154">
    <rdf:RDF>
      <cc:Work
         rdf:about="">
        <dc:format>image/svg+xml</dc:format>
        <dc:type
           rdf:resource="http://purl.org/dc/dcmitype/StillImage" />
        <dc:title>Internet</dc:title>
        <dc:creator>
          <cc:Agent>
            <dc:title>Jakub Steiner</dc:title>
          </cc:Agent>
        </dc:creator>
        <dc:contributor>
          <cc:Agent>
            <dc:title />
          </cc:Agent>
        </dc:contributor>
        <dc:source>http://jimmac.musichall.cz</dc:source>
        <cc:license
           rdf:resource="" />
        <dc:subject>
          <rdf:Bag>
            <rdf:li>category</rdf:li>
            <rdf:li>internet</rdf:li>
            <rdf:li>globe</rdf:li>
            <rdf:li>earth</rdf:li>
          </rdf:Bag>
        </dc:subject>
      </cc:Work>
    </rdf:RDF>
  </metadata>
  <defs
     id="defs3">
    <linearGradient
       id="linearGradient4292">
      <stop
         id="stop4294"
         style="stop-color:#ffffff;stop-opacity:1"
         offset="0" />
      <stop
         id="stop4302"
         style="stop-color:#ffffff;stop-opacity:0.49803922"
         offset="0.64216334" />
      <stop
         id="stop4300"
         style="stop-color:#ffffff;stop-opacity:0"
         offset="0.92445916" />
      <stop
         id="stop4296"
         style="stop-color:#ffffff;stop-opacity:0"
         offset="1" />
    </linearGradient>
    <linearGradient
       id="linearGradient11409">
      <stop
         id="stop11411"
         style="stop-color:#ffffff;stop-opacity:1"
         offset="0" />
      <stop
         id="stop11413"
         style="stop-color:#ffffff;stop-opacity:0"
         offset="1" />
    </linearGradient>
    <radialGradient
       cx="-393.92828"
       cy="151.57378"
       r="53.539669"
       fx="-393.92828"
       fy="151.57378"
       id="radialGradient13321"
       xlink:href="#linearGradient11409"
       gradientUnits="userSpaceOnUse"
       gradientTransform="matrix(1,0,0,0.710153,-11,40.9332)" />
    <linearGradient
       id="linearGradient11317">
      <stop
         id="stop11319"
         style="stop-color:#000000;stop-opacity:0"
         offset="0" />
      <stop
         id="stop11325"
         style="stop-color:#000000;stop-opacity:0"
         offset="0.90857679" />
      <stop
         id="stop11321"
         style="stop-color:#000000;stop-opacity:1"
         offset="1" />
    </linearGradient>
    <radialGradient
       cx="-394.625"
       cy="176.62453"
       r="75.873161"
       fx="-394.625"
       fy="176.62453"
       id="radialGradient13319"
       xlink:href="#linearGradient11317"
       gradientUnits="userSpaceOnUse"
       gradientTransform="matrix(1.04195,0,0,0.970288,136.554,5.46397)" />
    <clipPath
       id="clipPath11385">
      <path
         d="m -278.63862,180.0711 c 0,41.57122 -33.71082,75.27161 -75.28872,75.27161 -41.58171,0 -75.29062,-33.70077 -75.29062,-75.27161 0,-41.56931 33.70891,-75.26626 75.29062,-75.26626 41.5779,0 75.28872,33.69695 75.28872,75.26626 l 0,0 0,0 z"
         id="path11387"
         style="fill:#000000;fill-opacity:1;fill-rule:nonzero;stroke:none;display:inline" />
    </clipPath>
    <linearGradient
       id="linearGradient11389">
      <stop
         id="stop11391"
         style="stop-color:#ffffff;stop-opacity:1"
         offset="0" />
      <stop
         id="stop11393"
         style="stop-color:#ffffff;stop-opacity:0"
         offset="1" />
    </linearGradient>
    <linearGradient
       id="linearGradient11274">
      <stop
         id="stop11276"
         style="stop-color:#ffffff;stop-opacity:1"
         offset="0" />
      <stop
         id="stop11278"
         style="stop-color:#eeeeec;stop-opacity:1"
         offset="0.15517241" />
      <stop
         id="stop11280"
         style="stop-color:#eeeeec;stop-opacity:1"
         offset="0.63108921" />
      <stop
         id="stop11282"
         style="stop-color:#babdb6;stop-opacity:1"
         offset="0.81554461" />
      <stop
         id="stop11284"
         style="stop-color:#888a85;stop-opacity:1"
         offset="1" />
    </linearGradient>
    <radialGradient
       cx="-418.625"
       cy="149.45743"
       r="75.873161"
       fx="-418.625"
       fy="149.45743"
       id="radialGradient13315"
       xlink:href="#linearGradient11274"
       gradientUnits="userSpaceOnUse"
       gradientTransform="matrix(1.36936,0,0,1.27518,184.623,-39.2447)" />
    <filter
       color-interpolation-filters="sRGB"
       id="filter11433">
      <feGaussianBlur
         id="feGaussianBlur11435"
         stdDeviation="3.6522887" />
    </filter>
    <clipPath
       id="clipPath11206">
      <path
         d="m -243.9375,104.8125 c -7.02173,0 -13.80167,0.98382 -20.25,2.78125 l -0.46875,-0.78125 -3.6875,0.5625 -1.75,1.75 -2.90625,0.40625 -2.5625,1.1875 -1.25,0.625 -0.75,1 0.5625,0.0937 c -1.53104,0.74984 -3.02954,1.55772 -4.5,2.40625 l -0.0937,-0.1875 L -281.75,115 c -1.44999,0.8443 -2.89491,1.71997 -4.28125,2.65625 l -0.15625,-0.0937 -2.3125,-0.34375 -1.25,3.15625 c -0.22912,0.17606 -0.46047,0.35263 -0.6875,0.53125 -0.56625,0.10725 -2.01506,0.37256 -2.53125,0.5 -7.89187,7.27015 -23.82669,22.96568 -27.53125,52.59375 0.072,0.3369 0.7375,1.4663 1.375,2.53125 -0.0541,1.1705 -0.0937,2.34738 -0.0937,3.53125 0,25.27625 12.4771,47.63052 31.59375,61.28125 l -0.0313,0.125 c -0.0277,0.0221 -0.0714,0.12606 0.0937,0.6875 0.22223,0.74898 9.2412,5.737 9.8125,5.3125 0.0677,-0.0514 0.0605,-0.044 0.125,-0.0937 10.14129,5.08505 21.56949,7.96875 33.6875,7.96875 41.5779,0 75.31249,-33.71004 75.3125,-75.28125 0,-3.87598 -0.30979,-7.68809 -0.875,-11.40625 l 0.75,-0.84375 c -1e-5,-2.58611 -2.95264,-15.32133 -9.25,-26.125 C -184.29737,130.88738 -195.34376,121 -195.34375,121 l -0.625,1.0625 c -0.65527,-0.54189 -1.32635,-1.0739 -2,-1.59375 l 0.59375,-0.65625 -1.90625,-0.34375 c -12.49267,-9.21343 -27.94193,-14.65625 -44.65625,-14.65625 l 0,0 z"
         id="path11208"
         style="fill:#000000;fill-opacity:1;fill-rule:nonzero;stroke:none" />
    </clipPath>
    <linearGradient
       id="linearGradient11246">
      <stop
         id="stop11248"
         style="stop-color:#000000;stop-opacity:1"
         offset="0" />
      <stop
         id="stop11250"
         style="stop-color:#000000;stop-opacity:0"
         offset="1" />
    </linearGradient>
    <linearGradient
       id="linearGradient11443">
      <stop
         id="stop11445"
         style="stop-color:#000000;stop-opacity:0"
         offset="0" />
      <stop
         id="stop11447"
         style="stop-color:#000000;stop-opacity:0"
         offset="0.82124048" />
      <stop
         id="stop11449"
         style="stop-color:#000000;stop-opacity:1"
         offset="1" />
    </linearGradient>
    <radialGradient
       cx="-393.92831"
       cy="174.24374"
       r="75.289673"
       fx="-393.92831"
       fy="174.24374"
       id="radialGradient13309"
       xlink:href="#linearGradient11443"
       gradientUnits="userSpaceOnUse"
       gradientTransform="matrix(1.02822,-6.64974e-8,6.64791e-8,1.02794,11.1161,-4.8659495)" />
    <linearGradient
       id="linearGradient3962-0-2">
      <stop
         id="stop3964-8-7"
         style="stop-color:#d3e9ff;stop-opacity:1"
         offset="0" />
      <stop
         id="stop4134-4-4"
         style="stop-color:#d3e9ff;stop-opacity:1"
         offset="0.15517241" />
      <stop
         id="stop4346-0-9"
         style="stop-color:#4074ae;stop-opacity:1"
         offset="0.63108921" />
      <stop
         id="stop6610-7-8"
         style="stop-color:#3b5e8d;stop-opacity:1"
         offset="0.81554461" />
      <stop
         id="stop3966-3-8"
         style="stop-color:#526ea5;stop-opacity:1"
         offset="1" />
    </linearGradient>
    <radialGradient
       cx="18.247644"
       cy="15.716079"
       r="29.993349"
       fx="18.247644"
       fy="15.716079"
       id="radialGradient13307"
       xlink:href="#linearGradient3962-0-2"
       gradientUnits="userSpaceOnUse"
       gradientTransform="matrix(3.58754,0,0,3.58655,-483.939,93.5472)" />
    <filter
       x="-0.050594162"
       y="-0.13674098"
       width="1.1011883"
       height="1.273482"
       color-interpolation-filters="sRGB"
       id="filter34615-9">
      <feGaussianBlur
         stdDeviation="0.85179702"
         id="feGaussianBlur34617-7" />
    </filter>
    <radialGradient
       cx="15.115514"
       cy="63.965389"
       r="12.289036"
       fx="15.115514"
       fy="63.965389"
       id="radialGradient13305"
       xlink:href="#linearGradient4114-0-9"
       gradientUnits="userSpaceOnUse"
       gradientTransform="scale(1.64399,0.608276)" />
    <linearGradient
       id="linearGradient4114-0-9">
      <stop
         id="stop4116-2-4"
         style="stop-color:#000000;stop-opacity:1"
         offset="0" />
      <stop
         id="stop4118-3-7"
         style="stop-color:#000000;stop-opacity:0"
         offset="1" />
    </linearGradient>
    <radialGradient
       cx="15.115514"
       cy="63.965389"
       r="12.289036"
       fx="15.115514"
       fy="63.965389"
       id="radialGradient13303"
       xlink:href="#linearGradient4114-0-9"
       gradientUnits="userSpaceOnUse"
       gradientTransform="matrix(1.64137,0,0,0.607307,0.0395667,0.0619518)" />
    <radialGradient
       cx="-259.125"
       cy="152.67899"
       r="75.873161"
       fx="-259.125"
       fy="152.67899"
       id="radialGradient9937"
       xlink:href="#linearGradient11246"
       gradientUnits="userSpaceOnUse"
       gradientTransform="matrix(1.03295,0,0,0.961908,8.5381,7.47752)" />
    <radialGradient
       cx="-376.48489"
       cy="150.05486"
       r="75.483063"
       fx="-376.48489"
       fy="150.05486"
       id="radialGradient9939"
       xlink:href="#linearGradient11389"
       gradientUnits="userSpaceOnUse"
       gradientTransform="matrix(1.05964,0,0,0.998879,22.4523,1.70413)" />
    <clipPath
       id="clipPath10470">
      <path
         d="m -318.63862,180.0711 c 0,41.57122 -33.71082,75.27161 -75.28872,75.27161 -41.58171,0 -75.29062,-33.70077 -75.29062,-75.27161 0,-41.56931 33.70891,-75.26626 75.29062,-75.26626 41.5779,0 75.28872,33.69695 75.28872,75.26626 l 0,0 0,0 z"
         id="path10472"
         style="fill:none;stroke:#000000;stroke-opacity:1;display:inline" />
    </clipPath>
    <filter
       color-interpolation-filters="sRGB"
       id="filter10478">
      <feGaussianBlur
         stdDeviation="1.513086"
         id="feGaussianBlur10480" />
    </filter>
    <radialGradient
       cx="148.0625"
       cy="160.8125"
       r="75.661575"
       fx="148.0625"
       fy="160.8125"
       id="radialGradient4298"
       xlink:href="#linearGradient4292"
       gradientUnits="userSpaceOnUse"
       gradientTransform="matrix(1,0,0,0.9310251,0,11.092026)" />
    <linearGradient
       id="linearGradient28860-5-0-9">
      <stop
         id="stop28862-7-6-1"
         style="stop-color:#ffffff;stop-opacity:1"
         offset="0" />
      <stop
         id="stop28864-3-0-3"
         style="stop-color:#ffffff;stop-opacity:0"
         offset="1" />
    </linearGradient>
    <filter
       x="-0.063895531"
       y="-0.11194715"
       width="1.127791"
       height="1.2238944"
       color-interpolation-filters="sRGB"
       id="filter28868-5-7-4">
      <feGaussianBlur
         stdDeviation="3.7621822"
         id="feGaussianBlur28870-6-4-5" />
    </filter>
    <radialGradient
       cx="186.5"
       cy="271.14932"
       r="70.65625"
       fx="186.5"
       fy="271.14932"
       id="radialGradient4323"
       xlink:href="#linearGradient28860-5-0-9"
       gradientUnits="userSpaceOnUse"
       gradientTransform="matrix(1,0,0,0.570765,-61.5833,47.7142)" />
  </defs>
  <g
     transform="translate(0,-44)"
     id="layer6"
     style="display:none">
    <rect
       width="48"
       height="48"
       x="296"
       y="50"
       id="rect6284"
       style="fill:#eeeeec;fill-opacity:1;fill-rule:nonzero;stroke:none;stroke-width:2;marker:none;visibility:visible;display:inline;overflow:visible;enable-background:accumulate" />
    <rect
       width="32"
       height="32"
       x="303"
       y="126"
       id="rect6592"
       style="fill:#eeeeec;fill-opacity:1;fill-rule:nonzero;stroke:none;stroke-width:2;marker:none;visibility:visible;display:inline;overflow:visible;enable-background:accumulate" />
    <rect
       width="22"
       height="22"
       x="303"
       y="177"
       id="rect6749"
       style="fill:#eeeeec;fill-opacity:1;fill-rule:nonzero;stroke:none;stroke-width:2;marker:none;visibility:visible;display:inline;overflow:visible;enable-background:accumulate" />
    <rect
       width="16"
       height="16"
       x="303"
       y="219"
       id="rect6833"
       style="fill:#eeeeec;fill-opacity:1;fill-rule:nonzero;stroke:none;stroke-width:2;marker:none;visibility:visible;display:inline;overflow:visible;enable-background:accumulate" />
    <text
       x="20.970737"
       y="21.513618"
       id="context"
       xml:space="preserve"
       style="font-size:18.30070686px;font-style:normal;font-weight:normal;fill:#000000;fill-opacity:1;stroke:none;display:inline;enable-background:new;font-family:Bitstream Vera Sans"><tspan
         x="20.970737"
         y="21.513618"
         id="tspan2716">apps</tspan></text>
    <text
       x="191.97073"
       y="21.513618"
       id="icon-name"
       xml:space="preserve"
       style="font-size:18.30070686px;font-style:normal;font-variant:normal;font-weight:bold;font-stretch:normal;text-align:start;line-height:125%;writing-mode:lr-tb;text-anchor:start;fill:#000000;fill-opacity:1;stroke:none;display:inline;enable-background:new;font-family:Droid Sans;-inkscape-font-specification:Droid Sans Bold"><tspan
         x="191.97073"
         y="21.513618"
         id="tspan3023">web-browser</tspan></text>
    <rect
       width="256"
       height="256"
       x="16"
       y="28"
       id="rect6282"
       style="fill:#eeeeec;fill-opacity:1;fill-rule:nonzero;stroke:none;stroke-width:2;marker:none;visibility:visible;display:inline;overflow:visible;enable-background:accumulate" />
    <rect
       width="24"
       height="24"
       x="302"
       y="176"
       id="rect3603"
       style="fill:#eeeeec;fill-opacity:1;fill-rule:nonzero;stroke:none;stroke-width:2;marker:none;visibility:visible;display:inline;overflow:visible;enable-background:accumulate" />
  </g>
  <g
     transform="translate(0,-44)"
     id="layer2"
     style="display:inline">
    <g
       transform="matrix(1.4323413,0,0,1.4323413,-82.902012,-76.073846)"
       id="g13284"
       style="display:inline">
      <g
         transform="translate(712,-16)"
         id="g11479">
        <path
           d="m 45.052803,38.908627 a 20.203051,7.4751287 0 1 1 -40.4061012,0 20.203051,7.4751287 0 1 1 40.4061012,0 z"
           transform="matrix(2.13785,0,0,2.48261,-616.646,146.857)"
           id="path9120"
           style="opacity:0.869388;fill:url(#radialGradient13303);fill-opacity:1;stroke:none" />
        <path
           d="m 45.052803,38.908627 a 20.203051,7.4751287 0 1 1 -40.4061012,0 20.203051,7.4751287 0 1 1 40.4061012,0 z"
           transform="matrix(3.17465,0,0,3.6866,-642.41,95.7452)"
           id="path9122"
           style="opacity:0.63265297;fill:url(#radialGradient13305);fill-opacity:1;stroke:none;filter:url(#filter34615-9)" />
        <g
           transform="translate(-170,0)"
           id="g11451">
          <path
             d="m -318.63862,180.0711 c 0,41.57122 -33.71082,75.27161 -75.28872,75.27161 -41.58171,0 -75.29062,-33.70077 -75.29062,-75.27161 0,-41.56931 33.70891,-75.26626 75.29062,-75.26626 41.5779,0 75.28872,33.69695 75.28872,75.26626 l 0,0 0,0 z"
             id="path11158"
             style="fill:url(#radialGradient13307);fill-opacity:1;fill-rule:nonzero;stroke:none;display:inline" />
          <path
             d="m -318.63862,180.0711 c 0,41.57122 -33.71082,75.27161 -75.28872,75.27161 -41.58171,0 -75.29062,-33.70077 -75.29062,-75.27161 0,-41.56931 33.70891,-75.26626 75.29062,-75.26626 41.5779,0 75.28872,33.69695 75.28872,75.26626 l 0,0 0,0 z"
             id="path11303"
             style="opacity:0.489796;fill:url(#radialGradient13309);fill-opacity:1;fill-rule:nonzero;stroke:none;display:inline" />
          <path
             d="m -243.24342,107.18574 -8.61759,0.95396 -10.62099,2.92554 -2.03515,1.97157 6.61426,4.54729 0,2.60755 -2.57574,2.57575 3.43433,6.83684 2.28954,-1.30377 2.89375,-4.54729 c 4.43992,-1.3723 8.43601,-2.91398 12.65612,-4.8653 l 3.43432,-8.77661 -7.47285,-2.92553 0,0 z m -20.41515,0.63598 -3.68872,0.54058 -1.74895,1.74897 -2.89375,0.41338 -2.57574,1.20838 -1.24017,0.60419 -0.76319,1.01758 3.72052,0.63598 1.43098,-1.30377 2.89373,-0.63598 c 1.96888,-0.95729 3.95277,-1.61408 6.04186,-2.28956 l -1.17657,-1.93975 0,0 z m -11.76574,7.79083 -2.60755,0.66778 -1.14477,2.28956 -1.43096,-2.92554 -0.57241,1.27196 0.28621,3.27534 -2.28956,1.93976 -1.43097,3.59332 2.86194,0 1.43097,-3.27534 c 1.23942,-0.87625 2.48992,-1.76407 3.75232,-2.60754 l 2.86194,0.98579 c 1.9151,1.30075 3.83895,2.61253 5.75568,3.91131 l 2.86194,-2.60754 -3.14814,-1.30377 -1.43097,-2.92553 -5.46948,-0.636 -0.28619,-1.65356 z m -12.08375,2.60754 -1.43096,3.59332 c -10e-6,0 -2.40297,0.45163 -3.02093,0.60419 -7.89188,7.27015 -23.83365,22.968 -27.53821,52.59607 0.14672,0.68694 2.67114,4.67449 2.67114,4.67449 l 6.04187,3.59332 6.04186,1.62177 2.57576,3.24353 4.03851,2.92554 2.28955,-0.318 1.71717,0.76319 0,0.54058 -2.28956,6.16908 -1.71716,2.60754 0.57238,1.30377 -1.43097,4.86529 5.15149,9.4444 5.1833,4.54731 2.28955,3.24352 -0.28621,6.83685 1.74897,3.91131 -1.74897,7.47285 c -0.0277,0.0221 -0.0698,0.13815 0.0954,0.69959 0.22222,0.74899 9.22288,5.73498 9.79418,5.31048 0.56931,-0.43241 1.04938,-0.82678 1.04938,-0.82678 l -0.57238,-1.58997 2.28954,-2.28955 0.85858,-2.28955 3.75233,-1.30377 2.86193,-7.15485 -0.85858,-1.93976 2.00336,-2.92553 4.3247,-0.98578 2.28955,-5.18329 -0.57238,-6.51886 3.43432,-4.8653 0.57239,-4.89709 c -4.71829,-2.33905 -9.37221,-4.74661 -14.05529,-7.15484 l -2.32135,-4.54731 -4.29292,-0.98577 -2.32135,-6.16907 -5.72387,0.66779 -4.89709,-3.59332 -5.18328,4.54729 0,0.73138 c -1.56566,-0.45176 -3.47126,-0.51045 -4.86531,-1.36736 l -1.14477,-3.24353 0,-3.59332 -3.46612,0.31799 c 0.28784,-2.27741 0.56878,-4.52804 0.85858,-6.80505 l -2.00337,0 -2.00335,2.57573 -2.03515,0.9858 -2.86194,-1.62178 -0.2862,-3.59332 0.5724,-3.87952 4.32471,-3.24352 3.43432,0 0.57239,-1.97156 4.32471,0.98578 3.14812,3.91131 0.5724,-6.51886 5.46947,-4.54731 2.00335,-4.89708 4.03853,-1.62177 2.28953,-3.24353 5.18329,-0.98578 2.57576,-3.87951 c -2.58689,0 -5.17216,0 -7.75905,0 l 4.89711,-2.28955 3.43432,0 4.8971,-1.62177 0.57238,-1.93976 -1.71715,-1.65356 -2.03517,-0.63599 0.5724,-1.93975 -1.43098,-2.92554 -3.43432,1.27197 0.57239,-2.57574 -4.03852,-2.28955 -3.14813,5.53307 0.28619,1.93977 -3.14813,1.30377 -2.03515,4.22931 -0.85858,-3.91132 -5.46949,-2.25775 -0.85857,-2.92553 7.18664,-4.22932 3.17993,-2.92554 0.2862,-3.59331 -1.71718,-0.95398 -2.32135,-0.3498 10e-6,0 z m 80.51587,0 -5.46949,1.30378 -3.43433,2.28954 0,1.93977 -5.46947,3.59332 1.14477,5.18328 3.17994,-2.25774 2.00335,2.25774 2.28955,1.30378 1.46277,-3.87952 -0.89039,-2.28955 0.89039,-1.62177 3.14813,-2.92554 1.43096,0 -1.43096,3.24354 0,2.92554 c 1.32052,-0.35928 2.65535,-0.46802 4.00672,-0.63599 l -3.72053,2.57574 -0.28619,1.65357 -4.32471,3.56152 -4.29291,-0.98578 0,-2.57574 -2.00335,1.30377 0.85858,2.25775 -3.17992,0 -1.71717,2.92554 -2.16235,2.44854 -3.87952,0.79498 2.28955,2.28956 0.60418,2.25775 -2.89373,0 -3.72051,1.97155 0,5.85108 1.71715,0 1.58997,1.78076 3.59332,-1.78076 1.43098,-3.59333 2.57573,-1.62176 0.5724,-1.30378 4.32469,-0.95397 2.28956,2.60755 2.60755,1.27196 -1.46277,2.92555 2.32134,-0.63599 1.14479,-2.92554 -2.89375,-3.24353 1.17657,0 2.86194,2.25775 0.57239,3.27534 2.57575,2.92553 0.57238,-4.22931 1.46278,-0.66779 c 1.42093,1.47466 2.52373,3.23747 3.72052,4.8971 l 4.32471,0.31799 2.57573,1.62177 -1.14477,1.62176 -2.57575,2.28955 -3.75231,0 -4.8971,-1.62176 -2.57575,0.31798 -1.87615,2.09876 -5.31049,-5.34228 -3.72052,-0.98578 -5.46947,0.63598 -4.8971,1.30378 c -2.74147,3.10703 -5.45045,6.21759 -8.04523,9.44439 l -3.14814,7.47285 1.43098,1.62176 -2.57574,3.91131 2.86194,6.83686 c 2.44374,2.76355 4.87366,5.50229 7.31384,8.26782 l 3.59332,-3.08454 1.58997,1.81257 3.8795,-2.44856 1.30378,1.46277 3.87952,0 2.22595,2.51216 -1.36737,4.48369 2.73474,3.08454 -0.159,5.37408 2.03515,3.87952 -1.46277,3.27533 c -0.14311,2.39281 -0.28618,4.76162 -0.28618,7.15484 1.1778,3.24221 2.35394,6.46507 3.46613,9.73059 l 0.85858,5.2151 0,2.60753 2.00335,0 3.17993,-1.93975 3.72052,0 5.59668,-6.35987 -0.69959,-2.09875 3.72052,-3.27533 -2.73473,-3.08454 3.30712,-2.76654 3.17993,-1.93975 1.43098,-1.62178 -0.8586,-3.59332 c 0,-3.0335 0,-6.06068 0,-9.09459 l 2.57576,-5.53308 3.17992,-3.56152 3.43432,-8.45862 0,-2.28955 c -1.71298,0.21571 -3.38021,0.42013 -5.05609,0.54058 l 3.46613,-3.46612 4.7381,-3.24353 2.60755,-2.92554 0,-3.27533 c -0.57527,-1.08456 -1.16977,-2.15898 -1.74896,-3.24352 l -2.28955,2.60754 -1.71718,-1.93976 -2.57573,-1.97157 0,-4.2293 3.02094,3.43432 3.27532,-0.50878 c 1.50554,1.36638 3.00418,2.67362 4.3247,4.2293 l 2.16236,-2.41673 c 0,-2.58611 -2.95624,-15.33538 -9.2536,-26.13905 -6.29736,-10.80011 -17.33064,-20.66955 -17.33063,-20.66955 l -0.85858,1.43096 -2.89374,3.24355 -3.72051,-3.91132 3.72051,0 1.71717,-1.93976 -6.86865,-1.30377 -3.75232,-1.30378 0,0 z m -28.49218,4.2293 -2.28956,1.30379 -1.14478,-0.31801 -0.28618,1.93976 2.00335,1.30379 3.43433,-2.25776 -1.71716,-1.97157 0,0 z m -37.93658,0.66779 -2.28956,1.62177 2.86194,1.93977 2.28956,0 0,-2.25776 -2.86194,-1.30378 0,0 z m 45.40941,7.47284 0,1.93976 1.14478,1.30378 0,2.92552 -0.57239,3.91133 3.17993,-0.63599 2.28956,-2.28956 -2.00336,-1.93974 c -0.67567,-1.79877 -1.47568,-3.48984 -2.32135,-5.2151 l -1.71717,0 z m -1.14477,3.91132 -2.00335,0.63599 0.57238,3.59333 2.57574,-1.30378 -1.14477,-2.92554 z m -39.65375,5.85107 0.85859,4.54731 1.71717,-2.60755 -2.57576,-1.93976 z m 75.04638,25.37586 3.30713,3.72052 3.87952,8.29961 2.28954,2.60755 -1.14476,2.92553 2.19415,2.48035 c -1.00856,0.0684 -2.0157,0.1272 -3.05273,0.1272 -1.83014,-3.84456 -3.21724,-7.71192 -4.61091,-11.73395 l -2.44854,-2.76654 -1.27197,-4.70629 0.85857,-0.95398 z"
             transform="translate(-150,0)"
             clip-path="url(#clipPath11206)"
             id="path11162"
             style="fill:url(#radialGradient9937);fill-opacity:1;fill-rule:nonzero;stroke:none;stroke-width:0.120316;marker:none;visibility:visible;display:inline;overflow:visible;filter:url(#filter11433)" />
          <path
             d="m -318.63862,180.0711 c 0,41.57122 -33.71082,75.27161 -75.28872,75.27161 -41.58171,0 -75.29062,-33.70077 -75.29062,-75.27161 0,-41.56931 33.70891,-75.26626 75.29062,-75.26626 41.5779,0 75.28872,33.69695 75.28872,75.26626 l 0,0 0,0 z"
             transform="matrix(1.0092118,0,0,1.0092118,3.62878,-1.6611026)"
             clip-path="url(#clipPath10470)"
             id="path10466"
             style="fill:none;stroke:#000000;stroke-width:0.99087232;stroke-opacity:1;display:inline;filter:url(#filter10478)" />
          <g
             transform="translate(-120,0)"
             id="g11427">
            <g
               transform="translate(90,0)"
               id="g11419">
              <path
                 d="m -364.24342,106.18574 -8.61759,0.95396 -10.62099,2.92554 -2.03515,1.97157 6.61426,4.54729 0,2.60755 -2.57574,2.57575 3.43433,6.83684 2.28954,-1.30377 2.89375,-4.54729 c 4.43992,-1.3723 8.43601,-2.91398 12.65612,-4.8653 l 3.43432,-8.77661 -7.47285,-2.92553 0,0 z m -20.41515,0.63598 -3.68872,0.54058 -1.74895,1.74897 -2.89375,0.41338 -2.57574,1.20838 -1.24017,0.60419 -0.76319,1.01758 3.72052,0.63598 1.43098,-1.30377 2.89373,-0.63598 c 1.96888,-0.95729 3.95277,-1.61408 6.04186,-2.28956 l -1.17657,-1.93975 0,0 z m -11.76574,7.79083 -2.60755,0.66778 -1.14477,2.28956 -1.43096,-2.92554 -0.57241,1.27196 0.28621,3.27534 -2.28956,1.93976 -1.43097,3.59332 2.86194,0 1.43097,-3.27534 c 1.23942,-0.87625 2.48992,-1.76407 3.75232,-2.60754 l 2.86194,0.98579 c 1.9151,1.30075 3.83895,2.61253 5.75568,3.91131 l 2.86194,-2.60754 -3.14814,-1.30377 -1.43097,-2.92553 -5.46948,-0.636 -0.28619,-1.65356 z m -12.08375,2.60754 -1.43096,3.59332 c -10e-6,0 -2.40297,0.45163 -3.02093,0.60419 -7.89188,7.27015 -23.83365,22.968 -27.53821,52.59607 0.14672,0.68694 2.67114,4.67449 2.67114,4.67449 l 6.04187,3.59332 6.04186,1.62177 2.57576,3.24353 4.03851,2.92554 2.28955,-0.318 1.71717,0.76319 0,0.54058 -2.28956,6.16908 -1.71716,2.60754 0.57238,1.30377 -1.43097,4.86529 5.15149,9.4444 5.1833,4.54731 2.28955,3.24352 -0.28621,6.83685 1.74897,3.91131 -1.74897,7.47285 c -0.0277,0.0221 -0.0698,0.13815 0.0954,0.69959 0.22222,0.74899 9.22288,5.73498 9.79418,5.31048 0.56931,-0.43241 1.04938,-0.82678 1.04938,-0.82678 l -0.57238,-1.58997 2.28954,-2.28955 0.85858,-2.28955 3.75233,-1.30377 2.86193,-7.15485 -0.85858,-1.93976 2.00336,-2.92553 4.3247,-0.98578 2.28955,-5.18329 -0.57238,-6.51886 3.43432,-4.8653 0.57239,-4.89709 c -4.71829,-2.33905 -9.37221,-4.74661 -14.05529,-7.15484 l -2.32135,-4.54731 -4.29292,-0.98577 -2.32135,-6.16907 -5.72387,0.66779 -4.89709,-3.59332 -5.18328,4.54729 0,0.73138 c -1.56566,-0.45176 -3.47126,-0.51045 -4.86531,-1.36736 l -1.14477,-3.24353 0,-3.59332 -3.46612,0.31799 c 0.28784,-2.27741 0.56878,-4.52804 0.85858,-6.80505 l -2.00337,0 -2.00335,2.57573 -2.03515,0.9858 -2.86194,-1.62178 -0.2862,-3.59332 0.5724,-3.87952 4.32471,-3.24352 3.43432,0 0.57239,-1.97156 4.32471,0.98578 3.14812,3.91131 0.5724,-6.51886 5.46947,-4.54731 2.00335,-4.89708 4.03853,-1.62177 2.28953,-3.24353 5.18329,-0.98578 2.57576,-3.87951 c -2.58689,0 -5.17216,0 -7.75905,0 l 4.89711,-2.28955 3.43432,0 4.8971,-1.62177 0.57238,-1.93976 -1.71715,-1.65356 -2.03517,-0.63599 0.5724,-1.93975 -1.43098,-2.92554 -3.43432,1.27197 0.57239,-2.57574 -4.03852,-2.28955 -3.14813,5.53307 0.28619,1.93977 -3.14813,1.30377 -2.03515,4.22931 -0.85858,-3.91132 -5.46949,-2.25775 -0.85857,-2.92553 7.18664,-4.22932 3.17993,-2.92554 0.2862,-3.59331 -1.71718,-0.95398 -2.32135,-0.3498 10e-6,0 z m 80.51587,0 -5.46949,1.30378 -3.43433,2.28954 0,1.93977 -5.46947,3.59332 1.14477,5.18328 3.17994,-2.25774 2.00335,2.25774 2.28955,1.30378 1.46277,-3.87952 -0.89039,-2.28955 0.89039,-1.62177 3.14813,-2.92554 1.43096,0 -1.43096,3.24354 0,2.92554 c 1.32052,-0.35928 2.65535,-0.46802 4.00672,-0.63599 l -3.72053,2.57574 -0.28619,1.65357 -4.32471,3.56152 -4.29291,-0.98578 0,-2.57574 -2.00335,1.30377 0.85858,2.25775 -3.17992,0 -1.71717,2.92554 -2.16235,2.44854 -3.87952,0.79498 2.28955,2.28956 0.60418,2.25775 -2.89373,0 -3.72051,1.97155 0,5.85108 1.71715,0 1.58997,1.78076 3.59332,-1.78076 1.43098,-3.59333 2.57573,-1.62176 0.5724,-1.30378 4.32469,-0.95397 2.28956,2.60755 2.60755,1.27196 -1.46277,2.92555 2.32134,-0.63599 1.14479,-2.92554 -2.89375,-3.24353 1.17657,0 2.86194,2.25775 0.57239,3.27534 2.57575,2.92553 0.57238,-4.22931 1.46278,-0.66779 c 1.42093,1.47466 2.52373,3.23747 3.72052,4.8971 l 4.32471,0.31799 2.57573,1.62177 -1.14477,1.62176 -2.57575,2.28955 -3.75231,0 -4.8971,-1.62176 -2.57575,0.31798 -1.87615,2.09876 -5.31049,-5.34228 -3.72052,-0.98578 -5.46947,0.63598 -4.8971,1.30378 c -2.74147,3.10703 -5.45045,6.21759 -8.04523,9.44439 l -3.14814,7.47285 1.43098,1.62176 -2.57574,3.91131 2.86194,6.83686 c 2.44374,2.76355 4.87366,5.50229 7.31384,8.26782 l 3.59332,-3.08454 1.58997,1.81257 3.8795,-2.44856 1.30378,1.46277 3.87952,0 2.22595,2.51216 -1.36737,4.48369 2.73474,3.08454 -0.159,5.37408 2.03515,3.87952 -1.46277,3.27533 c -0.14311,2.39281 -0.28618,4.76162 -0.28618,7.15484 1.1778,3.24221 2.35394,6.46507 3.46613,9.73059 l 0.85858,5.2151 0,2.60753 2.00335,0 3.17993,-1.93975 3.72052,0 5.59668,-6.35987 -0.69959,-2.09875 3.72052,-3.27533 -2.73473,-3.08454 3.30712,-2.76654 3.17993,-1.93975 1.43098,-1.62178 -0.8586,-3.59332 c 0,-3.0335 0,-6.06068 0,-9.09459 l 2.57576,-5.53308 3.17992,-3.56152 3.43432,-8.45862 0,-2.28955 c -1.71298,0.21571 -3.38021,0.42013 -5.05609,0.54058 l 3.46613,-3.46612 4.7381,-3.24353 2.60755,-2.92554 0,-3.27533 c -0.57527,-1.08456 -1.16977,-2.15898 -1.74896,-3.24352 l -2.28955,2.60754 -1.71718,-1.93976 -2.57573,-1.97157 0,-4.2293 3.02094,3.43432 3.27532,-0.50878 c 1.50554,1.36638 3.00418,2.67362 4.3247,4.2293 l 2.16236,-2.41673 c 0,-2.58611 -2.95624,-15.33538 -9.2536,-26.13905 -6.29736,-10.80011 -17.33064,-20.66955 -17.33063,-20.66955 l -0.85858,1.43096 -2.89374,3.24355 -3.72051,-3.91132 3.72051,0 1.71717,-1.93976 -6.86865,-1.30377 -3.75232,-1.30378 0,0 z m -28.49218,4.2293 -2.28956,1.30379 -1.14478,-0.31801 -0.28618,1.93976 2.00335,1.30379 3.43433,-2.25776 -1.71716,-1.97157 0,0 z m -37.93658,0.66779 -2.28956,1.62177 2.86194,1.93977 2.28956,0 0,-2.25776 -2.86194,-1.30378 0,0 z m 45.40941,7.47284 0,1.93976 1.14478,1.30378 0,2.92552 -0.57239,3.91133 3.17993,-0.63599 2.28956,-2.28956 -2.00336,-1.93974 c -0.67567,-1.79877 -1.47568,-3.48984 -2.32135,-5.2151 l -1.71717,0 0,0 z m -1.14477,3.91132 -2.00335,0.63599 0.57238,3.59333 2.57574,-1.30378 -1.14477,-2.92554 z m -39.65375,5.85107 0.85859,4.54731 1.71717,-2.60755 -2.57576,-1.93976 z m 75.04638,25.37586 3.30713,3.72052 3.87952,8.29961 2.28954,2.60755 -1.14476,2.92553 2.19415,2.48035 c -1.00856,0.0684 -2.0157,0.1272 -3.05273,0.1272 -1.83014,-3.84456 -3.21724,-7.71192 -4.61091,-11.73395 l -2.44854,-2.76654 -1.27197,-4.70629 0.85857,-0.95398 0,0 z"
                 id="path11234"
                 style="fill:url(#radialGradient13315);fill-opacity:1;fill-rule:nonzero;stroke-width:0.120316;marker:none;visibility:visible;display:inline;overflow:visible" />
              <path
                 d="m -354.24342,106.18574 -8.61759,0.95396 -10.62099,2.92554 -2.03515,1.97157 6.61426,4.54729 0,2.60755 -2.57574,2.57575 3.43433,6.83684 2.28954,-1.30377 2.89375,-4.54729 c 4.43992,-1.3723 8.43601,-2.91398 12.65612,-4.8653 l 3.43432,-8.77661 -7.47285,-2.92553 0,0 z m -20.41515,0.63598 -3.68872,0.54058 -1.74895,1.74897 -2.89375,0.41338 -2.57574,1.20838 -1.24017,0.60419 -0.76319,1.01758 3.72052,0.63598 1.43098,-1.30377 2.89373,-0.63598 c 1.96888,-0.95729 3.95277,-1.61408 6.04186,-2.28956 l -1.17657,-1.93975 0,0 z m -11.76574,7.79083 -2.60755,0.66778 -1.14477,2.28956 -1.43096,-2.92554 -0.57241,1.27196 0.28621,3.27534 -2.28956,1.93976 -1.43097,3.59332 2.86194,0 1.43097,-3.27534 c 1.23942,-0.87625 2.48992,-1.76407 3.75232,-2.60754 l 2.86194,0.98579 c 1.9151,1.30075 3.83895,2.61253 5.75568,3.91131 l 2.86194,-2.60754 -3.14814,-1.30377 -1.43097,-2.92553 -5.46948,-0.636 -0.28619,-1.65356 z m -12.08375,2.60754 -1.43096,3.59332 c -10e-6,0 -2.40297,0.45163 -3.02093,0.60419 -7.89188,7.27015 -23.83365,22.968 -27.53821,52.59607 0.14672,0.68694 2.67114,4.67449 2.67114,4.67449 l 6.04187,3.59332 6.04186,1.62177 2.57576,3.24353 4.03851,2.92554 2.28955,-0.318 1.71717,0.76319 0,0.54058 -2.28956,6.16908 -1.71716,2.60754 0.57238,1.30377 -1.43097,4.86529 5.15149,9.4444 5.1833,4.54731 2.28955,3.24352 -0.28621,6.83685 1.74897,3.91131 -1.74897,7.47285 c -0.0277,0.0221 -0.0698,0.13815 0.0954,0.69959 0.22222,0.74899 9.22288,5.73498 9.79418,5.31048 0.56931,-0.43241 1.04938,-0.82678 1.04938,-0.82678 l -0.57238,-1.58997 2.28954,-2.28955 0.85858,-2.28955 3.75233,-1.30377 2.86193,-7.15485 -0.85858,-1.93976 2.00336,-2.92553 4.3247,-0.98578 2.28955,-5.18329 -0.57238,-6.51886 3.43432,-4.8653 0.57239,-4.89709 c -4.71829,-2.33905 -9.37221,-4.74661 -14.05529,-7.15484 l -2.32135,-4.54731 -4.29292,-0.98577 -2.32135,-6.16907 -5.72387,0.66779 -4.89709,-3.59332 -5.18328,4.54729 0,0.73138 c -1.56566,-0.45176 -3.47126,-0.51045 -4.86531,-1.36736 l -1.14477,-3.24353 0,-3.59332 -3.46612,0.31799 c 0.28784,-2.27741 0.56878,-4.52804 0.85858,-6.80505 l -2.00337,0 -2.00335,2.57573 -2.03515,0.9858 -2.86194,-1.62178 -0.2862,-3.59332 0.5724,-3.87952 4.32471,-3.24352 3.43432,0 0.57239,-1.97156 4.32471,0.98578 3.14812,3.91131 0.5724,-6.51886 5.46947,-4.54731 2.00335,-4.89708 4.03853,-1.62177 2.28953,-3.24353 5.18329,-0.98578 2.57576,-3.87951 c -2.58689,0 -5.17216,0 -7.75905,0 l 4.89711,-2.28955 3.43432,0 4.8971,-1.62177 0.57238,-1.93976 -1.71715,-1.65356 -2.03517,-0.63599 0.5724,-1.93975 -1.43098,-2.92554 -3.43432,1.27197 0.57239,-2.57574 -4.03852,-2.28955 -3.14813,5.53307 0.28619,1.93977 -3.14813,1.30377 -2.03515,4.22931 -0.85858,-3.91132 -5.46949,-2.25775 -0.85857,-2.92553 7.18664,-4.22932 3.17993,-2.92554 0.2862,-3.59331 -1.71718,-0.95398 -2.32135,-0.3498 10e-6,0 z m 80.51587,0 -5.46949,1.30378 -3.43433,2.28954 0,1.93977 -5.46947,3.59332 1.14477,5.18328 3.17994,-2.25774 2.00335,2.25774 2.28955,1.30378 1.46277,-3.87952 -0.89039,-2.28955 0.89039,-1.62177 3.14813,-2.92554 1.43096,0 -1.43096,3.24354 0,2.92554 c 1.32052,-0.35928 2.65535,-0.46802 4.00672,-0.63599 l -3.72053,2.57574 -0.28619,1.65357 -4.32471,3.56152 -4.29291,-0.98578 0,-2.57574 -2.00335,1.30377 0.85858,2.25775 -3.17992,0 -1.71717,2.92554 -2.16235,2.44854 -3.87952,0.79498 2.28955,2.28956 0.60418,2.25775 -2.89373,0 -3.72051,1.97155 0,5.85108 1.71715,0 1.58997,1.78076 3.59332,-1.78076 1.43098,-3.59333 2.57573,-1.62176 0.5724,-1.30378 4.32469,-0.95397 2.28956,2.60755 2.60755,1.27196 -1.46277,2.92555 2.32134,-0.63599 1.14479,-2.92554 -2.89375,-3.24353 1.17657,0 2.86194,2.25775 0.57239,3.27534 2.57575,2.92553 0.57238,-4.22931 1.46278,-0.66779 c 1.42093,1.47466 2.52373,3.23747 3.72052,4.8971 l 4.32471,0.31799 2.57573,1.62177 -1.14477,1.62176 -2.57575,2.28955 -3.75231,0 -4.8971,-1.62176 -2.57575,0.31798 -1.87615,2.09876 -5.31049,-5.34228 -3.72052,-0.98578 -5.46947,0.63598 -4.8971,1.30378 c -2.74147,3.10703 -5.45045,6.21759 -8.04523,9.44439 l -3.14814,7.47285 1.43098,1.62176 -2.57574,3.91131 2.86194,6.83686 c 2.44374,2.76355 4.87366,5.50229 7.31384,8.26782 l 3.59332,-3.08454 1.58997,1.81257 3.8795,-2.44856 1.30378,1.46277 3.87952,0 2.22595,2.51216 -1.36737,4.48369 2.73474,3.08454 -0.159,5.37408 2.03515,3.87952 -1.46277,3.27533 c -0.14311,2.39281 -0.28618,4.76162 -0.28618,7.15484 1.1778,3.24221 2.35394,6.46507 3.46613,9.73059 l 0.85858,5.2151 0,2.60753 2.00335,0 3.17993,-1.93975 3.72052,0 5.59668,-6.35987 -0.69959,-2.09875 3.72052,-3.27533 -2.73473,-3.08454 3.30712,-2.76654 3.17993,-1.93975 1.43098,-1.62178 -0.8586,-3.59332 c 0,-3.0335 0,-6.06068 0,-9.09459 l 2.57576,-5.53308 3.17992,-3.56152 3.43432,-8.45862 0,-2.28955 c -1.71298,0.21571 -3.38021,0.42013 -5.05609,0.54058 l 3.46613,-3.46612 4.7381,-3.24353 2.60755,-2.92554 0,-3.27533 c -0.57527,-1.08456 -1.16977,-2.15898 -1.74896,-3.24352 l -2.28955,2.60754 -1.71718,-1.93976 -2.57573,-1.97157 0,-4.2293 3.02094,3.43432 3.27532,-0.50878 c 1.50554,1.36638 3.00418,2.67362 4.3247,4.2293 l 2.16236,-2.41673 c 0,-2.58611 -2.95624,-15.33538 -9.2536,-26.13905 -6.29736,-10.80011 -17.33064,-20.66955 -17.33063,-20.66955 l -0.85858,1.43096 -2.89374,3.24355 -3.72051,-3.91132 3.72051,0 1.71717,-1.93976 -6.86865,-1.30377 -3.75232,-1.30378 0,0 z m -28.49218,4.2293 -2.28956,1.30379 -1.14478,-0.31801 -0.28618,1.93976 2.00335,1.30379 3.43433,-2.25776 -1.71716,-1.97157 0,0 z m -37.93658,0.66779 -2.28956,1.62177 2.86194,1.93977 2.28956,0 0,-2.25776 -2.86194,-1.30378 0,0 z m 45.40941,7.47284 0,1.93976 1.14478,1.30378 0,2.92552 -0.57239,3.91133 3.17993,-0.63599 2.28956,-2.28956 -2.00336,-1.93974 c -0.67567,-1.79877 -1.47568,-3.48984 -2.32135,-5.2151 l -1.71717,0 0,0 z m -1.14477,3.91132 -2.00335,0.63599 0.57238,3.59333 2.57574,-1.30378 -1.14477,-2.92554 z m -39.65375,5.85107 0.85859,4.54731 1.71717,-2.60755 -2.57576,-1.93976 z m 75.04638,25.37586 3.30713,3.72052 3.87952,8.29961 2.28954,2.60755 -1.14476,2.92553 2.19415,2.48035 c -1.00856,0.0684 -2.0157,0.1272 -3.05273,0.1272 -1.83014,-3.84456 -3.21724,-7.71192 -4.61091,-11.73395 l -2.44854,-2.76654 -1.27197,-4.70629 0.85857,-0.95398 0,0 z"
                 transform="translate(-10,0)"
                 clip-path="url(#clipPath11385)"
                 id="path11361"
                 style="fill:none;stroke:url(#radialGradient9939);stroke-width:0.69815451;stroke-miterlimit:4;stroke-dasharray:none;marker:none;visibility:visible;display:inline;overflow:visible" />
            </g>
            <path
               d="m -274.24342,106.18574 -8.61759,0.95396 -10.62099,2.92554 -2.03515,1.97157 6.61426,4.54729 0,2.60755 -2.57574,2.57575 3.43433,6.83684 2.28954,-1.30377 2.89375,-4.54729 c 4.43992,-1.3723 8.43601,-2.91398 12.65612,-4.8653 l 3.43432,-8.77661 -7.47285,-2.92553 0,0 z m -20.41515,0.63598 -3.68872,0.54058 -1.74895,1.74897 -2.89375,0.41338 -2.57574,1.20838 -1.24017,0.60419 -0.76319,1.01758 3.72052,0.63598 1.43098,-1.30377 2.89373,-0.63598 c 1.96888,-0.95729 3.95277,-1.61408 6.04186,-2.28956 l -1.17657,-1.93975 0,0 z m -11.76574,7.79083 -2.60755,0.66778 -1.14477,2.28956 -1.43096,-2.92554 -0.57241,1.27196 0.28621,3.27534 -2.28956,1.93976 -1.43097,3.59332 2.86194,0 1.43097,-3.27534 c 1.23942,-0.87625 2.48992,-1.76407 3.75232,-2.60754 l 2.86194,0.98579 c 1.9151,1.30075 3.83895,2.61253 5.75568,3.91131 l 2.86194,-2.60754 -3.14814,-1.30377 -1.43097,-2.92553 -5.46948,-0.636 -0.28619,-1.65356 z m -12.08375,2.60754 -1.43096,3.59332 c -10e-6,0 -2.40297,0.45163 -3.02093,0.60419 -7.89188,7.27015 -23.83365,22.968 -27.53821,52.59607 0.14672,0.68694 2.67114,4.67449 2.67114,4.67449 l 6.04187,3.59332 6.04186,1.62177 2.57576,3.24353 4.03851,2.92554 2.28955,-0.318 1.71717,0.76319 0,0.54058 -2.28956,6.16908 -1.71716,2.60754 0.57238,1.30377 -1.43097,4.86529 5.15149,9.4444 5.1833,4.54731 2.28955,3.24352 -0.28621,6.83685 1.74897,3.91131 -1.74897,7.47285 c -0.0277,0.0221 -0.0698,0.13815 0.0954,0.69959 0.22222,0.74899 9.22288,5.73498 9.79418,5.31048 0.56931,-0.43241 1.04938,-0.82678 1.04938,-0.82678 l -0.57238,-1.58997 2.28954,-2.28955 0.85858,-2.28955 3.75233,-1.30377 2.86193,-7.15485 -0.85858,-1.93976 2.00336,-2.92553 4.3247,-0.98578 2.28955,-5.18329 -0.57238,-6.51886 3.43432,-4.8653 0.57239,-4.89709 c -4.71829,-2.33905 -9.37221,-4.74661 -14.05529,-7.15484 l -2.32135,-4.54731 -4.29292,-0.98577 -2.32135,-6.16907 -5.72387,0.66779 -4.89709,-3.59332 -5.18328,4.54729 0,0.73138 c -1.56566,-0.45176 -3.47126,-0.51045 -4.86531,-1.36736 l -1.14477,-3.24353 0,-3.59332 -3.46612,0.31799 c 0.28784,-2.27741 0.56878,-4.52804 0.85858,-6.80505 l -2.00337,0 -2.00335,2.57573 -2.03515,0.9858 -2.86194,-1.62178 -0.2862,-3.59332 0.5724,-3.87952 4.32471,-3.24352 3.43432,0 0.57239,-1.97156 4.32471,0.98578 3.14812,3.91131 0.5724,-6.51886 5.46947,-4.54731 2.00335,-4.89708 4.03853,-1.62177 2.28953,-3.24353 5.18329,-0.98578 2.57576,-3.87951 c -2.58689,0 -5.17216,0 -7.75905,0 l 4.89711,-2.28955 3.43432,0 4.8971,-1.62177 0.57238,-1.93976 -1.71715,-1.65356 -2.03517,-0.63599 0.5724,-1.93975 -1.43098,-2.92554 -3.43432,1.27197 0.57239,-2.57574 -4.03852,-2.28955 -3.14813,5.53307 0.28619,1.93977 -3.14813,1.30377 -2.03515,4.22931 -0.85858,-3.91132 -5.46949,-2.25775 -0.85857,-2.92553 7.18664,-4.22932 3.17993,-2.92554 0.2862,-3.59331 -1.71718,-0.95398 -2.32135,-0.3498 10e-6,0 z m 80.51587,0 -5.46949,1.30378 -3.43433,2.28954 0,1.93977 -5.46947,3.59332 1.14477,5.18328 3.17994,-2.25774 2.00335,2.25774 2.28955,1.30378 1.46277,-3.87952 -0.89039,-2.28955 0.89039,-1.62177 3.14813,-2.92554 1.43096,0 -1.43096,3.24354 0,2.92554 c 1.32052,-0.35928 2.65535,-0.46802 4.00672,-0.63599 l -3.72053,2.57574 -0.28619,1.65357 -4.32471,3.56152 -4.29291,-0.98578 0,-2.57574 -2.00335,1.30377 0.85858,2.25775 -3.17992,0 -1.71717,2.92554 -2.16235,2.44854 -3.87952,0.79498 2.28955,2.28956 0.60418,2.25775 -2.89373,0 -3.72051,1.97155 0,5.85108 1.71715,0 1.58997,1.78076 3.59332,-1.78076 1.43098,-3.59333 2.57573,-1.62176 0.5724,-1.30378 4.32469,-0.95397 2.28956,2.60755 2.60755,1.27196 -1.46277,2.92555 2.32134,-0.63599 1.14479,-2.92554 -2.89375,-3.24353 1.17657,0 2.86194,2.25775 0.57239,3.27534 2.57575,2.92553 0.57238,-4.22931 1.46278,-0.66779 c 1.42093,1.47466 2.52373,3.23747 3.72052,4.8971 l 4.32471,0.31799 2.57573,1.62177 -1.14477,1.62176 -2.57575,2.28955 -3.75231,0 -4.8971,-1.62176 -2.57575,0.31798 -1.87615,2.09876 -5.31049,-5.34228 -3.72052,-0.98578 -5.46947,0.63598 -4.8971,1.30378 c -2.74147,3.10703 -5.45045,6.21759 -8.04523,9.44439 l -3.14814,7.47285 1.43098,1.62176 -2.57574,3.91131 2.86194,6.83686 c 2.44374,2.76355 4.87366,5.50229 7.31384,8.26782 l 3.59332,-3.08454 1.58997,1.81257 3.8795,-2.44856 1.30378,1.46277 3.87952,0 2.22595,2.51216 -1.36737,4.48369 2.73474,3.08454 -0.159,5.37408 2.03515,3.87952 -1.46277,3.27533 c -0.14311,2.39281 -0.28618,4.76162 -0.28618,7.15484 1.1778,3.24221 2.35394,6.46507 3.46613,9.73059 l 0.85858,5.2151 0,2.60753 2.00335,0 3.17993,-1.93975 3.72052,0 5.59668,-6.35987 -0.69959,-2.09875 3.72052,-3.27533 -2.73473,-3.08454 3.30712,-2.76654 3.17993,-1.93975 1.43098,-1.62178 -0.8586,-3.59332 c 0,-3.0335 0,-6.06068 0,-9.09459 l 2.57576,-5.53308 3.17992,-3.56152 3.43432,-8.45862 0,-2.28955 c -1.71298,0.21571 -3.38021,0.42013 -5.05609,0.54058 l 3.46613,-3.46612 4.7381,-3.24353 2.60755,-2.92554 0,-3.27533 c -0.57527,-1.08456 -1.16977,-2.15898 -1.74896,-3.24352 l -2.28955,2.60754 -1.71718,-1.93976 -2.57573,-1.97157 0,-4.2293 3.02094,3.43432 3.27532,-0.50878 c 1.50554,1.36638 3.00418,2.67362 4.3247,4.2293 l 2.16236,-2.41673 c 0,-2.58611 -2.95624,-15.33538 -9.2536,-26.13905 -6.29736,-10.80011 -17.33064,-20.66955 -17.33063,-20.66955 l -0.85858,1.43096 -2.89374,3.24355 -3.72051,-3.91132 3.72051,0 1.71717,-1.93976 -6.86865,-1.30377 -3.75232,-1.30378 0,0 z m -28.49218,4.2293 -2.28956,1.30379 -1.14478,-0.31801 -0.28618,1.93976 2.00335,1.30379 3.43433,-2.25776 -1.71716,-1.97157 0,0 z m -37.93658,0.66779 -2.28956,1.62177 2.86194,1.93977 2.28956,0 0,-2.25776 -2.86194,-1.30378 0,0 z m 45.40941,7.47284 0,1.93976 1.14478,1.30378 0,2.92552 -0.57239,3.91133 3.17993,-0.63599 2.28956,-2.28956 -2.00336,-1.93974 c -0.67567,-1.79877 -1.47568,-3.48984 -2.32135,-5.2151 l -1.71717,0 0,0 z m -1.14477,3.91132 -2.00335,0.63599 0.57238,3.59333 2.57574,-1.30378 -1.14477,-2.92554 z m -39.65375,5.85107 0.85859,4.54731 1.71717,-2.60755 -2.57576,-1.93976 z m 75.04638,25.37586 3.30713,3.72052 3.87952,8.29961 2.28954,2.60755 -1.14476,2.92553 2.19415,2.48035 c -1.00856,0.0684 -2.0157,0.1272 -3.05273,0.1272 -1.83014,-3.84456 -3.21724,-7.71192 -4.61091,-11.73395 l -2.44854,-2.76654 -1.27197,-4.70629 0.85857,-0.95398 z"
               id="path11315"
               style="opacity:0.240816;fill:url(#radialGradient13319);fill-opacity:1;fill-rule:nonzero;stroke-width:0.120316;marker:none;visibility:visible;display:inline;overflow:visible" />
          </g>
          <path
             d="m -351.38862,148.57242 c 0,20.99929 -23.97229,38.0227 -53.53899,38.0227 -29.56942,0 -53.54035,-17.0236 -53.54035,-38.0227 0,-20.99832 23.97093,-38.01999 53.54035,-38.01999 29.5667,0 53.53899,17.02167 53.53899,38.01999 l 0,0 z"
             id="path11399"
             style="fill:url(#radialGradient13321);fill-opacity:1;fill-rule:nonzero;stroke:none;display:inline" />
        </g>
      </g>
      <path
         d="M 148.40625,90.71875 140,91.65625 l -10.53125,2.90625 -1.4375,1.40625 6.0625,4.1875 a 0.54323919,0.54323919 0 0 1 0.21875,0.4375 l 0,2.59375 a 0.54323919,0.54323919 0 0 1 -0.15625,0.375 l -2.28125,2.3125 3.03125,5.96875 1.65625,-0.9375 2.8125,-4.4375 a 0.54323919,0.54323919 0 0 1 0.3125,-0.25 c 4.34907,-1.34422 8.27704,-2.8497 12.40625,-4.75 L 155.25,93.4375 148.40625,90.71875 z m -20.65625,0.6875 -3.15625,0.46875 -1.625,1.625 a 0.54323919,0.54323919 0 0 1 -0.3125,0.15625 l -2.71875,0.375 -0.0312,0 -2.53125,1.15625 -0.0312,0.03125 -1.03125,0.53125 -0.1875,0.21875 2.53125,0.4375 1.25,-1.125 a 0.54323919,0.54323919 0 0 1 0.25,-0.125 l 2.78125,-0.59375 c 0.0388,-0.01887 0.0862,-0.0126 0.125,-0.03125 1.75519,-0.843833 3.52714,-1.496363 5.34375,-2.09375 L 127.75,91.40625 z m -11.90625,7.875 -1.78125,0.46875 -1.03125,2.0625 a 0.54323919,0.54323919 0 0 1 -1,0 l -0.90625,-1.875 -0.0625,0.09375 0.28125,3.125 a 0.54323919,0.54323919 0 0 1 -0.1875,0.4375 l -2.21875,1.84375 -1.0625,2.75 1.6875,0 1.3125,-2.96875 A 0.54323919,0.54323919 0 0 1 111.0625,105 c 1.24076,-0.8772 2.48099,-1.74587 3.75,-2.59375 a 0.54323919,0.54323919 0 0 1 0.5,-0.0625 l 2.875,0.96875 a 0.54323919,0.54323919 0 0 1 0.125,0.0625 c 1.79477,1.21902 3.58542,2.47054 5.375,3.6875 l 1.90625,-1.78125 -2.34375,-0.96875 a 0.54323919,0.54323919 0 0 1 -0.28125,-0.25 l -1.3125,-2.65625 L 116.5,100.8125 a 0.54323919,0.54323919 0 0 1 -0.46875,-0.4375 l -0.1875,-1.09375 z m 68.875,2.5 -5.28125,1.25 -3.09375,2.0625 0,1.65625 a 0.54323919,0.54323919 0 0 1 -0.21875,0.46875 l -5.15625,3.40625 0.875,4 2.5,-1.78125 a 0.54323919,0.54323919 0 0 1 0.71875,0.0625 l 1.96875,2.21875 0.0312,0.0312 1.59375,0.90625 1.1875,-3.09375 -0.8125,-2.125 a 0.54323919,0.54323919 0 0 1 0.0312,-0.4375 l 0.875,-1.625 a 0.54323919,0.54323919 0 0 1 0.0937,-0.15625 l 3.15625,-2.90625 a 0.54323919,0.54323919 0 0 1 0.375,-0.125 l 1.4375,0 a 0.54323919,0.54323919 0 0 1 0.5,0.75 l -1.40625,3.1875 0,2.125 c 1.1454,-0.2439 2.29595,-0.39324 3.40625,-0.53125 a 0.54323919,0.54323919 0 0 1 0.375,0.96875 l -3.53125,2.4375 -0.25,1.4375 a 0.54323919,0.54323919 0 0 1 -0.1875,0.3125 l -4.3125,3.5625 a 0.54323919,0.54323919 0 0 1 -0.46875,0.125 L 174.8125,119 a 0.54323919,0.54323919 0 0 1 -0.40625,-0.53125 l 0,-1.5625 -0.8125,0.53125 0.71875,1.8125 a 0.54323919,0.54323919 0 0 1 -0.5,0.71875 l -2.875,0 -1.5625,2.6875 a 0.54323919,0.54323919 0 0 1 -0.0625,0.0937 l -2.15625,2.4375 a 0.54323919,0.54323919 0 0 1 -0.28125,0.15625 l -2.90625,0.625 1.5625,1.5625 a 0.54323919,0.54323919 0 0 1 0.15625,0.25 l 0.59375,2.25 a 0.54323919,0.54323919 0 0 1 -0.53125,0.6563 l -2.75,0 -3.34375,1.75 0,5 1.1875,0 a 0.54323919,0.54323919 0 0 1 0.40625,0.15625 l 1.3125,1.46875 3.0625,-1.53125 1.34375,-3.34375 a 0.54323919,0.54323919 0 0 1 0.21875,-0.28125 l 2.40625,-1.53125 0.53125,-1.125 a 0.54323919,0.54323919 0 0 1 0.375,-0.3125 l 4.3125,-0.96875 a 0.54323919,0.54323919 0 0 1 0.53125,0.1875 l 2.1875,2.5 2.53125,1.21875 a 0.54323919,0.54323919 0 0 1 0.28125,0.75 l -0.90625,1.84375 0.875,-0.25 0.90625,-2.34375 -2.6875,-3 a 0.54323919,0.54323919 0 0 1 0.40625,-0.90625 l 1.1875,0 a 0.54323919,0.54323919 0 0 1 0.34375,0.0937 l 2.875,2.25 a 0.54323919,0.54323919 0 0 1 0.1875,0.34375 l 0.53125,3.15625 1.6875,1.9375 0.4375,-3.0625 A 0.54323919,0.54323919 0 0 1 186.5,134.25 l 1.46875,-0.6875 a 0.54323919,0.54323919 0 0 1 0.625,0.125 c 1.42085,1.47457 2.49044,3.19137 3.625,4.78125 L 196.25,138.75 a 0.54323919,0.54323919 0 0 1 0.25,0.0625 l 2.5625,1.625 a 0.54323919,0.54323919 0 0 1 0.15625,0.78125 l -1.125,1.625 A 0.54323919,0.54323919 0 0 1 198,142.9375 l -2.59375,2.28125 a 0.54323919,0.54323919 0 0 1 -0.34375,0.125 l -3.75,0 a 0.54323919,0.54323919 0 0 1 -0.15625,-0.0312 l -4.75,-1.59375 -2.28125,0.2812 -1.75,2 a 0.54323919,0.54323919 0 0 1 -0.78125,0 l -5.1875,-5.21875 -3.5625,-0.9375 -5.25,0.59375 -0.0625,0 -4.65625,1.25 c -2.69943,3.06044 -5.32491,6.11176 -7.875,9.28125 -0.009,0.0115 -0.022,0.0198 -0.0312,0.0312 l -2.9688,7.0313 1.21875,1.34375 a 0.54323919,0.54323919 0 0 1 0.0625,0.65625 l -2.40625,3.71875 2.6875,6.4375 c 2.31172,2.61434 4.59884,5.22872 6.90625,7.84375 l 3.1875,-2.75 a 0.54323919,0.54323919 0 0 1 0.75,0.0625 l 1.28125,1.46875 3.5,-2.21875 a 0.54323919,0.54323919 0 0 1 0.6875,0.0937 l 1.1875,1.3125 3.59375,0 a 0.54323919,0.54323919 0 0 1 0.40625,0.15625 l 2.21875,2.5 a 0.54323919,0.54323919 0 0 1 0.125,0.53125 l -1.25,4.21875 2.5,2.8125 a 0.54323919,0.54323919 0 0 1 0.125,0.40625 l -0.15625,5.21875 1.96875,3.75 a 0.54323919,0.54323919 0 0 1 0.0312,0.46875 l -1.4375,3.21875 c -0.13845,2.31782 -0.27778,4.60698 -0.28125,6.90625 1.16616,3.20954 2.33326,6.38281 3.4375,9.625 a 0.54323919,0.54323919 0 0 1 0.0312,0.0937 l 0.84375,5.21875 a 0.54323919,0.54323919 0 0 1 0,0.0937 l 0,2.09375 1.3125,0 3.0625,-1.875 a 0.54323919,0.54323919 0 0 1 0.28125,-0.0625 l 3.46875,0 5.21875,-5.9375 -0.59375,-1.84375 a 0.54323919,0.54323919 0 0 1 0.15625,-0.5625 l 3.3125,-2.9375 -2.34375,-2.625 a 0.54323919,0.54323919 0 0 1 0.0625,-0.78125 l 3.28125,-2.78125 a 0.54323919,0.54323919 0 0 1 0.0625,-0.0625 l 3.0626,-1.8436 0.0312,-0.0312 1.21875,-1.375 -0.78125,-3.3125 a 0.54323919,0.54323919 0 0 1 0,-0.125 l 0,-9.09375 a 0.54323919,0.54323919 0 0 1 0.0312,-0.21875 l 2.5625,-5.53125 a 0.54323919,0.54323919 0 0 1 0.0937,-0.15625 l 3.125,-3.5 3.375,-8.3125 0,-1.53125 c -1.50986,0.1862 -3.00533,0.36132 -4.5,0.46875 a 0.54323919,0.54323919 0 0 1 -0.0937,0 0.54323919,0.54323919 0 0 1 -0.125,0 c -1.01297,0.0687 -2.03696,0.125 -3.09375,0.125 a 0.54323919,0.54323919 0 0 1 -0.5,-0.3125 c -1.83,-3.84426 -3.20903,-7.66305 -4.59375,-11.65625 l -2.375,-2.71875 a 0.54323919,0.54323919 0 0 1 -0.125,-0.1875 l -1.28125,-4.6875 a 0.54323919,0.54323919 0 0 1 0.125,-0.53125 l 0.875,-0.96875 a 0.54323919,0.54323919 0 0 1 0.8125,0 l 3.3125,3.71875 a 0.54323919,0.54323919 0 0 1 0.0937,0.15625 l 3.84375,8.28125 0.0312,0.0312 2.1875,2.46875 a 0.54323919,0.54323919 0 0 1 0.0937,0.53125 l -1,2.625 1.71875,1.90625 3.15625,-3.15625 a 0.54323919,0.54323919 0 0 1 0.0625,-0.0625 l 4.625,-3.15625 2.5,-2.8125 0,-2.90625 c -0.43067,-0.80965 -0.87325,-1.62334 -1.3125,-2.4375 l -1.78125,2.03125 a 0.54323919,0.54323919 0 0 1 -0.8125,0.0312 l -1.65625,-1.875 -0.0625,-0.0625 -2.53125,-1.90625 a 0.54323919,0.54323919 0 0 1 -0.1875,-0.4375 l 0,-4.25 a 0.54323919,0.54323919 0 0 1 0.9375,-0.34375 l 2.8125,3.21875 3,-0.46875 a 0.54323919,0.54323919 0 0 1 0.46875,0.125 c 1.34385,1.21965 2.66631,2.4332 3.90625,3.8125 l 1.625,-1.78125 c -0.0178,-0.58833 -0.17977,-1.72651 -0.53125,-3.34375 -0.37121,-1.70804 -0.92956,-3.86753 -1.6875,-6.28125 -1.51588,-4.82745 -3.81698,-10.67773 -6.9375,-16.03125 -5.80351,-9.95353 -15.38503,-18.87217 -16.7185,-20.0937 l -0.53125,0.84375 a 0.54323919,0.54323919 0 0 1 -0.0625,0.0937 l -2.875,3.25 a 0.54323919,0.54323919 0 0 1 -0.8125,0 l -3.75,-3.90625 A 0.54323919,0.54323919 0 0 1 189.875,105.25 l 3.5,0 0.9375,-1.0625 -5.9375,-1.125 a 0.54323919,0.54323919 0 0 1 -0.0937,-0.0312 l -3.5625,-1.25 z m -80.1875,0.0312 L 103.25,105 a 0.54323919,0.54323919 0 0 1 -0.40625,0.34375 c 0,0 -2.12451,0.40644 -2.8125,0.5625 -7.89104,7.27668 -23.580727,22.76284 -27.28125,52.03125 0.01324,0.035 0.03472,0.095 0.09375,0.21875 0.07634,0.16009 0.186149,0.36351 0.3125,0.59375 0.252703,0.46049 0.581586,1.02299 0.90625,1.5625 0.612494,1.01781 1.152929,1.86493 1.21875,1.96875 l 5.78125,3.46875 0.03125,0 6.03125,1.625 a 0.54323919,0.54323919 0 0 1 0.28125,0.1875 l 2.5625,3.25 3.75,2.6875 2.0625,-0.28125 a 0.54323919,0.54323919 0 0 1 0.28125,0.0312 l 1.71875,0.78125 a 0.54323919,0.54323919 0 0 1 0.3125,0.5 l 0,0.53125 A 0.54323919,0.54323919 0 0 1 98.0625,175.25 l -2.28125,6.15625 a 0.54323919,0.54323919 0 0 1 -0.03125,0.125 l -1.5625,2.375 0.46875,1 a 0.54323919,0.54323919 0 0 1 0.03125,0.375 l -1.375,4.6875 4.9375,9.0625 0.03125,0 5.125,4.5625 a 0.54323919,0.54323919 0 0 1 0.0625,0.0937 l 2.3125,3.25 a 0.54323919,0.54323919 0 0 1 0.0937,0.34375 l -0.28125,6.65625 1.71875,3.84375 a 0.54323919,0.54323919 0 0 1 0.0312,0.34375 l -1.75,7.4375 c 1.2e-4,0.002 -3e-4,0.0284 0,0.0312 0.004,0.0365 0.0343,0.1649 0.0937,0.375 0.0523,0.0519 0.12681,0.12354 0.25,0.21875 0.24638,0.19042 0.62907,0.4407 1.0625,0.71875 0.86685,0.55611 2.02331,1.23609 3.1875,1.875 1.16419,0.63891 2.34451,1.24609 3.25,1.65625 0.45275,0.20508 0.82821,0.35169 1.09375,0.4375 0.10153,0.0328 0.16492,0.0201 0.21875,0.0312 0.30289,-0.23084 0.45433,-0.3616 0.59375,-0.46875 l -0.4375,-1.1875 a 0.54323919,0.54323919 0 0 1 0.125,-0.5625 l 2.21875,-2.21875 0.8125,-2.1875 a 0.54323919,0.54323919 0 0 1 0.3125,-0.3125 l 3.53125,-1.25 2.6875,-6.6875 -0.78125,-1.75 a 0.54323919,0.54323919 0 0 1 0.0627,-0.5311 l 2,-2.90625 a 0.54323919,0.54323919 0 0 1 0.3125,-0.21875 l 4.09375,-0.9375 2.125,-4.84375 -0.5625,-6.34375 a 0.54323919,0.54323919 0 0 1 0.0937,-0.34375 l 3.375,-4.75 0.5,-4.375 c -4.61665,-2.29286 -9.17116,-4.67662 -13.75,-7.03125 a 0.54323919,0.54323919 0 0 1 -0.21875,-0.21875 l -2.1875,-4.3125 -4.09375,-0.9375 a 0.54323919,0.54323919 0 0 1 -0.375,-0.34375 l -2.15625,-5.75 -5.3125,0.59375 a 0.54323919,0.54323919 0 0 1 -0.375,-0.0937 l -4.5625,-3.34375 -4.6875,4.125 0,0.46875 a 0.54323919,0.54323919 0 0 1 -0.6875,0.53125 c -1.461334,-0.42166 -3.394326,-0.43847 -4.96875,-1.40625 A 0.54323919,0.54323919 0 0 1 92.2187,171.0313 l -1.15625,-3.25 a 0.54323919,0.54323919 0 0 1 -0.03125,-0.1875 l 0,-3 -2.875,0.25 A 0.54323919,0.54323919 0 0 1 87.5625,164.25 c 0.263041,-2.0812 0.546947,-4.1435 0.8125,-6.21875 l -1.125,0 -1.875,2.40625 a 0.54323919,0.54323919 0 0 1 -0.21875,0.15625 L 83.125,161.5625 a 0.54323919,0.54323919 0 0 1 -0.5,-0.0312 l -2.84375,-1.625 a 0.54323919,0.54323919 0 0 1 -0.25,-0.4375 L 79.25,155.875 a 0.54323919,0.54323919 0 0 1 0,-0.0937 l 0.5625,-3.875 a 0.54323919,0.54323919 0 0 1 0.21875,-0.375 l 4.3125,-3.25 a 0.54323919,0.54323919 0 0 1 0.3125,-0.0937 l 3.03125,0 0.46875,-1.59375 a 0.54323919,0.54323919 0 0 1 0.65625,-0.375 l 4.3125,1 a 0.54323919,0.54323919 0 0 1 0.3125,0.1875 l 2.3125,2.84375 0.4375,-5.15625 a 0.54323919,0.54323919 0 0 1 0.1875,-0.375 l 5.34375,-4.4375 1.96875,-4.8125 A 0.54323919,0.54323919 0 0 1 104,135.1875 l 3.875,-1.5625 2.21875,-3.125 a 0.54323919,0.54323919 0 0 1 0.34375,-0.21875 l 4.9375,-0.9375 1.90625,-2.84375 -6.75,0 a 0.54323919,0.54323919 0 0 1 -0.21875,-1.03125 l 4.875,-2.3125 a 0.54323919,0.54323919 0 0 1 0.21875,-0.0312 l 3.28125,0 4.625,-1.5 0.375,-1.375 -1.375,-1.28125 -1.90625,-0.625 a 0.54323919,0.54323919 0 0 1 -0.375,-0.6875 l 0.5,-1.71875 -1.09375,-2.28125 -2.96875,1.0625 a 0.54323919,0.54323919 0 0 1 -0.71875,-0.625 l 0.46875,-2.15625 -3.1875,-1.8125 -2.8125,4.90625 0.25,1.75 a 0.54323919,0.54323919 0 0 1 -0.3125,0.5625 l -2.9375,1.1875 -1.96875,4.09375 a 0.54323919,0.54323919 0 0 1 -1.03125,-0.125 l -0.78125,-3.625 -5.21875,-2.1875 a 0.54323919,0.54323919 0 0 1 -0.3125,-0.34375 l -0.875,-2.90625 a 0.54323919,0.54323919 0 0 1 0.25,-0.625 l 7.09375,-4.1875 0.0937,-0.0625 2.96875,-2.71875 0.21875,-3 -1.34375,-0.75 -1.78125,-0.28125 z m 51.59375,4.3125 -1.90625,1.09375 a 0.54323919,0.54323919 0 0 1 -0.4375,0.0625 l -0.5625,-0.15625 -0.125,0.96875 1.4375,0.9375 2.59375,-1.75 -1,-1.15625 z m -37.78125,0.625 -1.40625,1 2.09375,1.40625 1.5625,0 0,-1.40625 -2.25,-1 z m 45.875,7.375 0,1.21875 1.03125,1.1563 a 0.54323919,0.54323919 0 0 1 0.125,0.34375 l 0,2.90625 a 0.54323919,0.54323919 0 0 1 0,0.0937 l -0.46875,3.125 2.28125,-0.4375 1.78125,-1.78125 -1.625,-1.5625 A 0.54323919,0.54323919 0 0 1 167.21875,119 c -0.6298,-1.67666 -1.39699,-3.25323 -2.1875,-4.875 l -0.8125,0 z m -2,4.0625 -1.0625,0.3125 0.375,2.375 1.46875,-0.71875 -0.78125,-1.96875 z m -38.5625,6.40625 0.375,1.875 0.6875,-1.0625 -1.0625,-0.8125 z"
         transform="translate(-0.69815762,0)"
         id="path3518"
         style="fill:none;stroke:url(#radialGradient4298);stroke-width:0.69815761;stroke-miterlimit:4;stroke-dasharray:none;marker:none;visibility:visible;display:inline;overflow:visible;enable-background:new" />
      <path
         d="m 54.979206,127.14862 c -0.46429,3.26957 -0.71875,6.60285 -0.71875,10 0,38.9975 31.658751,70.65625 70.656254,70.65625 38.99751,0 70.65626,-31.65875 70.65626,-70.65625 0,-3.39715 -0.25446,-6.73043 -0.71875,-10 -4.8655,34.26343 -34.33714,60.65625 -69.93751,60.65625 -35.600363,0 -65.072004,-26.39282 -69.937504,-60.65625 l 0,0 0,0 z"
         transform="matrix(0.96990103,0,0,0.96990103,26.085999,29.2667)"
         id="path11328"
         style="opacity:0.48706898;fill:url(#radialGradient4323);fill-opacity:1;fill-rule:nonzero;stroke:none;stroke-width:0.46740001;marker:none;visibility:visible;display:inline;overflow:visible;filter:url(#filter28868-5-7-4);enable-background:new" />
    </g>
    <path
       d="m 24,18.125 a 6,6 0 1 1 -12,0 6,6 0 1 1 12,0 z"
       transform="matrix(3.0265949,0,0,3.0265949,42.556847,73.681356)"
       id="path3066-4"
       style="opacity:0.6;color:#000000;fill:none;stroke:#ffffff;stroke-width:2.79999995;stroke-linecap:butt;stroke-linejoin:round;stroke-miterlimit:4;stroke-opacity:1;stroke-dasharray:none;stroke-dashoffset:0;marker:none;visibility:visible;display:inline;overflow:visible" />
    <path
       d="m 24,18.125 a 6,6 0 1 1 -12,0 6,6 0 1 1 12,0 z"
       transform="matrix(5.9611657,0,0,5.9611657,-10.265392,20.492295)"
       id="path3941-2"
       style="opacity:0.6;color:#000000;fill:none;stroke:#ffffff;stroke-width:0.71080583;stroke-linecap:butt;stroke-linejoin:round;stroke-miterlimit:4;stroke-opacity:1;stroke-dasharray:none;stroke-dashoffset:0;marker:none;visibility:visible;display:inline;overflow:visible" />
    <path
       d="m 24,18.125 a 6,6 0 1 1 -12,0 6,6 0 1 1 12,0 z"
       transform="matrix(8.691701,0,0,8.691701,-59.41499,-28.998625)"
       id="path3943-0"
       style="opacity:0.6;color:#000000;fill:none;stroke:#ffffff;stroke-width:0.24375159;stroke-linecap:butt;stroke-linejoin:round;stroke-miterlimit:4;stroke-opacity:1;stroke-dasharray:none;stroke-dashoffset:0;marker:none;visibility:visible;display:inline;overflow:visible" />
  </g>
  <g
     transform="translate(0,-44)"
     id="layer4"
     style="display:inline" />
</svg>
